<svg width="1556" height="746" viewBox="0 0 1556 746" fill="none" xmlns="http://www.w3.org/2000/svg">
<g clip-path="url(#clip0_172_42)">
<rect width="1556" height="746" fill="white"/>
<rect x="-32" width="1626" height="755" fill="#92E3A9"/>
<path d="M1337 754.994C1337 746.796 1338.29 738.683 1340.78 731.14C1346.27 712.562 1355.87 749.69 1355.87 749.69C1355.87 749.69 1355.87 745.275 1366.14 731.14C1376.41 717.005 1385.35 741.748 1385.35 741.748C1385.35 741.748 1380.55 682.515 1392.2 686.931C1403.85 691.346 1402.49 741.748 1402.49 741.748C1402.49 741.748 1410.71 704.593 1421.67 704.593C1432.63 704.593 1435.39 731.14 1435.39 731.14C1435.39 731.14 1438.08 684.265 1449.11 683.377C1460.13 682.488 1472.4 722.228 1472.4 722.228C1472.4 722.228 1468.98 669.188 1479.94 666.523C1490.9 663.857 1495.03 685.989 1495.03 685.989C1495.03 685.989 1504.64 612.594 1523.13 621.371C1541.63 630.149 1525.76 711.674 1525.76 711.674C1525.76 711.674 1544.28 655.134 1559.37 668.353C1573.07 680.415 1570.78 743.605 1567.49 754.994H1337Z" fill="#6CAE7E"/>
<path d="M218.453 356.668L222.847 305.68L347.458 221.062L296.85 245.384L300.162 218.79L282.38 255.852L222.824 289.458C222.824 289.458 225.906 278.288 230.323 262.066C234.74 245.843 272.466 200.222 272.466 200.222L226.159 243.111L229.518 211.682L213.829 262.936L199.038 265.716L197.497 208.321L188.663 184L186.478 208.321V298.717L132.994 229.113L141.252 184L119.79 221.304L70.7458 188.642C70.7458 188.642 138.239 257.641 156.987 285.348L87.6995 250.654L69.6416 215.163L78.475 245.287L35.458 252.25L81.0975 255.006L164.532 304.882C169.823 323.715 170.812 342.694 172.192 358.868C174.493 384.374 155.055 713.512 155.055 713.512C155.055 713.512 151.742 732.055 127.45 752.895H258.571C258.571 752.895 248.634 733.191 237.615 706.549C226.596 679.907 218.453 356.668 218.453 356.668Z" fill="#6CAE7E"/>
<path d="M1321.92 464.769L1325.97 427.422L1441 365.442L1394.28 383.257L1397.34 363.778L1380.93 390.925L1325.95 415.54C1325.95 415.54 1328.8 407.358 1332.88 395.476C1336.95 383.593 1371.78 350.177 1371.78 350.177L1329.03 381.592L1332.13 358.571L1317.65 396.113L1304 398.15L1302.57 356.11L1294.42 338.295L1292.4 356.11V422.322L1243.03 371.339L1250.66 338.295L1230.84 365.619L1185.57 341.695C1185.57 341.695 1247.87 392.235 1265.18 412.529L1201.22 387.117L1184.55 361.121L1192.71 383.186L1153 388.286L1195.13 390.305L1272.15 426.838C1277.03 440.633 1277.94 454.534 1279.22 466.381C1281.34 485.063 1263.4 726.148 1263.4 726.148C1263.4 726.148 1260.34 739.73 1237.92 754.995H1358.95C1358.95 754.995 1349.78 740.562 1339.61 721.048C1329.44 701.533 1321.92 464.769 1321.92 464.769Z" fill="#6CAE7E"/>
<path d="M225.458 754.995C225.455 744.812 224.213 734.733 221.805 725.364C216.496 702.287 207.212 748.407 207.212 748.407C207.212 748.407 207.212 742.922 197.282 725.364C187.352 707.805 178.713 738.541 178.713 738.541C178.713 738.541 183.355 664.963 172.093 670.448C160.83 675.933 162.142 738.541 162.142 738.541C162.142 738.541 154.19 692.387 143.594 692.387C132.997 692.387 130.333 725.364 130.333 725.364C130.333 725.364 127.73 667.137 117.073 666.033C106.416 664.93 94.548 714.294 94.548 714.294C94.548 714.294 97.8581 648.408 87.2617 645.097C76.6654 641.786 72.6691 669.277 72.6691 669.277C72.6691 669.277 63.3847 578.108 45.5022 589.011C27.6196 599.914 42.9591 701.183 42.9591 701.183C42.9591 701.183 25.0563 630.95 10.4637 647.371C-2.77664 662.354 -16.7285 740.848 -13.5395 754.995H225.458Z" fill="#6CAE7E"/>
<path d="M636 754.994C635.997 749.166 634.755 743.398 632.348 738.035C627.041 724.828 617.76 751.223 617.76 751.223C617.76 751.223 617.76 748.084 607.833 738.035C597.906 727.986 589.27 745.577 589.27 745.577C589.27 745.577 593.911 703.466 582.652 706.605C571.393 709.744 572.705 745.577 572.705 745.577C572.705 745.577 564.755 719.162 554.162 719.162C543.569 719.162 540.906 738.035 540.906 738.035C540.906 738.035 538.262 704.71 527.669 704.079C517.076 703.447 505.152 731.699 505.152 731.699C505.152 731.699 508.461 693.991 497.868 692.096C487.275 690.201 483.28 705.935 483.28 705.935C483.28 705.935 474.019 653.757 456.121 659.997C438.224 666.237 453.478 724.1 453.478 724.1C453.478 724.1 435.581 683.904 421.013 693.302C407.757 701.877 424.625 746.802 427.793 754.898L636 754.994Z" fill="#6CAE7E"/>
<path d="M429 754.995C429.006 751.792 427.769 748.623 425.365 745.678C420.103 738.423 410.864 752.923 410.864 752.923C410.864 752.923 410.864 751.199 400.962 745.678C391.061 740.158 382.505 749.821 382.505 749.821C382.505 749.821 387.124 726.688 375.917 728.412C364.71 730.137 366.016 749.821 366.016 749.821C366.016 749.821 358.102 735.321 347.558 735.321C337.014 735.321 334.363 745.678 334.363 745.678C334.363 745.678 331.711 727.371 321.167 727.035C310.623 726.698 298.753 742.219 298.753 742.219C298.753 742.219 302.107 721.493 291.483 720.441C280.858 719.39 276.982 728.034 276.982 728.034C276.982 728.034 267.743 699.379 249.948 702.797C232.153 706.214 247.297 738.013 247.297 738.013C247.297 738.013 229.502 715.93 214.981 721.093C201.806 725.804 218.576 750.484 221.75 754.932L429 754.995Z" fill="#6CAE7E"/>
<path d="M910 755.111C910.003 746.906 911.249 738.785 913.664 731.236C918.988 712.642 928.301 749.803 928.301 749.803C928.301 749.803 928.301 745.383 938.261 731.236C948.221 717.089 956.885 741.853 956.885 741.853C956.885 741.853 952.229 682.569 963.525 686.989C974.821 691.408 973.505 741.853 973.505 741.853C973.505 741.853 981.481 704.666 992.109 704.666C1002.74 704.666 1005.41 731.236 1005.41 731.236C1005.41 731.236 1008.06 684.321 1018.69 683.432C1029.32 682.542 1041.28 722.316 1041.28 722.316C1041.28 722.316 1037.96 669.23 1048.59 666.563C1059.22 663.895 1063.23 686.045 1063.23 686.045C1063.23 686.045 1072.52 612.587 1090.47 621.372C1108.43 630.157 1093.13 711.618 1093.13 711.618C1093.13 711.618 1111.08 655.029 1125.7 668.26C1139 680.333 1122.07 743.578 1118.9 754.976L910 755.111Z" fill="#6CAE7E"/>
<path d="M1324 754.994C1324.01 746.796 1322.76 738.682 1320.33 731.144C1315.02 712.57 1305.7 749.691 1305.7 749.691C1305.7 749.691 1305.7 745.276 1295.71 731.144C1285.71 717.011 1277.08 741.75 1277.08 741.75C1277.08 741.75 1281.74 682.528 1270.43 686.942C1259.12 691.357 1260.44 741.75 1260.44 741.75C1260.44 741.75 1252.45 704.628 1241.81 704.628C1231.17 704.628 1228.5 731.144 1228.5 731.144C1228.5 731.144 1225.82 684.277 1215.18 683.416C1204.54 682.555 1192.56 722.287 1192.56 722.287C1192.56 722.287 1195.95 669.23 1185.23 666.538C1174.51 663.846 1170.59 685.973 1170.59 685.973C1170.59 685.973 1161.27 612.619 1143.31 621.367C1125.36 630.116 1140.64 711.52 1140.64 711.52C1140.64 711.52 1122.68 654.989 1108.03 668.207C1094.73 680.266 1111.65 743.446 1114.86 754.833L1324 754.994Z" fill="#6CAE7E"/>
</g>
<defs>
<clipPath id="clip0_172_42">
<rect width="1556" height="746" fill="white"/>
</clipPath>
</defs>
</svg>
