<svg width="1587" height="757" viewBox="0 0 1587 757" fill="none" xmlns="http://www.w3.org/2000/svg">
<rect x="9.46094" width="1572" height="755" fill="#92E3A9"/>
<path d="M1360.46 755.772C1360.46 747.975 1361.71 740.259 1364.12 733.086C1369.45 715.418 1378.76 750.728 1378.76 750.728C1378.76 750.728 1378.76 746.529 1388.72 733.086C1398.68 719.643 1407.34 743.174 1407.34 743.174C1407.34 743.174 1402.69 686.843 1413.98 691.042C1425.28 695.241 1423.96 743.174 1423.96 743.174C1423.96 743.174 1431.94 707.839 1442.57 707.839C1453.2 707.839 1455.87 733.086 1455.87 733.086C1455.87 733.086 1458.48 688.507 1469.17 687.662C1479.86 686.817 1491.76 724.61 1491.76 724.61C1491.76 724.61 1488.44 674.168 1499.07 671.633C1509.7 669.098 1513.7 690.146 1513.7 690.146C1513.7 690.146 1523.02 620.346 1540.95 628.693C1558.89 637.04 1543.5 714.573 1543.5 714.573C1543.5 714.573 1561.46 660.802 1576.1 673.374C1589.38 684.845 1587.16 744.941 1583.96 755.772H1360.46Z" fill="#6CAE7E"/>
<path d="M241.453 377.505L245.847 328.927L370.458 248.31L319.85 271.482L323.162 246.145L305.38 281.455L245.824 313.472C245.824 313.472 248.906 302.83 253.323 287.375C257.74 271.92 295.466 228.455 295.466 228.455L249.159 269.317L252.518 239.373L236.829 288.204L222.038 290.853L220.497 236.172L211.663 213L209.478 236.172V322.294L155.994 255.98L164.252 213L142.79 248.541L93.7458 217.422C93.7458 217.422 161.239 283.16 179.987 309.556L110.7 276.503L92.6416 242.69L101.475 271.39L58.458 278.023L104.097 280.649L187.532 328.167C192.823 346.11 193.812 364.192 195.192 379.601C197.493 403.901 178.055 717.479 178.055 717.479C178.055 717.479 174.742 735.145 150.45 755H281.571C281.571 755 271.634 736.228 260.615 710.845C249.596 685.462 241.453 377.505 241.453 377.505Z" fill="#6CAE7E"/>
<path d="M1427.99 468.048L1431.82 431.122L1540.46 369.841L1496.34 387.455L1499.23 368.195L1483.72 395.036L1431.8 419.373C1431.8 419.373 1434.49 411.284 1438.34 399.536C1442.19 387.788 1475.08 354.748 1475.08 354.748L1434.71 385.809L1437.64 363.048L1423.96 400.166L1411.07 402.18L1409.72 360.614L1402.02 343L1400.12 360.614V426.079L1353.49 375.671L1360.69 343L1341.98 370.016L1299.22 346.362C1299.22 346.362 1358.06 396.332 1374.41 416.397L1314 391.272L1298.26 365.569L1305.96 387.385L1268.46 392.427L1308.25 394.423L1380.98 430.544C1385.6 444.183 1386.46 457.928 1387.66 469.641C1389.67 488.113 1372.72 726.478 1372.72 726.478C1372.72 726.478 1369.83 739.907 1348.66 755H1462.97C1462.97 755 1454.3 740.73 1444.7 721.436C1435.09 702.141 1427.99 468.048 1427.99 468.048Z" fill="#6CAE7E"/>
<path d="M239.458 757C239.455 747.298 238.213 737.696 235.805 728.769C230.496 706.783 221.212 750.723 221.212 750.723C221.212 750.723 221.212 745.497 211.282 728.769C201.352 712.041 192.713 741.323 192.713 741.323C192.713 741.323 197.355 671.224 186.093 676.45C174.83 681.675 176.142 741.323 176.142 741.323C176.142 741.323 168.19 697.352 157.594 697.352C146.997 697.352 144.333 728.769 144.333 728.769C144.333 728.769 141.73 673.295 131.073 672.244C120.416 671.192 108.548 718.222 108.548 718.222C108.548 718.222 111.858 655.452 101.262 652.297C90.6654 649.143 86.6691 675.334 86.6691 675.334C86.6691 675.334 77.3847 588.475 59.5022 598.863C41.6196 609.25 56.9591 705.732 56.9591 705.732C56.9591 705.732 39.0564 638.819 24.4637 654.464C11.2234 668.739 -2.72848 743.522 0.460503 757H239.458Z" fill="#6CAE7E"/>
<path d="M665.458 757C665.455 751.447 664.213 745.952 661.806 740.843C656.499 728.26 647.218 753.407 647.218 753.407C647.218 753.407 647.218 750.417 637.291 740.843C627.364 731.269 618.728 748.028 618.728 748.028C618.728 748.028 623.369 707.908 612.11 710.899C600.851 713.89 602.163 748.028 602.163 748.028C602.163 748.028 594.213 722.862 583.62 722.862C573.027 722.862 570.364 740.843 570.364 740.843C570.364 740.843 567.72 709.093 557.127 708.492C546.534 707.89 534.61 734.807 534.61 734.807C534.61 734.807 537.919 698.881 527.326 697.076C516.733 695.27 512.738 710.261 512.738 710.261C512.738 710.261 503.477 660.549 485.58 666.494C467.682 672.439 482.936 727.567 482.936 727.567C482.936 727.567 465.039 689.271 450.471 698.225C437.215 706.394 454.083 749.195 457.251 756.909L665.458 757Z" fill="#6CAE7E"/>
<path d="M458.458 757C458.464 753.949 457.227 750.929 454.823 748.124C449.561 741.211 440.322 755.026 440.322 755.026C440.322 755.026 440.322 753.383 430.42 748.124C420.519 742.864 411.963 752.071 411.963 752.071C411.963 752.071 416.582 730.031 405.375 731.674C394.168 733.317 395.474 752.071 395.474 752.071C395.474 752.071 387.56 738.256 377.016 738.256C366.472 738.256 363.821 748.124 363.821 748.124C363.821 748.124 361.169 730.682 350.625 730.362C340.081 730.041 328.211 744.828 328.211 744.828C328.211 744.828 331.565 725.082 320.941 724.08C310.316 723.078 306.44 731.313 306.44 731.313C306.44 731.313 297.201 704.014 279.406 707.27C261.611 710.526 276.755 740.821 276.755 740.821C276.755 740.821 258.96 719.782 244.439 724.701C231.264 729.19 248.034 752.702 251.208 756.94L458.458 757Z" fill="#6CAE7E"/>
<path d="M933.461 755.111C933.464 747.294 934.71 739.557 937.125 732.365C942.449 714.65 951.762 750.054 951.762 750.054C951.762 750.054 951.762 745.843 961.721 732.365C971.681 718.886 980.346 742.48 980.346 742.48C980.346 742.48 975.69 685.999 986.986 690.209C998.282 694.42 996.966 742.48 996.966 742.48C996.966 742.48 1004.94 707.051 1015.57 707.051C1026.2 707.051 1028.87 732.365 1028.87 732.365C1028.87 732.365 1031.52 687.668 1042.15 686.821C1052.78 685.973 1064.74 723.867 1064.74 723.867C1064.74 723.867 1061.42 673.291 1072.05 670.749C1082.68 668.207 1086.69 689.311 1086.69 689.311C1086.69 689.311 1095.98 619.326 1113.94 627.695C1131.89 636.064 1116.59 713.675 1116.59 713.675C1116.59 713.675 1134.54 659.761 1149.16 672.366C1162.46 683.868 1145.54 744.123 1142.36 754.983L933.461 755.111Z" fill="#6CAE7E"/>
<path d="M1354.37 755.184C1354.38 747.373 1353.13 739.642 1350.7 732.461C1345.39 714.765 1336.07 750.131 1336.07 750.131C1336.07 750.131 1336.07 745.925 1326.08 732.461C1316.08 718.996 1307.45 742.566 1307.45 742.566C1307.45 742.566 1312.11 686.143 1300.8 690.349C1289.49 694.555 1290.81 742.566 1290.81 742.566C1290.81 742.566 1282.82 707.199 1272.18 707.199C1261.54 707.199 1258.87 732.461 1258.87 732.461C1258.87 732.461 1256.19 687.81 1245.55 686.989C1234.91 686.169 1222.93 724.023 1222.93 724.023C1222.93 724.023 1226.32 673.474 1215.6 670.909C1204.88 668.344 1200.96 689.426 1200.96 689.426C1200.96 689.426 1191.64 619.539 1173.68 627.874C1155.73 636.209 1171.01 713.764 1171.01 713.764C1171.01 713.764 1153.05 659.907 1138.4 672.499C1125.1 683.989 1142.02 744.181 1145.23 755.03L1354.37 755.184Z" fill="#6CAE7E"/>
</svg>
