<svg width="1141" height="308" viewBox="0 0 1141 308" fill="none" xmlns="http://www.w3.org/2000/svg">
<path d="M259 280.64C339.634 280.64 405 275.572 405 269.32C405 263.068 339.634 258 259 258C178.366 258 113 263.068 113 269.32C113 275.572 178.366 280.64 259 280.64Z" fill="#436A4A"/>
<path d="M474.866 119.068L447.703 107.078C447.703 107.078 445.574 98.5725 442.475 95.2197C439.375 91.8669 406.374 72.5068 406.374 72.5068L351.6 40.8966C351.6 40.8966 304.295 9.66479 282.61 20.1537C260.924 30.6426 260.75 40.5314 225.707 39.9704C189.133 39.3833 175.913 32.1428 155.597 40.2704C155.597 40.2704 104.956 52.664 86.0463 100.647C70.7967 139.354 74.4317 165.106 74.4317 165.106C74.4317 165.106 53.5056 197.291 51.3894 205.64C49.2731 213.989 47.0323 230.74 48.439 236.533C49.4723 240.76 60.8876 254.693 67.1119 261.933C68.3011 263.339 69.7618 264.463 71.3971 265.233C73.0325 266.002 74.8052 266.398 76.5978 266.395H126.143C126.143 266.395 128.77 254.588 119.346 248.678C113.442 244.997 107.302 241.745 100.972 238.946L98.6691 225.796L131.434 208.497L174.631 263.198C175.407 264.191 176.413 264.959 177.552 265.429C178.692 265.9 179.927 266.057 181.141 265.886C193.988 264.112 230.861 256.623 236.363 251.092C242.587 244.895 231.496 242.103 224.985 242.521C220.395 242.606 215.828 241.824 211.503 240.212L199.64 195.973L234.297 186.554L231.396 227.414L251.526 261.463C252.419 262.981 253.668 264.233 255.154 265.101C256.641 265.969 258.314 266.423 260.015 266.421H310.196C310.196 266.421 307.868 259.141 301.88 257.993C295.892 256.845 283.855 254.797 282.348 250.766C279.236 242.469 280.195 230.806 280.195 230.806L302.602 200.226C302.602 200.226 330.325 220.591 336.798 222.795C343.272 225 361.696 228.966 361.696 228.966C361.696 228.966 368.418 250.87 377.518 253.036C383.543 254.484 388.871 252.462 388.946 247.23L382.56 201.048C381.752 194.91 378.867 189.28 374.431 185.184L350.255 163.202L348.861 156.366C348.861 156.366 393.938 153.417 407.282 164.115C407.282 164.115 426.528 148.16 441.031 148.917C455.533 149.673 460.139 142.394 460.139 142.394C460.139 142.394 463.363 143.202 464.222 142.655C465.081 142.107 473.795 125.695 475.364 123.242C475.757 122.594 475.923 121.823 475.832 121.061C475.741 120.299 475.399 119.594 474.866 119.068Z" fill="#FF725E"/>
<path d="M348.824 156.366C347.828 156.505 346.842 156.714 345.874 156.993C344.734 157.349 343.661 157.904 342.699 158.636C341.409 159.601 340.348 160.865 339.599 162.328L339.363 162.824L339.214 162.302C338.778 160.658 338.292 158.819 337.757 156.849L338.18 156.94C336.244 159.308 334.806 162.078 333.96 165.068C333.208 168.601 332.771 172.2 332.653 175.818V176.457L332.193 176.04C330.712 174.711 329.346 173.249 328.109 171.669C326.687 170.04 325.767 167.998 325.47 165.812L326.08 165.968C325.645 166.751 325.209 167.586 324.835 168.46C322.092 174.207 320.741 180.574 320.902 186.998V187.885L320.341 187.233C319.402 186.152 318.592 184.956 317.926 183.671C317.251 182.451 316.871 181.076 316.819 179.666L317.341 179.81C314.266 185.113 310.821 190.171 307.034 194.943C305.665 196.665 304.544 197.983 303.785 198.857L302.901 199.848C302.702 200.083 302.59 200.188 302.577 200.174C302.565 200.161 302.652 200.044 302.839 199.796L303.66 198.739L306.785 194.708C310.468 189.876 313.837 184.79 316.868 179.484L317.379 178.584V179.705C317.435 181.017 317.798 182.294 318.437 183.424C319.086 184.658 319.876 185.806 320.79 186.842L320.254 187.063C320.03 180.54 321.347 174.06 324.089 168.199C324.512 167.312 324.96 166.451 325.396 165.668L325.931 164.703V165.825C326.222 167.866 327.089 169.77 328.421 171.291C329.628 172.844 330.965 174.28 332.417 175.583L331.894 175.805C332.028 172.148 332.495 168.514 333.288 164.951C334.162 161.891 335.657 159.065 337.67 156.666L337.969 156.288L338.081 156.758L339.475 162.224H339.089C339.787 160.911 340.729 159.759 341.861 158.835C342.992 157.912 344.289 157.237 345.674 156.849C346.691 156.503 347.756 156.34 348.824 156.366Z" fill="#263238"/>
<path d="M252.185 105.996C252.185 105.996 252.185 106.1 252.185 106.309L252.036 107.222C251.899 108.018 251.699 109.192 251.401 110.706C250.791 113.732 249.832 118.09 248.376 123.399C244.561 137.246 239.279 150.601 232.628 163.215C231.57 165.25 230.462 167.22 229.379 169.151L228.906 168.708L236.375 162.967L237.346 162.224L236.848 163.372L230.786 177.201L230.363 176.848L237.595 170.704L238.13 170.247L237.981 170.952L234.919 184.832C234.545 186.424 234.259 187.676 234.047 188.603L233.811 189.568C233.749 189.79 233.711 189.907 233.699 189.894C233.682 189.782 233.682 189.667 233.699 189.555L233.886 188.564C234.06 187.637 234.309 186.372 234.62 184.767C235.305 181.414 236.288 176.679 237.483 170.834L237.857 171.082L230.674 177.305L229.753 178.101L230.25 176.953L236.251 163.098L236.724 163.502L229.255 169.256L228.01 170.221L228.794 168.812C229.877 166.868 230.985 164.898 232.031 162.889C238.652 150.31 243.977 137.029 247.915 123.269C249.421 117.985 250.405 113.654 251.127 110.653C251.45 109.192 251.699 108.044 251.886 107.183C251.973 106.831 252.036 106.531 252.098 106.296C252.117 106.193 252.146 106.093 252.185 105.996Z" fill="#263238"/>
<path d="M142.214 196.9C142.43 196.932 142.642 196.985 142.849 197.056L144.604 197.591L145.849 197.996L147.393 198.361C148.488 198.622 149.721 198.974 151.128 199.183C158.429 200.434 165.843 200.797 173.224 200.266C180.62 199.825 187.971 198.769 195.208 197.109C197.972 196.456 200.187 195.804 201.731 195.4L203.486 194.865C203.502 194.782 203.546 194.708 203.611 194.658C203.675 194.608 203.755 194.584 203.835 194.592C203.915 194.601 203.99 194.64 204.044 194.702C204.098 194.764 204.128 194.846 204.128 194.93C204.128 195.014 204.098 195.096 204.044 195.158C203.99 195.22 203.915 195.259 203.835 195.268C203.755 195.276 203.675 195.252 203.611 195.202C203.546 195.152 203.502 195.078 203.486 194.995L201.756 195.648C200.237 196.182 198.021 196.861 195.258 197.578C188.019 199.383 180.641 200.509 173.211 200.944C165.782 201.482 158.317 201.044 150.991 199.64C149.571 199.405 148.339 199.013 147.256 198.726L145.737 198.296L144.492 197.826L142.762 197.161C142.57 197.097 142.386 197.01 142.214 196.9Z" fill="#263238"/>
<path d="M128.683 210.167C128.838 209.998 129.009 209.845 129.193 209.711C129.566 209.398 130.139 208.967 130.836 208.406C132.874 206.718 134.815 204.906 136.65 202.979C143.008 196.274 147.927 188.223 151.078 179.366L151.737 177.5L151.663 179.496C151.588 181.923 151.501 184.48 151.414 187.115L150.878 186.867C153.294 184.264 155.568 181.52 157.688 178.648C165.671 167.785 171.315 155.239 174.232 141.872C175.097 137.832 175.729 133.741 176.124 129.622C176.224 128.213 176.311 127.091 176.373 126.256C176.373 125.904 176.373 125.617 176.448 125.382C176.436 125.282 176.436 125.182 176.448 125.082C176.459 125.182 176.459 125.282 176.448 125.382C176.448 125.63 176.448 125.917 176.448 126.269C176.448 127.039 176.448 128.187 176.323 129.648C176.018 133.792 175.452 137.91 174.63 141.976C171.077 159.08 162.996 174.787 151.314 187.298L150.742 187.924V187.05C150.841 184.441 150.928 181.832 151.015 179.431L151.613 179.549C148.437 188.459 143.431 196.529 136.948 203.188C134.446 205.825 131.674 208.165 128.683 210.167Z" fill="#263238"/>
<path d="M70.0872 108.436C70.434 106.523 71.1692 104.71 72.2432 103.121C73.3171 101.532 74.7046 100.204 76.3115 99.2258C77.9445 98.2902 79.8038 97.8781 81.6584 98.0404C83.513 98.2028 85.2812 98.9325 86.7435 100.139L81.1914 121.143C79.6104 121.849 77.8511 121.987 76.1873 121.536C74.5235 121.086 73.0485 120.071 71.9919 118.651C70.9836 117.197 70.2907 115.529 69.9618 113.764C69.6328 112 69.6756 110.181 70.0872 108.436Z" fill="#FF725E"/>
<path opacity="0.5" d="M447.703 107.079C447.703 107.079 442.836 120.908 441.168 130.627C440.158 136.662 439.571 142.766 439.413 148.891C439.413 148.891 453.716 151.279 460.102 142.368C460.102 142.368 463.339 143.555 464.546 142.564C465.405 141.846 475.912 121.978 475.912 121.978C475.912 121.978 476.074 119.551 474.866 119.029L447.703 107.079Z" fill="white"/>
<path d="M465.816 115.076C465.104 117.862 464.666 120.716 464.508 123.595C464.446 127.248 469.264 133.823 470.098 133.223C470.695 132.806 473.832 126.139 475.737 122.486C476.043 121.814 476.083 121.043 475.85 120.34C475.617 119.637 475.129 119.058 474.492 118.729L465.816 115.076Z" fill="#263238"/>
<path d="M443.084 137.358C444.09 137.6 445.077 137.922 446.035 138.324C447.84 138.963 450.342 139.772 453.143 140.555C455.944 141.337 458.521 141.859 460.388 142.303C461.412 142.441 462.424 142.668 463.413 142.981C462.376 143.054 461.333 142.984 460.313 142.772C455.369 142.025 450.523 140.681 445.873 138.767C444.888 138.43 443.95 137.956 443.084 137.358Z" fill="#263238"/>
<path d="M439.388 103.817C439.968 104.346 440.42 105.013 440.703 105.762C440.987 106.511 441.095 107.321 441.018 108.123C441.024 108.287 440.988 108.45 440.917 108.596C440.845 108.742 440.738 108.866 440.608 108.957C440.337 109.037 440.047 109.004 439.799 108.866L436.064 107.327C436.135 106.531 436.464 105.785 436.998 105.213C437.556 104.486 438.366 104.017 439.251 103.909" fill="#263238"/>
<path d="M437.595 100.96C437.47 100.829 437.943 100.19 438.84 99.9683C439.736 99.7465 440.421 100.073 440.371 100.242C440.321 100.412 439.711 100.425 439.002 100.621C438.292 100.816 437.719 101.103 437.595 100.96Z" fill="#263238"/>
<path d="M406.1 76.1068C405.565 71.2668 404.208 66.2833 400.921 62.8391C397.635 59.395 392.021 58.0513 388.236 60.8561C386.067 62.6911 384.575 65.2603 384.016 68.1227C381.838 77.007 384.539 86.3217 387.415 94.9842" fill="#FF725E"/>
<path d="M387.415 94.9841C387.308 94.7891 387.221 94.5838 387.153 94.3709C386.991 93.9665 386.78 93.3664 386.506 92.5967C385.971 91.0312 385.261 88.7742 384.489 85.9041C383.584 82.5499 383.066 79.0942 382.945 75.6109C382.885 73.5464 383.044 71.4812 383.419 69.4533C383.772 67.2418 384.533 65.1237 385.659 63.2173C386.833 61.2665 388.679 59.8647 390.813 59.3036C392.787 58.8349 394.849 58.9892 396.739 59.7471C398.444 60.3953 399.986 61.444 401.245 62.8129C402.324 63.9986 403.219 65.3545 403.897 66.8311C404.865 68.9565 405.528 71.2206 405.863 73.5497C405.988 74.3716 406.063 75.0108 406.087 75.4544C406.122 75.6747 406.122 75.8995 406.087 76.1197C406.087 76.1197 405.926 75.2196 405.602 73.6019C405.176 71.3369 404.46 69.1426 403.473 67.0789C402.078 63.9794 399.587 61.5701 396.527 60.3603C394.743 59.6656 392.804 59.5341 390.95 59.982C388.974 60.5019 387.268 61.8072 386.195 63.6218C385.112 65.458 384.377 67.4954 384.029 69.6229C383.658 71.6031 383.491 73.6194 383.531 75.637C383.622 79.0772 384.085 82.4954 384.912 85.8259C385.585 88.6829 386.269 90.9659 386.73 92.5445C386.941 93.2751 387.116 93.8491 387.265 94.3709C387.343 94.5665 387.394 94.7731 387.415 94.9841Z" fill="#263238"/>
<path d="M392.158 71.7637C392.775 72.2765 393.29 72.9101 393.676 73.6292C395.739 77.0102 396.525 81.0757 395.88 85.0313C395.797 85.8463 395.56 86.6358 395.183 87.3535C395.585 84.6695 395.585 81.936 395.183 79.252C394.548 76.6078 393.527 74.0821 392.158 71.7637Z" fill="#263238"/>
<path d="M387.39 140.567C387.39 140.567 387.265 140.567 387.066 140.371C386.867 140.176 386.543 140.019 386.157 139.706C385.052 138.819 384.035 137.818 383.12 136.719C379.837 132.787 377.866 127.84 377.506 122.629L378.041 122.759L375.95 126.673L375.501 127.521L375.377 126.556C374.954 123.279 374.954 119.957 375.377 116.68L375.95 116.928L374.817 118.52L373.796 119.955L372.763 121.416L373.223 119.668C375.434 111.419 379.596 103.89 385.323 97.7766C387.025 95.9485 388.87 94.2728 390.838 92.7669C391.523 92.219 392.083 91.8537 392.481 91.5928C392.661 91.4394 392.863 91.3162 393.079 91.2275C393.079 91.2275 392.332 91.8538 390.987 92.9627C389.089 94.5643 387.3 96.3036 385.635 98.168C380.07 104.302 376.019 111.767 373.833 119.915L373.261 119.615L374.281 118.18L375.427 116.589L376.174 115.519L375.999 116.824C375.595 120.045 375.595 123.308 375.999 126.53L375.427 126.412C376.161 125.042 376.871 123.712 377.555 122.499L378.028 121.598L378.091 122.629C378.423 127.729 380.278 132.59 383.394 136.523C384.62 137.981 385.956 139.334 387.39 140.567Z" fill="#263238"/>
<path d="M325.508 20.623C326.425 21.5099 327.294 22.4507 328.11 23.441C330.165 25.7272 332.356 27.8754 334.67 29.8726C336.994 31.8595 339.43 33.698 341.965 35.3779C343.054 36.0165 344.105 36.7223 345.114 37.4914C343.925 37.0649 342.788 36.4912 341.728 35.7824C336.459 32.6324 331.736 28.5699 327.761 23.7671C326.899 22.8115 326.143 21.7568 325.508 20.623Z" fill="#263238"/>
<path d="M318.947 20.5459C323.29 22.9984 327.421 25.84 331.296 29.0388C329.072 27.9285 326.944 26.6191 324.935 25.125C322.815 23.7857 320.811 22.2534 318.947 20.5459Z" fill="#263238"/>
<path d="M160.414 28.1123C160.913 28.2776 161.397 28.4916 161.858 28.7516C162.754 29.2212 164.086 29.8605 165.73 30.6171C174.295 34.5958 183.371 37.2332 192.668 38.4447C194.449 38.6795 195.905 38.836 196.901 38.9274C197.425 38.951 197.946 39.0253 198.457 39.1492C197.936 39.2163 197.409 39.2163 196.888 39.1492C195.88 39.1492 194.399 39.0578 192.619 38.8882C183.225 37.942 174.059 35.2935 165.53 31.0607C163.9 30.2518 162.605 29.5343 161.734 28.9995C161.263 28.7566 160.821 28.459 160.414 28.1123Z" fill="#263238"/>
<path d="M159.742 33.1873C159.817 32.9916 163.477 34.4919 168.12 35.3399C172.763 36.1879 176.685 36.1618 176.685 36.3705C175.851 36.5877 174.989 36.6626 174.133 36.5923C172.079 36.5809 170.03 36.3846 168.008 36.0053C165.981 35.6279 163.99 35.0647 162.058 34.3223C161.233 34.076 160.451 33.6928 159.742 33.1873Z" fill="#263238"/>
<path d="M159.779 108.135C159.655 107.965 162.754 105.526 165.705 101.612C168.655 97.698 170.311 94.006 170.497 94.0974C170.312 94.976 169.993 95.8175 169.551 96.5891C167.667 100.448 165.063 103.873 161.895 106.661C161.267 107.263 160.553 107.761 159.779 108.135Z" fill="#263238"/>
<path d="M147.194 113.17C147.194 113.079 148.439 112.231 150.617 110.73C153.373 108.789 156.009 106.667 158.51 104.377C161.003 102.077 163.352 99.6102 165.543 96.993C167.236 94.9839 168.22 93.6793 168.294 93.7445C168.149 94.1057 167.956 94.4439 167.722 94.7491C167.323 95.3753 166.701 96.2494 165.892 97.3583C163.786 100.087 161.462 102.623 158.945 104.938C156.423 107.253 153.721 109.343 150.866 111.187C149.771 111.891 148.862 112.491 148.215 112.752C147.897 112.947 147.553 113.088 147.194 113.17Z" fill="#263238"/>
<g opacity="0.3">
<path d="M382.871 100.542C378.128 106.113 375.401 112.609 373.559 119.824C374.729 118.519 375.14 117.541 376.31 116.275C375.248 119.595 374.957 123.133 375.464 126.595L377.891 122.772C379.039 129.999 382.605 136.561 387.95 141.284C388.79 142.258 389.729 143.133 390.751 143.893C384.701 142.224 378.19 137.371 376.161 131.2L373.733 136.418C372.273 133.744 371.783 130.608 372.351 127.586L369.974 130.587C369.779 124.877 370.841 119.198 373.077 113.988C375.314 108.777 378.665 104.177 382.871 100.542Z" fill="black"/>
</g>
<g opacity="0.3">
<path d="M395.668 85.8659C393.966 84.0797 392.766 81.8381 392.197 79.3856C391.629 76.9332 391.714 74.3642 392.444 71.959C393.793 73.8684 394.759 76.0447 395.284 78.3566C395.808 80.6684 395.879 83.0677 395.494 85.4093" fill="black"/>
</g>
<g opacity="0.3">
<path d="M386.73 93.08C383.755 89.0689 381.989 84.2198 381.657 79.1518C381.324 74.0839 382.44 69.0271 384.862 64.627C382.702 74.089 383.354 84.0171 386.73 93.08Z" fill="black"/>
</g>
<g opacity="0.3">
<path d="M317.018 179.326C317.018 181.935 318.935 184.701 320.678 187.441C319.831 179.718 322.632 171.786 325.744 165.798C326.13 169.268 329.666 173.547 332.342 175.791C332.977 169.411 333.301 161.962 337.994 156.783C338.616 158.648 339.014 160.253 339.637 162.119C340.397 160.269 341.693 158.718 343.343 157.685C344.992 156.652 346.91 156.19 348.824 156.365L348.948 157.018C347.698 157.192 346.494 157.629 345.407 158.301C344.321 158.974 343.375 159.868 342.625 160.931C341.234 163.1 340.133 165.457 339.351 167.937C338.151 167.287 337.153 166.291 336.475 165.067C335.728 170.912 334.985 176.752 334.247 182.588C334.245 182.774 334.205 182.958 334.13 183.126C334.055 183.295 333.946 183.445 333.811 183.566C333.4 183.814 332.902 183.488 332.566 183.175L327.126 178.517C325.571 183.946 324.451 189.501 323.777 195.125L318.25 190.52C318.111 190.363 317.941 190.242 317.751 190.163C317.562 190.084 317.358 190.05 317.155 190.063C316.769 190.141 316.532 190.533 316.333 190.872C313.126 195.757 308.202 199.111 302.64 200.2C306.399 193.024 314.279 186.997 317.018 179.326Z" fill="black"/>
</g>
<g opacity="0.3">
<path d="M234.296 186.527C235.255 181.387 236.786 176.091 237.72 170.872C235.815 172.66 232.74 174.617 230.848 176.404C232.392 172.164 234.732 167.741 236.276 163.488C234.321 165.341 231.022 167.115 229.081 168.968C234.284 159.222 240.284 146.79 243.508 136.953C239.014 144.311 232.902 154.8 229.815 162.914C226.728 171.029 225.147 179.978 226.753 188.537" fill="black"/>
</g>
<g opacity="0.3">
<path d="M142.214 196.899C160.452 202.965 181.34 201.804 199.64 195.946L200.959 200.865C193.739 205.026 185.859 205.535 178.166 208.601C170.871 211.51 163.228 213.937 155.485 214.237C147.741 214.537 138.579 212.345 132.504 207.205C135.704 203.904 139.314 200.408 142.214 196.899Z" fill="black"/>
</g>
<path d="M74.0329 164.272C73.9832 164.001 73.954 163.726 73.9458 163.45C73.9458 162.85 73.896 162.068 73.7964 161.102C73.7217 160.085 73.7964 158.832 73.7964 157.384C73.7964 155.936 73.7964 154.279 73.9582 152.466C74.12 148.813 74.5931 144.482 75.2031 139.707C75.8131 134.932 76.8587 129.727 78.1409 124.313C80.2315 115.046 83.2007 106.021 87.0043 97.373C88.1802 94.7611 89.5193 92.2334 91.0128 89.8064L92.2577 87.8756C92.3937 87.6423 92.5568 87.4276 92.7432 87.2363C92.639 87.4891 92.5096 87.7296 92.3573 87.9539L91.1871 89.9499C89.811 92.4209 88.5643 94.9686 87.4525 97.5817C83.7646 106.244 80.8476 115.245 78.7385 124.469C77.4936 129.857 76.5226 135.063 75.7633 139.811C75.0039 144.56 74.5184 148.865 74.3317 152.492C74.1947 154.305 74.0952 155.949 74.0827 157.397C74.0703 158.845 73.9831 160.085 74.0827 161.102C74.1823 162.12 74.0827 162.837 74.0827 163.45C74.0974 163.725 74.0807 164.001 74.0329 164.272Z" fill="#263238"/>
<path d="M323.267 203.642C337.933 184.938 351.982 167.126 365.035 150.576C366.576 148.623 368.103 146.687 369.615 144.77L369.621 144.762L373.447 139.949L375.313 137.602L377.286 139.859L381.197 144.331C418.6 186.996 449.581 222.904 471.012 248.42C481.725 261.176 490.068 271.361 495.638 278.508C498.418 282.075 500.537 284.922 501.919 286.969C502.603 287.981 503.154 288.867 503.515 289.579C503.689 289.923 503.875 290.334 503.989 290.757C504.046 290.969 504.112 291.283 504.11 291.651C504.107 292.006 504.038 292.628 503.607 293.232C503.606 293.233 503.606 293.233 503.606 293.234L501.572 291.78L323.267 203.642ZM323.267 203.642C303.976 182.313 283.395 159.656 262.155 136.39L262.151 136.386L216.409 86.4685L216.408 86.4672L212.174 81.8537L210.313 79.8256L208.473 81.8727L204.326 86.4861L204.321 86.4916C184.968 108.148 166.519 128.914 149.284 148.407C108.681 105.212 74.1452 69.0384 49.2445 43.5959C36.2051 30.2728 25.7845 19.8748 18.5095 12.9521C14.8791 9.49751 11.9954 6.87323 9.94619 5.17787C8.93662 4.34261 8.0506 3.66635 7.34102 3.22952C7.01124 3.0265 6.5598 2.77353 6.06582 2.62909C5.82346 2.55821 5.38337 2.4558 4.8534 2.52072C4.24499 2.59525 3.49234 2.90498 2.97895 3.64811C2.5273 4.30185 2.48909 4.96936 2.50202 5.32121C2.51575 5.69471 2.59757 6.01303 2.66429 6.2268C2.79897 6.65833 3.00879 7.08632 3.21248 7.45916C3.63349 8.22979 4.27415 9.20406 5.07831 10.3363C6.7017 12.622 9.18011 15.8135 12.4263 19.8186C18.9288 27.8411 28.6247 39.2657 41.0034 53.5196C65.7652 82.0322 101.359 121.981 143.808 168.886C143.81 168.889 143.813 168.892 143.815 168.894L147.59 173.138L149.428 175.204L151.299 173.168L155.199 168.924L155.201 168.922C172.522 150.032 191.039 129.714 210.421 108.348L249.967 151.844L249.972 151.85C273.585 177.656 296.484 202.603 317.791 225.674L322.27 230.532L324.283 232.715L326.091 230.359L330.152 225.069L330.155 225.065C346.42 203.779 361.892 183.481 376.141 164.716L323.267 203.642Z" fill="#AB2A18" stroke="#AB2A18" stroke-width="5"/>
<path d="M497.556 235.551L492.6 235.772L489.053 279.593L453.919 285.72L453.94 290.649L505.101 299.122L508.568 299.697L507.973 296.233L497.556 235.551Z" fill="#AB2A18" stroke="#AB2A18" stroke-width="5"/>
<path d="M562.3 89.5V103.7H585.2V116.9H562.3V132.3H588.2V146H545.2V75.8H588.2V89.5H562.3ZM662.102 146H645.002L616.402 102.7V146H599.302V75.8H616.402L645.002 119.3V75.8H662.102V146ZM721.988 75.8C729.388 75.8 735.855 77.2667 741.388 80.2C746.922 83.1333 751.188 87.2667 754.188 92.6C757.255 97.8667 758.788 103.967 758.788 110.9C758.788 117.767 757.255 123.867 754.188 129.2C751.188 134.533 746.888 138.667 741.288 141.6C735.755 144.533 729.322 146 721.988 146H695.688V75.8H721.988ZM720.888 131.2C727.355 131.2 732.388 129.433 735.988 125.9C739.588 122.367 741.388 117.367 741.388 110.9C741.388 104.433 739.588 99.4 735.988 95.8C732.388 92.2 727.355 90.4 720.888 90.4H712.788V131.2H720.888ZM812.045 133.6H785.845L781.645 146H763.745L789.145 75.8H808.945L834.345 146H816.245L812.045 133.6ZM807.645 120.4L798.945 94.7L790.345 120.4H807.645ZM904.875 146H887.775L859.175 102.7V146H842.075V75.8H859.175L887.775 119.3V75.8H904.875V146ZM963.87 98C962.604 95.6667 960.77 93.9 958.37 92.7C956.037 91.4333 953.27 90.8 950.07 90.8C944.537 90.8 940.104 92.6333 936.77 96.3C933.437 99.9 931.77 104.733 931.77 110.8C931.77 117.267 933.504 122.333 936.97 126C940.504 129.6 945.337 131.4 951.47 131.4C955.67 131.4 959.204 130.333 962.07 128.2C965.004 126.067 967.137 123 968.47 119H946.77V106.4H983.97V122.3C982.704 126.567 980.537 130.533 977.47 134.2C974.47 137.867 970.637 140.833 965.97 143.1C961.304 145.367 956.037 146.5 950.17 146.5C943.237 146.5 937.037 145 931.57 142C926.17 138.933 921.937 134.7 918.87 129.3C915.87 123.9 914.37 117.733 914.37 110.8C914.37 103.867 915.87 97.7 918.87 92.3C921.937 86.8333 926.17 82.6 931.57 79.6C936.97 76.5333 943.137 75 950.07 75C958.47 75 965.537 77.0333 971.27 81.1C977.07 85.1667 980.904 90.8 982.77 98H963.87ZM1010.54 89.5V103.7H1033.44V116.9H1010.54V132.3H1036.44V146H993.442V75.8H1036.44V89.5H1010.54ZM1083.34 146L1068.74 119.5H1064.64V146H1047.54V75.8H1076.24C1081.78 75.8 1086.48 76.7667 1090.34 78.7C1094.28 80.6333 1097.21 83.3 1099.14 86.7C1101.08 90.0333 1102.04 93.7667 1102.04 97.9C1102.04 102.567 1100.71 106.733 1098.04 110.4C1095.44 114.067 1091.58 116.667 1086.44 118.2L1102.64 146H1083.34ZM1064.64 107.4H1075.24C1078.38 107.4 1080.71 106.633 1082.24 105.1C1083.84 103.567 1084.64 101.4 1084.64 98.6C1084.64 95.9333 1083.84 93.8333 1082.24 92.3C1080.71 90.7667 1078.38 90 1075.24 90H1064.64V107.4ZM542.3 260.8C542.3 253.867 543.8 247.7 546.8 242.3C549.8 236.833 553.967 232.6 559.3 229.6C564.7 226.533 570.8 225 577.6 225C585.933 225 593.067 227.2 599 231.6C604.933 236 608.9 242 610.9 249.6H592.1C590.7 246.667 588.7 244.433 586.1 242.9C583.567 241.367 580.667 240.6 577.4 240.6C572.133 240.6 567.867 242.433 564.6 246.1C561.333 249.767 559.7 254.667 559.7 260.8C559.7 266.933 561.333 271.833 564.6 275.5C567.867 279.167 572.133 281 577.4 281C580.667 281 583.567 280.233 586.1 278.7C588.7 277.167 590.7 274.933 592.1 272H610.9C608.9 279.6 604.933 285.6 599 290C593.067 294.333 585.933 296.5 577.6 296.5C570.8 296.5 564.7 295 559.3 292C553.967 288.933 549.8 284.7 546.8 279.3C543.8 273.9 542.3 267.733 542.3 260.8ZM657.172 296L642.572 269.5H638.472V296H621.372V225.8H650.072C655.605 225.8 660.305 226.767 664.172 228.7C668.105 230.633 671.039 233.3 672.972 236.7C674.905 240.033 675.872 243.767 675.872 247.9C675.872 252.567 674.539 256.733 671.872 260.4C669.272 264.067 665.405 266.667 660.272 268.2L676.472 296H657.172ZM638.472 257.4H649.072C652.205 257.4 654.539 256.633 656.072 255.1C657.672 253.567 658.472 251.4 658.472 248.6C658.472 245.933 657.672 243.833 656.072 242.3C654.539 240.767 652.205 240 649.072 240H638.472V257.4ZM703.706 225.8V296H686.606V225.8H703.706ZM766.598 225.8V239.5H747.998V296H730.898V239.5H712.298V225.8H766.598ZM792.28 225.8V296H775.18V225.8H792.28ZM854.673 308L845.673 295.9C843.006 296.433 840.406 296.7 837.873 296.7C831.273 296.7 825.206 295.167 819.673 292.1C814.206 289.033 809.839 284.767 806.573 279.3C803.373 273.767 801.773 267.567 801.773 260.7C801.773 253.833 803.373 247.667 806.573 242.2C809.839 236.733 814.206 232.467 819.673 229.4C825.206 226.333 831.273 224.8 837.873 224.8C844.473 224.8 850.506 226.333 855.973 229.4C861.506 232.467 865.839 236.733 868.973 242.2C872.173 247.667 873.773 253.833 873.773 260.7C873.773 266.7 872.539 272.2 870.073 277.2C867.673 282.133 864.306 286.233 859.973 289.5L875.373 308H854.673ZM819.273 260.7C819.273 266.9 820.939 271.867 824.273 275.6C827.673 279.267 832.206 281.1 837.873 281.1C843.473 281.1 847.939 279.233 851.273 275.5C854.673 271.767 856.373 266.833 856.373 260.7C856.373 254.5 854.673 249.567 851.273 245.9C847.939 242.167 843.473 240.3 837.873 240.3C832.206 240.3 827.673 242.133 824.273 245.8C820.939 249.467 819.273 254.433 819.273 260.7ZM900.281 225.8V267.8C900.281 272 901.315 275.233 903.381 277.5C905.448 279.767 908.481 280.9 912.481 280.9C916.481 280.9 919.548 279.767 921.681 277.5C923.815 275.233 924.881 272 924.881 267.8V225.8H941.981V267.7C941.981 273.967 940.648 279.267 937.981 283.6C935.315 287.933 931.715 291.2 927.181 293.4C922.715 295.6 917.715 296.7 912.181 296.7C906.648 296.7 901.681 295.633 897.281 293.5C892.948 291.3 889.515 288.033 886.981 283.7C884.448 279.3 883.181 273.967 883.181 267.7V225.8H900.281ZM971.089 239.5V253.7H993.989V266.9H971.089V282.3H996.989V296H953.989V225.8H996.989V239.5H971.089Z" fill="#20252C"/>
</svg>
