<svg width="545" height="604" viewBox="0 0 545 604" fill="none" xmlns="http://www.w3.org/2000/svg">
<path d="M327.799 597.625C435.386 597.625 522.602 589.806 522.602 580.161C522.602 570.517 435.386 562.698 327.799 562.698C220.212 562.698 132.996 570.517 132.996 580.161C132.996 589.806 220.212 597.625 327.799 597.625Z" fill="#263238"/>
<path d="M455.955 398.136C455.955 398.136 478.149 404.248 481.214 436.109C484.278 467.97 451.38 482.91 414.63 487.664C377.88 492.418 304.468 470.026 257.037 460.499C209.606 450.972 140.002 447.615 99.4433 455.066C58.8849 462.517 22.1787 484.909 22.1787 490.323C22.1787 495.736 45.1392 476.74 88.7401 469.988C132.341 463.235 234.864 472.025 270.038 476.76C305.212 481.494 381.798 516.129 419.249 516.129C456.699 516.129 479.682 512.055 508.749 488.324C537.816 464.594 544.711 438.127 543.945 420.508C543.441 408.866 542.916 402.25 542.631 399.165C542.491 397.695 541.761 396.318 540.574 395.284L535.518 390.802L534.905 378.791C534.861 377.895 534.563 377.024 534.039 376.258C533.515 375.491 532.781 374.854 531.906 374.406L525.581 371.126L523.589 364.995C523.261 363.963 522.646 363.021 521.801 362.255C520.956 361.489 519.907 360.923 518.752 360.61L512.579 358.921L509.405 346.62C509.203 345.817 508.777 345.073 508.165 344.456C507.553 343.839 506.775 343.368 505.903 343.088L500.322 341.284L496.338 333.212C495.925 332.374 495.267 331.651 494.432 331.115C493.596 330.579 492.615 330.251 491.589 330.165L486.554 329.758L484.891 325.683C484.463 324.667 483.735 323.772 482.785 323.089C481.834 322.407 480.694 321.962 479.485 321.802L473.553 320.987C473.553 320.987 470.489 313.517 468.212 308.103C465.936 302.69 459.785 306.745 459.785 306.745C459.785 306.745 441.421 306.745 429.142 310.82" fill="#FFD057"/>
<path d="M455.955 398.136C455.955 398.136 478.149 404.248 481.214 436.109C484.278 467.97 451.38 482.91 414.63 487.664C377.881 492.418 304.468 470.026 257.037 460.499C209.606 450.972 140.002 447.615 99.4433 455.066C58.8849 462.517 22.1787 484.909 22.1787 490.323C22.1787 495.736 45.1392 476.74 88.7401 469.988C132.341 463.235 234.864 472.025 270.038 476.76C305.212 481.494 381.798 516.129 419.249 516.129C456.699 516.129 479.682 512.055 508.749 488.324C537.816 464.594 544.711 438.127 543.945 420.508C543.441 408.866 542.916 402.25 542.631 399.165C542.491 397.695 541.761 396.318 540.574 395.284L535.518 390.802L534.905 378.791C534.861 377.895 534.563 377.024 534.039 376.258C533.515 375.491 532.781 374.854 531.906 374.406L525.581 371.126L523.589 364.995C523.261 363.963 522.646 363.021 521.801 362.255C520.956 361.489 519.907 360.923 518.752 360.61L512.579 358.921L509.405 346.62C509.204 345.817 508.777 345.073 508.165 344.456C507.553 343.839 506.775 343.368 505.903 343.088L500.322 341.284L496.338 333.212C495.925 332.374 495.267 331.651 494.432 331.115C493.596 330.579 492.615 330.251 491.589 330.165L486.554 329.758L484.891 325.683C484.463 324.667 483.735 323.772 482.785 323.089C481.834 322.407 480.694 321.962 479.485 321.802L473.553 320.987C473.553 320.987 470.489 313.517 468.212 308.103C465.936 302.69 459.785 306.745 459.785 306.745C459.785 306.745 441.421 306.745 429.142 310.82" stroke="#263238" stroke-linecap="round" stroke-linejoin="round"/>
<path d="M364.288 453.747C364.288 453.747 363.522 465.273 369.651 467.33C375.78 469.386 384.185 469.367 384.185 478.176C384.185 486.985 372.693 519.545 368.863 529.712C365.033 539.88 371.161 555.5 357.372 564.309C343.582 573.118 322.964 574.476 316.069 568.384C309.174 562.291 325.262 554.141 326.772 545.313C328.283 536.484 340.562 499.21 340.562 494.456C340.562 489.702 326.772 487.684 309.919 472.083C293.065 456.483 292.408 447.654 292.408 447.654L364.288 453.747Z" fill="#FFD057"/>
<mask id="mask0_33_62" style="mask-type:luminance" maskUnits="userSpaceOnUse" x="292" y="447" width="93" height="126">
<path d="M364.288 453.747C364.288 453.747 363.522 465.273 369.651 467.33C375.78 469.386 384.185 469.367 384.185 478.176C384.185 486.985 372.693 519.545 368.863 529.712C365.033 539.88 371.161 555.5 357.372 564.309C343.582 573.118 322.964 574.476 316.069 568.384C309.174 562.291 325.262 554.141 326.772 545.313C328.283 536.484 340.562 499.21 340.562 494.456C340.562 489.702 326.772 487.684 309.919 472.083C293.065 456.483 292.408 447.654 292.408 447.654L364.288 453.747Z" fill="white"/>
</mask>
<g mask="url(#mask0_33_62)">
<path opacity="0.5" d="M364.288 453.747C364.288 453.747 363.522 465.273 369.651 467.33C375.78 469.386 384.185 469.367 384.185 478.176C384.185 486.985 372.693 519.545 368.863 529.712C365.033 539.88 371.161 555.5 357.372 564.309C343.582 573.118 322.964 574.476 316.069 568.384C309.174 562.291 325.262 554.141 326.772 545.313C328.283 536.484 340.562 499.21 340.562 494.456C340.562 489.702 326.772 487.684 309.919 472.083C293.065 456.483 292.408 447.654 292.408 447.654L364.288 453.747Z" fill="black"/>
</g>
<path d="M364.288 453.747C364.288 453.747 363.522 465.273 369.651 467.33C375.78 469.386 384.185 469.367 384.185 478.176C384.185 486.985 372.693 519.545 368.863 529.712C365.033 539.88 371.161 555.5 357.372 564.309C343.582 573.118 322.964 574.476 316.069 568.384C309.174 562.291 325.262 554.141 326.772 545.313C328.283 536.484 340.562 499.21 340.562 494.456C340.562 489.702 326.772 487.684 309.919 472.083C293.065 456.483 292.408 447.654 292.408 447.654L364.288 453.747Z" stroke="#263238" stroke-linecap="round" stroke-linejoin="round"/>
<path d="M172.571 370.952C172.571 370.952 168.478 405.878 180.035 425.747C191.592 445.617 213.326 467.31 214.683 487.179C216.04 507.049 208.555 542.596 205.162 551.619C201.769 560.641 189.534 569.082 191.592 574.495C193.649 579.909 218.755 580.53 231.668 579.929C244.582 579.327 254.082 574.496 255.439 561.864C256.796 549.232 260.188 498.026 262.224 485.375C264.26 472.724 266.996 454.659 258.831 446.839C250.667 439.02 208.489 408.886 203.805 399.863C199.121 390.84 201.091 395.652 196.341 387.212C191.592 378.771 180.713 366.722 177.999 366.722C175.285 366.722 172.571 370.952 172.571 370.952Z" fill="#FFD057" stroke="#263238" stroke-linecap="round" stroke-linejoin="round"/>
<path d="M461.602 337.48C468.496 355.836 467.73 398.621 467.73 398.621C467.73 398.621 469.262 412.204 463.134 435.313C457.005 458.423 458.537 451.612 460.835 459.762C463.134 467.911 463.134 519.544 463.134 536.523C463.134 553.501 459.303 573.215 447.812 575.931C436.321 578.648 417.169 581.364 409.486 578.648C401.804 575.931 401.825 569.819 404.89 564.386C407.954 558.953 413.317 558.953 419.445 544.691C425.574 530.43 423.385 501.208 423.385 501.208C419.087 500.753 414.949 499.487 411.249 497.495C407.549 495.504 404.373 492.833 401.935 489.663C393.399 478.777 394.931 448.217 394.931 448.217L371.948 456.366C325.984 471.307 281.507 463.158 281.507 463.158C261.156 461.896 241.448 456.305 224.051 446.858C195.75 431.239 183.427 393.887 183.427 393.887L171.17 374.871C171.17 374.871 152.018 335.462 153.659 300.148C155.301 264.833 160.554 196.882 153.659 153.398C146.765 109.915 105.374 58.9803 105.374 58.9803C105.374 58.9803 102.31 63.0551 91.5851 66.4507C80.8599 69.8463 59.3878 67.1298 47.8091 62.3759C37.8807 58.5442 27.2039 56.468 16.3779 56.2638C15.6952 56.3855 14.9873 56.3297 14.3395 56.103C13.6917 55.8763 13.1318 55.4883 12.727 54.9859C12.3222 54.4836 12.0899 53.8881 12.058 53.2714C12.0262 52.6547 12.1962 52.043 12.5475 51.5099C12.5475 51.5099 0.268331 50.1517 1.03441 42.6619C1.80049 35.1721 10.2493 19.5716 26.337 16.8551C35.6845 15.3443 44.723 12.5971 53.1498 8.70556C53.1498 8.70556 77.6643 -2.16048 99.9025 1.91428C122.141 5.98904 159.679 33.1541 183.427 77.3167C207.176 121.479 223.285 160.869 230.18 196.882C237.075 232.895 247.034 277.038 247.034 277.038L257.759 263.456C258.172 262.924 258.8 262.553 259.513 262.42C260.225 262.286 260.968 262.4 261.589 262.738L269.25 266.929L274.481 251.406C274.923 250.086 275.934 248.974 277.293 248.31C278.653 247.645 280.253 247.482 281.748 247.855L289.956 249.795L301.491 231.478C301.875 230.87 302.397 230.339 303.023 229.917C303.65 229.496 304.368 229.194 305.132 229.03C305.897 228.866 306.691 228.844 307.465 228.965C308.24 229.086 308.978 229.347 309.633 229.732L318.388 234.855L330.471 220.748C330.782 220.389 331.176 220.093 331.627 219.88C332.077 219.667 332.574 219.542 333.084 219.512C333.593 219.483 334.104 219.55 334.582 219.71C335.06 219.869 335.494 220.118 335.855 220.438L345.967 229.402L362.208 218.09C362.831 217.657 363.557 217.355 364.331 217.206C365.105 217.058 365.907 217.067 366.676 217.233C367.445 217.4 368.162 217.719 368.772 218.166C369.382 218.614 369.869 219.178 370.197 219.817L375.866 230.78L391.319 225.502C391.906 225.302 392.53 225.207 393.158 225.222C393.786 225.237 394.405 225.361 394.978 225.588C395.552 225.815 396.069 226.141 396.5 226.545C396.931 226.95 397.268 227.426 397.492 227.947L401.869 238.25L410.23 237.261C411.134 237.14 412.058 237.293 412.852 237.694C413.646 238.095 414.264 238.722 414.608 239.473L418.767 248.437L425.53 249.291C426.67 249.42 427.725 249.89 428.522 250.625C429.318 251.359 429.807 252.312 429.908 253.327L431.112 266.094H434.592C435.548 266.098 436.472 266.396 437.207 266.937C437.942 267.479 438.441 268.231 438.619 269.063L440.305 276.96L445.601 277.387C446.518 277.459 447.387 277.778 448.092 278.302C448.797 278.826 449.303 279.53 449.541 280.317L451.03 285.11L451.971 285.265C453.036 285.419 454.019 285.868 454.778 286.547C455.537 287.227 456.033 288.103 456.195 289.049L457.924 298.751C457.924 298.751 462.521 317.766 461.755 325.916" fill="#FFD057"/>
<mask id="mask1_33_62" style="mask-type:luminance" maskUnits="userSpaceOnUse" x="1" y="1" width="467" height="579">
<path d="M461.602 337.48C468.496 355.836 467.73 398.621 467.73 398.621C467.73 398.621 469.262 412.204 463.134 435.313C457.005 458.423 458.537 451.612 460.835 459.762C463.134 467.911 463.134 519.544 463.134 536.523C463.134 553.501 459.303 573.215 447.812 575.931C436.321 578.648 417.169 581.364 409.486 578.648C401.804 575.931 401.825 569.819 404.89 564.386C407.954 558.953 413.317 558.953 419.445 544.691C425.574 530.43 423.385 501.208 423.385 501.208C419.087 500.753 414.949 499.487 411.249 497.495C407.549 495.504 404.373 492.833 401.935 489.663C393.399 478.777 394.931 448.217 394.931 448.217L371.948 456.366C325.984 471.307 281.507 463.158 281.507 463.158C261.156 461.896 241.448 456.305 224.051 446.858C195.75 431.239 183.427 393.887 183.427 393.887L171.17 374.871C171.17 374.871 152.018 335.462 153.659 300.148C155.301 264.833 160.554 196.882 153.659 153.398C146.765 109.915 105.374 58.9803 105.374 58.9803C105.374 58.9803 102.31 63.0551 91.5851 66.4507C80.8599 69.8463 59.3878 67.1298 47.8091 62.3759C37.8807 58.5442 27.2039 56.468 16.3779 56.2638C15.6952 56.3855 14.9873 56.3297 14.3395 56.103C13.6917 55.8763 13.1318 55.4883 12.727 54.9859C12.3222 54.4836 12.0899 53.8881 12.058 53.2714C12.0262 52.6547 12.1962 52.043 12.5475 51.5099C12.5475 51.5099 0.268331 50.1517 1.03441 42.6619C1.80049 35.1721 10.2493 19.5716 26.337 16.8551C35.6845 15.3443 44.723 12.5971 53.1498 8.70556C53.1498 8.70556 77.6643 -2.16048 99.9025 1.91428C122.141 5.98904 159.679 33.1541 183.427 77.3167C207.176 121.479 223.285 160.869 230.18 196.882C237.075 232.895 247.034 277.038 247.034 277.038L257.759 263.456C258.172 262.924 258.8 262.553 259.513 262.42C260.225 262.286 260.968 262.4 261.589 262.738L269.25 266.929L274.481 251.406C274.923 250.086 275.934 248.974 277.293 248.31C278.653 247.645 280.253 247.482 281.748 247.855L289.956 249.795L301.491 231.478C301.875 230.87 302.397 230.339 303.023 229.917C303.65 229.496 304.368 229.194 305.132 229.03C305.897 228.866 306.691 228.844 307.465 228.965C308.24 229.086 308.978 229.347 309.633 229.732L318.388 234.855L330.471 220.748C330.782 220.389 331.176 220.093 331.627 219.88C332.077 219.667 332.574 219.542 333.084 219.512C333.593 219.483 334.104 219.55 334.582 219.71C335.06 219.869 335.494 220.118 335.855 220.438L345.967 229.402L362.208 218.09C362.831 217.657 363.557 217.355 364.331 217.206C365.105 217.058 365.907 217.067 366.676 217.233C367.445 217.4 368.162 217.719 368.772 218.166C369.382 218.614 369.869 219.178 370.197 219.817L375.866 230.78L391.319 225.502C391.906 225.302 392.53 225.207 393.158 225.222C393.786 225.237 394.405 225.361 394.978 225.588C395.552 225.815 396.069 226.141 396.5 226.545C396.931 226.95 397.268 227.426 397.492 227.947L401.869 238.25L410.23 237.261C411.134 237.14 412.058 237.293 412.852 237.694C413.646 238.095 414.264 238.722 414.608 239.473L418.767 248.437L425.53 249.291C426.67 249.42 427.725 249.89 428.522 250.625C429.318 251.359 429.807 252.312 429.908 253.327L431.112 266.094H434.592C435.548 266.098 436.472 266.396 437.207 266.937C437.942 267.479 438.441 268.231 438.619 269.063L440.305 276.96L445.601 277.387C446.518 277.459 447.387 277.778 448.092 278.302C448.797 278.826 449.303 279.53 449.541 280.317L451.03 285.11L451.971 285.265C453.036 285.419 454.019 285.868 454.778 286.547C455.537 287.227 456.033 288.103 456.195 289.049L457.924 298.751C457.924 298.751 462.521 317.766 461.755 325.916" fill="white"/>
</mask>
<g mask="url(#mask1_33_62)">
<path d="M400.272 426.718C361.946 440.184 237.557 427.358 219.477 383.758C201.398 340.158 205.732 277.989 205.732 277.989C205.732 277.989 212.977 274.108 192.73 179.904C172.484 85.6993 112.577 52.3833 112.577 52.3833L102.442 61.3672V61.5224C103.548 60.8148 104.536 59.9721 105.375 59.0193C105.375 59.0193 146.744 109.973 153.66 153.437C160.577 196.901 155.192 264.853 153.66 300.187C152.128 335.521 171.171 374.91 171.171 374.91L183.428 393.926C183.428 393.926 195.685 431.297 224.052 446.917C241.449 456.363 261.157 461.954 281.508 463.216C281.508 463.216 325.963 471.365 371.949 456.425L394.932 448.217C451.052 408.828 447.266 373.513 447.266 373.513C447.266 373.513 438.708 413.29 400.272 426.718Z" fill="white"/>
</g>
<path d="M461.602 337.48C468.496 355.836 467.73 398.621 467.73 398.621C467.73 398.621 469.262 412.204 463.134 435.313C457.005 458.423 458.537 451.612 460.835 459.762C463.134 467.911 463.134 519.544 463.134 536.523C463.134 553.501 459.303 573.215 447.812 575.931C436.321 578.648 417.169 581.364 409.486 578.648C401.804 575.931 401.825 569.819 404.89 564.386C407.954 558.953 413.317 558.953 419.445 544.691C425.574 530.43 423.385 501.208 423.385 501.208C419.087 500.753 414.949 499.487 411.249 497.495C407.549 495.504 404.373 492.833 401.935 489.663C393.399 478.777 394.931 448.217 394.931 448.217L371.948 456.366C325.984 471.307 281.507 463.158 281.507 463.158C261.156 461.896 241.448 456.305 224.051 446.858C195.75 431.239 183.427 393.887 183.427 393.887L171.17 374.871C171.17 374.871 152.018 335.462 153.659 300.148C155.301 264.833 160.554 196.882 153.659 153.398C146.765 109.915 105.374 58.9803 105.374 58.9803C105.374 58.9803 102.31 63.0551 91.5851 66.4507C80.8599 69.8463 59.3878 67.1298 47.8091 62.3759C37.8807 58.5442 27.2039 56.468 16.3779 56.2638C15.6952 56.3855 14.9873 56.3297 14.3395 56.103C13.6917 55.8763 13.1318 55.4883 12.727 54.9859C12.3222 54.4836 12.0899 53.8881 12.058 53.2714C12.0262 52.6547 12.1962 52.043 12.5475 51.5099C12.5475 51.5099 0.268331 50.1517 1.03441 42.6619C1.80049 35.1721 10.2493 19.5716 26.337 16.8551C35.6845 15.3443 44.723 12.5971 53.1498 8.70556C53.1498 8.70556 77.6643 -2.16048 99.9025 1.91428C122.141 5.98904 159.679 33.1541 183.427 77.3167C207.176 121.479 223.285 160.869 230.18 196.882C237.075 232.895 247.034 277.038 247.034 277.038L257.759 263.456C258.172 262.924 258.8 262.553 259.513 262.42C260.225 262.286 260.968 262.4 261.589 262.738L269.25 266.929L274.481 251.406C274.923 250.086 275.934 248.974 277.293 248.31C278.653 247.645 280.253 247.482 281.748 247.855L289.956 249.795L301.491 231.478C301.875 230.87 302.397 230.339 303.023 229.917C303.65 229.496 304.368 229.194 305.132 229.03C305.897 228.866 306.691 228.844 307.465 228.965C308.24 229.086 308.978 229.347 309.633 229.732L318.388 234.855L330.471 220.748C330.782 220.389 331.176 220.093 331.627 219.88C332.077 219.667 332.574 219.542 333.084 219.512C333.593 219.483 334.104 219.55 334.582 219.71C335.06 219.869 335.494 220.118 335.855 220.438L345.967 229.402L362.208 218.09C362.831 217.657 363.557 217.355 364.331 217.206C365.105 217.058 365.907 217.067 366.676 217.233C367.445 217.4 368.162 217.719 368.772 218.166C369.382 218.614 369.869 219.178 370.197 219.817L375.866 230.78L391.319 225.502C391.906 225.302 392.53 225.207 393.158 225.222C393.786 225.237 394.405 225.361 394.978 225.588C395.552 225.815 396.069 226.141 396.5 226.545C396.931 226.95 397.268 227.426 397.492 227.947L401.869 238.25L410.23 237.261C411.134 237.14 412.058 237.293 412.852 237.694C413.646 238.095 414.264 238.722 414.608 239.473L418.767 248.437L425.53 249.291C426.67 249.42 427.725 249.89 428.522 250.625C429.318 251.359 429.807 252.312 429.908 253.327L431.112 266.094H434.592C435.548 266.098 436.472 266.396 437.207 266.937C437.942 267.479 438.441 268.231 438.619 269.063L440.305 276.96L445.601 277.387C446.518 277.459 447.387 277.778 448.092 278.302C448.797 278.826 449.303 279.53 449.541 280.317L451.03 285.11L451.971 285.265C453.036 285.419 454.019 285.868 454.778 286.547C455.537 287.227 456.033 288.103 456.195 289.049L457.924 298.751C457.924 298.751 462.521 317.766 461.755 325.916" stroke="#263238" stroke-linecap="round" stroke-linejoin="round"/>
<path d="M409.615 568.055C408.259 567.889 406.878 568.102 405.665 568.666C404.453 569.229 403.469 570.115 402.852 571.198C400.51 575.952 403.333 578.96 407.23 578.824C411.126 578.688 414.321 572.033 411.914 569.336C411.343 568.681 410.528 568.227 409.615 568.055Z" fill="#8C8C8C" stroke="#263238" stroke-linecap="round" stroke-linejoin="round"/>
<path d="M419.815 569.666C418.458 569.499 417.077 569.713 415.864 570.276C414.652 570.84 413.668 571.726 413.051 572.809C410.709 577.563 413.533 580.571 417.429 580.435C421.325 580.299 424.52 573.644 422.135 570.947C421.565 570.281 420.739 569.825 419.815 569.666Z" fill="#8C8C8C" stroke="#263238" stroke-linecap="round" stroke-linejoin="round"/>
<path d="M430.234 570.714C428.916 570.558 427.576 570.77 426.4 571.319C425.223 571.868 424.269 572.728 423.668 573.779C421.479 578.417 424.127 581.289 427.892 581.23C431.657 581.172 434.809 574.594 432.467 571.956C431.913 571.319 431.121 570.879 430.234 570.714Z" fill="#8C8C8C" stroke="#263238" stroke-linecap="round" stroke-linejoin="round"/>
<path d="M195.421 566.676C193.941 566.494 192.434 566.728 191.111 567.343C189.789 567.959 188.716 568.927 188.045 570.11C185.506 575.291 188.57 578.493 192.795 578.434C197.019 578.376 200.521 571.022 197.917 568.073C197.303 567.355 196.416 566.859 195.421 566.676Z" fill="#8C8C8C" stroke="#263238" stroke-linecap="round" stroke-linejoin="round"/>
<path d="M206.564 568.519C205.084 568.343 203.58 568.579 202.259 569.195C200.937 569.81 199.864 570.774 199.188 571.953C196.627 577.154 199.713 580.355 203.915 580.278C208.118 580.2 211.664 572.865 209.037 569.916C208.433 569.198 207.553 568.701 206.564 568.519Z" fill="#8C8C8C" stroke="#263238" stroke-linecap="round" stroke-linejoin="round"/>
<path d="M217.945 569.567C216.501 569.401 215.034 569.634 213.745 570.235C212.456 570.836 211.408 571.775 210.744 572.924C208.249 577.988 211.247 581.112 215.362 581.054C219.477 580.995 222.914 573.816 220.374 570.944C219.763 570.255 218.907 569.769 217.945 569.567Z" fill="#8C8C8C" stroke="#263238" stroke-linecap="round" stroke-linejoin="round"/>
<path d="M12.5479 51.4907C22.4426 48.1149 33.2661 47.5055 43.5631 49.7444C61.2486 53.3923 59.4757 54.9639 66.5455 54.9639" stroke="#263238" stroke-linecap="round" stroke-linejoin="round"/>
<path d="M65.3843 50.2681C65.3843 50.2681 64.7933 55.4876 73.0451 58.631" stroke="#263238" stroke-linecap="round" stroke-linejoin="round"/>
<path d="M105.266 58.9611C105.266 58.9611 120.806 47.6488 111.372 31.9707" stroke="#263238" stroke-linecap="round" stroke-linejoin="round"/>
<path d="M12.7444 32.5523C13.4667 34.0076 16.2246 34.3375 18.9168 33.2897C21.6091 32.2419 23.185 30.2239 22.4627 28.7686C21.7404 27.3134 18.9825 26.9835 16.3122 28.0313C13.6418 29.0791 12.0221 31.0388 12.7444 32.5523Z" stroke="#263238" stroke-linecap="round" stroke-linejoin="round"/>
<path d="M76.504 18.4269C76.504 18.4269 78.5177 12.4506 69.7844 13.6536C61.0511 14.8567 65.0784 20.7942 65.0784 20.7942L76.504 18.4269Z" fill="white" stroke="#263238" stroke-linecap="round" stroke-linejoin="round"/>
<path d="M65.7354 23.2779C65.7354 23.2779 77.8394 28.0511 83.9024 22.0942" stroke="#263238" stroke-linecap="round" stroke-linejoin="round"/>
<path d="M69.5663 13.6924C70.2422 14.107 70.7945 14.6608 71.1758 15.3063C71.557 15.9519 71.7558 16.6698 71.7551 17.3985C71.7565 18.1481 71.5537 18.887 71.1641 19.5523L65.1449 20.7941C65.1449 20.7941 61.1175 14.9536 69.5663 13.6924Z" fill="#263238" stroke="#263238" stroke-linecap="round" stroke-linejoin="round"/>
<path d="M335.593 398.059C335.593 398.059 333.557 423.283 338.307 439.602C343.056 455.92 351.899 452.854 349.864 479.961C347.828 507.068 337.628 528.742 337.628 549.213C337.628 569.684 343.078 582.335 337.628 591.357C332.178 600.38 298.23 601.602 285.338 597.993C272.446 594.384 277.174 584.741 283.302 568.519C289.431 552.298 294.859 501.674 290.788 488.421C286.717 475.169 283.981 460.131 281.267 455.299C278.552 450.468 238.476 423.982 237.118 400.503C235.761 377.025 245.874 369.186 245.874 369.186" fill="#FFD057"/>
<path d="M335.593 398.059C335.593 398.059 333.557 423.283 338.307 439.602C343.056 455.92 351.899 452.854 349.864 479.961C347.828 507.068 337.628 528.742 337.628 549.213C337.628 569.684 343.078 582.335 337.628 591.357C332.178 600.38 298.23 601.602 285.338 597.993C272.446 594.384 277.174 584.741 283.302 568.519C289.431 552.298 294.859 501.674 290.788 488.421C286.717 475.169 283.981 460.131 281.267 455.299C278.552 450.468 238.476 423.982 237.118 400.503C235.761 377.025 245.874 369.186 245.874 369.186" stroke="#263238" stroke-linecap="round" stroke-linejoin="round"/>
<path d="M286.367 586.293C284.663 586.077 282.926 586.335 281.394 587.03C279.861 587.725 278.609 588.823 277.809 590.173C274.832 596.227 278.4 599.875 283.303 599.875C288.205 599.875 292.299 591.26 289.256 587.825C288.526 587.029 287.503 586.487 286.367 586.293Z" fill="#8C8C8C" stroke="#263238" stroke-linecap="round" stroke-linejoin="round"/>
<path d="M299.303 588.33C297.584 588.125 295.836 588.397 294.299 589.11C292.763 589.822 291.513 590.94 290.723 592.308C287.768 598.362 291.336 602.01 296.238 602.01C301.141 602.01 305.234 593.394 302.192 589.96C301.48 589.128 300.455 588.55 299.303 588.33Z" fill="#8C8C8C" stroke="#263238" stroke-linecap="round" stroke-linejoin="round"/>
<path d="M312.523 589.669C310.847 589.466 309.141 589.731 307.643 590.426C306.145 591.121 304.928 592.213 304.161 593.55C301.272 599.371 304.752 603.058 309.524 602.999C314.296 602.941 318.279 594.598 315.346 591.241C314.645 590.437 313.644 589.88 312.523 589.669Z" fill="#8C8C8C" stroke="#263238" stroke-linecap="round" stroke-linejoin="round"/>
<path d="M247.034 277.019C249.344 286.35 252.71 295.451 257.081 304.184" stroke="#263238" stroke-linecap="round" stroke-linejoin="round"/>
<path d="M295.056 299.139C304.836 299.139 312.763 294.404 312.763 288.564C312.763 282.723 304.836 277.989 295.056 277.989C285.276 277.989 277.349 282.723 277.349 288.564C277.349 294.404 285.276 299.139 295.056 299.139Z" fill="white"/>
<path d="M310.596 265.163C310.596 268.345 315.608 270.984 321.802 270.984C327.997 270.984 333.009 268.403 333.009 265.163C333.009 261.922 327.997 259.342 321.802 259.342C315.608 259.342 310.596 261.942 310.596 265.163Z" fill="white"/>
<path d="M346.777 282.16C346.777 285.168 352.446 287.593 359.429 287.593C366.411 287.593 372.08 285.168 372.08 282.16C372.08 279.153 366.411 276.708 359.429 276.708C352.446 276.708 346.777 279.134 346.777 282.16Z" fill="white"/>
<path d="M348.967 257.15C348.967 260.875 354.789 263.883 361.99 263.883C369.191 263.883 374.992 260.875 374.992 257.15C374.992 253.424 369.169 250.417 361.99 250.417C354.811 250.417 348.967 253.424 348.967 257.15Z" fill="white"/>
<path d="M390.86 124.55C394.45 124.55 397.361 122.544 397.361 120.068C397.361 117.593 394.45 115.586 390.86 115.586C387.27 115.586 384.359 117.593 384.359 120.068C384.359 122.544 387.27 124.55 390.86 124.55Z" fill="white"/>
<path d="M411.543 134.349C410.427 137.376 413.228 140.907 417.781 142.207C422.334 143.507 426.93 142.207 428.047 139.103C429.163 135.998 426.361 132.544 421.809 131.341C417.256 130.138 412.637 131.322 411.543 134.349Z" fill="white"/>
<path d="M398.827 106.64C397.951 109.046 401.016 112.093 405.831 113.47C410.646 114.848 415.155 113.994 416.031 111.53C416.906 109.066 413.842 106.078 409.027 104.7C404.211 103.322 399.702 104.234 398.827 106.64Z" fill="white"/>
<path d="M483.883 196.227C482.264 198.303 484.277 202.048 488.37 204.551C492.463 207.054 497.126 207.423 498.745 205.347C500.365 203.271 498.351 199.526 494.258 197.023C490.165 194.519 485.503 194.151 483.883 196.227Z" fill="white"/>
<path d="M492.136 211.148C491.151 212.429 492.376 214.699 494.915 216.252C497.454 217.804 500.278 218.017 501.263 216.737C502.248 215.456 501.022 213.186 498.505 211.634C495.988 210.081 493.143 209.868 492.136 211.148Z" fill="white"/>
<path d="M514.067 224.731C513.082 226.012 514.308 228.282 516.847 229.834C519.386 231.386 522.21 231.6 523.195 230.319C524.18 229.039 522.954 226.768 520.437 225.216C517.92 223.664 515.074 223.45 514.067 224.731Z" fill="white"/>
<path d="M491.654 224.731C490.669 226.012 491.894 228.282 494.411 229.834C496.929 231.386 499.796 231.6 500.781 230.319C501.766 229.039 500.54 226.768 498.023 225.216C495.506 223.664 492.66 223.45 491.654 224.731Z" fill="white"/>
<path d="M225.058 248.709C222.301 249.33 221.009 253.288 222.213 257.596C223.417 261.903 226.591 264.891 229.392 264.29C232.194 263.688 233.442 259.711 232.238 255.403C231.034 251.095 227.838 248.107 225.058 248.709Z" fill="white"/>
<path d="M232.96 269.878C230.18 270.48 228.911 274.457 230.115 278.745C231.318 283.034 234.492 286.041 237.272 285.44C240.052 284.838 241.321 280.86 240.117 276.553C238.914 272.245 235.784 269.257 232.96 269.878Z" fill="white"/>
<path d="M216.391 187.18C213.611 187.781 212.341 191.759 213.545 196.047C214.749 200.336 217.923 203.343 220.725 202.742C223.526 202.14 224.752 198.162 223.548 193.855C222.344 189.547 219.149 186.578 216.391 187.18Z" fill="white"/>
<path d="M220.112 264.756C218.405 265.124 217.639 267.55 218.361 270.189C219.083 272.828 221.075 274.671 222.739 274.302C224.402 273.934 225.234 271.489 224.49 268.85C223.746 266.211 221.819 264.368 220.112 264.756Z" fill="white"/>
<path d="M219.827 217.799C218.12 218.167 217.354 220.593 218.076 223.232C218.798 225.871 220.79 227.714 222.454 227.345C224.117 226.977 224.949 224.532 224.205 221.893C223.46 219.254 221.425 217.411 219.827 217.799Z" fill="white"/>
<path d="M230.267 231.576C228.56 231.944 227.794 234.389 228.516 237.028C229.239 239.667 231.231 241.491 232.894 241.122C234.557 240.754 235.389 238.309 234.645 235.67C233.901 233.031 231.953 231.207 230.267 231.576Z" fill="white"/>
<path d="M469.722 180.374C468.737 181.655 469.963 183.944 472.48 185.477C474.997 187.01 477.864 187.243 478.849 185.962C479.834 184.682 478.608 182.411 476.091 180.859C473.574 179.307 470.729 179.093 469.722 180.374Z" fill="white"/>
<path d="M49.3198 50.8115C49.8064 58.1592 49.8064 65.5258 49.3198 72.8734C48.5537 86.4559 55.8862 74.5809 55.8862 74.5809C55.8862 74.5809 57.7904 90.88 61.2487 86.4754C64.707 82.0707 61.6208 63.7149 61.6208 63.7149C61.6208 63.7149 66.2173 74.2511 66.6113 67.1105C66.6959 62.631 64.9197 58.2803 61.6208 54.8863L49.3198 50.8115Z" fill="#FFD057"/>
<mask id="mask2_33_62" style="mask-type:luminance" maskUnits="userSpaceOnUse" x="49" y="50" width="18" height="38">
<path d="M49.3198 50.8115C49.8064 58.1592 49.8064 65.5258 49.3198 72.8734C48.5537 86.4559 55.8862 74.5809 55.8862 74.5809C55.8862 74.5809 57.7904 90.88 61.2487 86.4754C64.707 82.0707 61.6208 63.7149 61.6208 63.7149C61.6208 63.7149 66.2173 74.2511 66.6113 67.1105C66.6959 62.631 64.9197 58.2803 61.6208 54.8863L49.3198 50.8115Z" fill="white"/>
</mask>
<g mask="url(#mask2_33_62)">
<path opacity="0.4" d="M49.3198 50.8115C49.8064 58.1592 49.8064 65.5258 49.3198 72.8734C48.5537 86.4559 55.8862 74.5809 55.8862 74.5809C55.8862 74.5809 57.7904 90.88 61.2487 86.4754C64.707 82.0707 61.6208 63.7149 61.6208 63.7149C61.6208 63.7149 66.2173 74.2511 66.6113 67.1105C66.6959 62.631 64.9197 58.2803 61.6208 54.8863L49.3198 50.8115Z" fill="white"/>
</g>
<path d="M49.3198 50.8115C49.8064 58.1592 49.8064 65.5258 49.3198 72.8734C48.5537 86.4559 55.8862 74.5809 55.8862 74.5809C55.8862 74.5809 57.7904 90.88 61.2487 86.4754C64.707 82.0707 61.6208 63.7149 61.6208 63.7149C61.6208 63.7149 66.2173 74.2511 66.6113 67.1105C66.6959 62.631 64.9197 58.2803 61.6208 54.8863L49.3198 50.8115Z" stroke="#263238" stroke-linecap="round" stroke-linejoin="round"/>
</svg>
