<svg width="1375" height="1149" viewBox="0 0 1375 1149" fill="none" xmlns="http://www.w3.org/2000/svg">
<path d="M1144.52 117.441C1144.52 113.692 1143.65 109.996 1141.97 106.647C1140.3 103.298 1137.87 100.391 1134.88 98.1571C1131.89 95.9235 1128.42 94.4258 1124.75 93.784C1121.08 93.1422 1117.31 93.3741 1113.75 94.4611C1111.35 87.6119 1106.9 81.6792 1101.01 77.4783C1095.13 73.2773 1088.09 71.0142 1080.88 71.0001C1073.66 70.9859 1066.62 73.2213 1060.72 77.3991C1054.81 81.5769 1050.34 87.4921 1047.92 94.3318C1045.83 93.7307 1043.66 93.426 1041.49 93.4264C1035.66 93.5141 1030.06 95.7508 1025.75 99.7135C1021.44 103.676 1018.73 109.09 1018.12 114.931C1017.51 120.772 1019.05 126.635 1022.44 131.412C1025.84 136.188 1030.86 139.547 1036.54 140.853L1126.23 140.831C1131.45 139.571 1136.09 136.577 1139.41 132.333C1142.73 128.088 1144.53 122.842 1144.52 117.441Z" fill="white"/>
<path d="M1165.87 129.362C1165.88 127.517 1165.45 125.697 1164.63 124.048C1163.8 122.399 1162.61 120.968 1161.13 119.869C1159.66 118.77 1157.95 118.035 1156.15 117.721C1154.34 117.408 1152.49 117.526 1150.73 118.066C1149.57 114.67 1147.39 111.723 1144.48 109.637C1141.58 107.551 1138.1 106.43 1134.53 106.43C1130.96 106.43 1127.48 107.551 1124.58 109.637C1121.68 111.723 1119.49 114.67 1118.33 118.066C1116.81 117.635 1115.23 117.516 1113.66 117.716C1112.1 117.916 1110.59 118.431 1109.23 119.23C1107.87 120.029 1106.68 121.097 1105.74 122.368C1104.79 123.64 1104.11 125.089 1103.74 126.631C1103.37 128.172 1103.3 129.774 1103.56 131.34C1103.81 132.906 1104.38 134.404 1105.22 135.745C1106.06 137.087 1107.16 138.244 1108.46 139.147C1109.76 140.05 1111.22 140.682 1112.76 141.003H1156.88C1159.47 140.378 1161.77 138.885 1163.4 136.769C1165.04 134.654 1165.91 132.042 1165.87 129.362Z" fill="white"/>
<path d="M1194.51 391.379C1194.51 387.63 1193.64 383.934 1191.96 380.585C1190.29 377.236 1187.86 374.329 1184.87 372.095C1181.88 369.861 1178.41 368.364 1174.74 367.722C1171.07 367.08 1167.3 367.312 1163.74 368.399C1161.32 361.566 1156.87 355.651 1150.99 351.462C1145.11 347.274 1138.09 345.017 1130.88 345C1123.68 344.984 1116.65 347.208 1110.75 351.37C1104.85 355.531 1100.37 361.426 1097.93 368.248C1095.84 367.647 1093.67 367.342 1091.5 367.343C1085.67 367.431 1080.07 369.667 1075.76 373.63C1071.45 377.592 1068.74 383.006 1068.13 388.847C1067.52 394.688 1069.06 400.552 1072.45 405.328C1075.85 410.105 1080.87 413.464 1086.55 414.769L1176.24 414.597C1181.43 413.339 1186.04 410.369 1189.36 406.16C1192.67 401.952 1194.48 396.748 1194.51 391.379Z" fill="white"/>
<path d="M1097.4 412.997C1097.4 409.864 1096.17 406.859 1093.97 404.644C1091.77 402.428 1088.78 401.184 1085.67 401.184C1084.52 401.168 1083.37 401.321 1082.26 401.637C1081.1 398.24 1078.92 395.294 1076.01 393.207C1073.11 391.121 1069.63 390 1066.06 390C1062.49 390 1059.02 391.121 1056.11 393.207C1053.21 395.294 1051.02 398.24 1049.86 401.637C1048.84 401.35 1047.79 401.205 1046.73 401.205C1043.83 401.206 1041.04 402.287 1038.88 404.24C1036.73 406.193 1035.37 408.88 1035.06 411.783C1034.76 414.686 1035.54 417.6 1037.24 419.961C1038.94 422.323 1041.46 423.966 1044.29 424.574H1088.43C1091 423.946 1093.29 422.461 1094.92 420.359C1096.55 418.258 1097.43 415.663 1097.4 412.997Z" fill="white"/>
<path d="M126.531 714.45C126.538 710.7 125.671 707.001 124 703.65C122.33 700.298 119.902 697.387 116.912 695.151C113.922 692.914 110.452 691.414 106.782 690.771C103.112 690.128 99.3435 690.36 95.7785 691.449C93.3724 684.602 88.9202 678.672 83.033 674.474C77.1458 670.276 70.1121 668.014 62.8973 668C55.6824 667.986 48.64 670.22 42.7366 674.395C36.8331 678.57 32.358 684.482 29.9253 691.319C27.8339 690.728 25.6728 690.424 23.5006 690.414C17.6667 690.502 12.0671 692.738 7.76068 696.701C3.45429 700.664 0.739761 706.077 0.130487 711.918C-0.478787 717.759 1.05944 723.623 4.45424 728.399C7.84905 733.176 12.8651 736.535 18.5536 737.84L108.242 737.668C113.437 736.425 118.065 733.459 121.382 729.248C124.699 725.037 126.513 719.825 126.531 714.45Z" fill="white"/>
<path d="M149.381 737.923C149.381 734.79 148.144 731.785 145.943 729.57C143.742 727.354 140.757 726.109 137.645 726.109C136.492 726.109 135.345 726.276 134.24 726.605C133.075 723.217 130.889 720.278 127.987 718.198C125.086 716.118 121.612 715 118.05 715C114.487 715 111.013 716.118 108.112 718.198C105.21 720.278 103.024 723.217 101.859 726.605C100.346 726.185 98.7647 726.074 97.2084 726.28C95.6521 726.485 94.1526 727.003 92.7986 727.803C91.4447 728.602 90.2638 729.666 89.3258 730.933C88.3878 732.2 87.7119 733.644 87.3379 735.178C86.964 736.713 86.8996 738.307 87.1487 739.867C87.3978 741.427 87.9552 742.921 88.788 744.261C89.6208 745.6 90.7121 746.757 91.9972 747.665C93.2823 748.572 94.7351 749.21 96.2697 749.542H140.407C142.989 748.913 145.281 747.422 146.911 745.311C148.541 743.201 149.412 740.596 149.381 737.923Z" fill="white"/>
<path d="M1209.38 981.923C1209.38 978.79 1208.14 975.785 1205.94 973.57C1203.74 971.354 1200.76 970.109 1197.64 970.109C1196.49 970.109 1195.35 970.276 1194.24 970.605C1193.07 967.217 1190.89 964.278 1187.99 962.198C1185.09 960.118 1181.61 959 1178.05 959C1174.49 959 1171.01 960.118 1168.11 962.198C1165.21 964.278 1163.02 967.217 1161.86 970.605C1160.35 970.185 1158.76 970.074 1157.21 970.28C1155.65 970.485 1154.15 971.003 1152.8 971.803C1151.44 972.602 1150.26 973.666 1149.33 974.933C1148.39 976.2 1147.71 977.644 1147.34 979.178C1146.96 980.713 1146.9 982.307 1147.15 983.867C1147.4 985.427 1147.96 986.921 1148.79 988.261C1149.62 989.6 1150.71 990.757 1152 991.665C1153.28 992.572 1154.74 993.21 1156.27 993.542H1200.41C1202.99 992.913 1205.28 991.422 1206.91 989.311C1208.54 987.201 1209.41 984.596 1209.38 981.923Z" fill="white"/>
<path d="M1374.16 504.055L1356.66 516.278L1356.77 537.706L1339.81 524.75L1319.59 531.476L1326.59 511.233L1314 493.944L1335.29 494.397L1347.73 477L1353.88 497.523L1374.16 504.055Z" fill="white"/>
<path d="M164.777 869.586L160.58 884.267L170.217 896.08L155.033 896.598L146.852 909.468L141.691 895.11L127 891.252L138.971 881.852L138.072 866.59L150.643 875.148L164.777 869.586Z" fill="white"/>
<path d="M1091.58 622.725L1087.68 636.078L1096.6 646.824L1082.56 647.294L1074.99 659L1070.19 645.941L1056.6 642.431L1067.68 633.882L1066.84 620L1078.48 627.784L1091.58 622.725Z" fill="white"/>
<path d="M97.9851 1112.73L94.0803 1126.08L103 1136.82L88.9663 1137.29L81.3944 1149L76.5976 1135.94L63 1132.43L74.0803 1123.88L73.2478 1110L84.883 1117.78L97.9851 1112.73Z" fill="white"/>
<path d="M38.4698 2.09108L35.5359 12.3955L42.2818 20.6736L31.6382 21.0185L25.9202 30.0511L22.2795 19.9838L12 17.2675L20.395 10.6925L19.7525 0L28.5758 6.01453L38.4698 2.09108Z" fill="white"/>
<path d="M156.575 476.53L147.366 481.919L146.574 492.612L138.65 485.476L128.306 487.998L132.589 478.19L127 469.092L137.601 470.17L144.475 462L146.724 472.477L156.575 476.53Z" fill="white"/>
<path d="M1310.49 515.091L1307.54 525.396L1314.3 533.674L1303.66 534.019L1297.92 543.051L1294.3 532.984L1284 530.289L1292.39 523.692L1291.77 513L1300.58 519.015L1310.49 515.091Z" fill="white"/>
<path d="M851.799 71.9965L847.58 86.6771L857.217 98.4906L842.055 99.008L833.874 111.878L828.691 97.5205L814 93.6617L825.971 84.2627L825.072 69L837.643 77.5583L851.799 71.9965Z" fill="white"/>
</svg>
