<svg width="245" height="129" viewBox="0 0 245 129" fill="none" xmlns="http://www.w3.org/2000/svg">
<path d="M55.0603 22.9895C53.9933 23.3132 53.0226 23.895 52.2342 24.6834C51.4457 25.4718 50.8639 26.4425 50.5403 27.5095C50.2207 26.442 49.6415 25.4703 48.8545 24.6815C48.0674 23.8927 47.0971 23.3114 46.0303 22.9895C47.0955 22.6677 48.0647 22.0876 48.8515 21.3008C49.6384 20.5139 50.2185 19.5447 50.5403 18.4795C50.8622 19.5463 51.4435 20.5166 52.2323 21.3037C53.0211 22.0908 53.9928 22.67 55.0603 22.9895Z" fill="white"/>
<path d="M116.88 41.8995C118.366 41.8995 119.57 40.6952 119.57 39.2095C119.57 37.7239 118.366 36.5195 116.88 36.5195C115.395 36.5195 114.19 37.7239 114.19 39.2095C114.19 40.6952 115.395 41.8995 116.88 41.8995Z" fill="white"/>
<path d="M196.45 15.6296C198.449 15.6296 200.07 14.0089 200.07 12.0096C200.07 10.0104 198.449 8.38965 196.45 8.38965C194.451 8.38965 192.83 10.0104 192.83 12.0096C192.83 14.0089 194.451 15.6296 196.45 15.6296Z" fill="white"/>
<path d="M43.4705 84.1102C42.6143 84.3663 41.8352 84.8311 41.2032 85.463C40.5713 86.0949 40.1065 86.874 39.8505 87.7302C39.5913 86.8757 39.1253 86.0983 38.4939 85.4668C37.8624 84.8354 37.085 84.3695 36.2305 84.1102C37.085 83.851 37.8624 83.3851 38.4939 82.7536C39.1253 82.1222 39.5913 81.3448 39.8505 80.4902C40.1065 81.3464 40.5713 82.1255 41.2032 82.7574C41.8352 83.3894 42.6143 83.8542 43.4705 84.1102Z" fill="white"/>
<path opacity="0.6" d="M144.731 96.29C144.198 96.4534 143.714 96.7449 143.32 97.1389C142.926 97.5329 142.634 98.0174 142.471 98.55C142.309 98.0181 142.019 97.5339 141.627 97.1399C141.235 96.7459 140.752 96.4541 140.221 96.29C140.753 96.1317 141.238 95.8431 141.631 95.4502C142.024 95.0573 142.312 94.5726 142.471 94.04C142.635 94.5713 142.927 95.0542 143.321 95.4464C143.715 95.8387 144.199 96.1284 144.731 96.29Z" fill="white"/>
<path opacity="0.6" d="M13.8303 2.88988C13.2991 3.05391 12.8162 3.34571 12.4239 3.73972C12.0316 4.13373 11.742 4.61792 11.5803 5.14988C11.4169 4.61721 11.1255 4.13269 10.7315 3.73871C10.3375 3.34473 9.85299 3.05329 9.32031 2.88988C9.85299 2.72648 10.3375 2.43504 10.7315 2.04105C11.1255 1.64707 11.4169 1.16256 11.5803 0.629883C11.7404 1.16266 12.0295 1.64768 12.422 2.04192C12.8145 2.43616 13.2982 2.72743 13.8303 2.88988Z" fill="white"/>
<path opacity="0.8" d="M68.4399 125.89C67.9056 126.05 67.4194 126.34 67.0249 126.735C66.6305 127.129 66.3401 127.616 66.1799 128.15C66.0197 127.616 65.7293 127.129 65.3349 126.735C64.9404 126.34 64.4542 126.05 63.9199 125.89C64.4526 125.726 64.9371 125.435 65.3311 125.041C65.7251 124.647 66.0165 124.163 66.1799 123.63C66.3433 124.163 66.6348 124.647 67.0287 125.041C67.4227 125.435 67.9072 125.726 68.4399 125.89Z" fill="white"/>
<path opacity="0.4" d="M238.72 116C238.338 116.113 237.99 116.321 237.708 116.604C237.427 116.887 237.221 117.236 237.11 117.62C236.997 117.236 236.789 116.887 236.506 116.604C236.223 116.321 235.874 116.113 235.49 116C235.872 115.885 236.22 115.679 236.502 115.398C236.785 115.117 236.994 114.771 237.11 114.39C237.225 114.77 237.432 115.116 237.713 115.397C237.994 115.678 238.34 115.885 238.72 116Z" fill="white"/>
<path opacity="0.4" d="M99.2905 79.7799C98.9112 79.8997 98.5665 80.1096 98.2861 80.3918C98.0057 80.6739 97.7979 81.0198 97.6805 81.3999C97.5645 81.0175 97.356 80.6696 97.0734 80.387C96.7909 80.1044 96.443 79.8959 96.0605 79.7799C96.4439 79.6689 96.7932 79.4633 97.0763 79.1819C97.3594 78.9006 97.5672 78.5526 97.6805 78.1699C97.7954 78.5502 98.0025 78.8961 98.2834 79.177C98.5643 79.4579 98.9103 79.665 99.2905 79.7799Z" fill="white"/>
<path opacity="0.4" d="M242.621 36.5198C243.51 36.5198 244.231 35.799 244.231 34.9098C244.231 34.0206 243.51 33.2998 242.621 33.2998C241.732 33.2998 241.011 34.0206 241.011 34.9098C241.011 35.799 241.732 36.5198 242.621 36.5198Z" fill="white"/>
<path opacity="0.4" d="M87.5104 18.8499C88.3996 18.8499 89.1204 18.1291 89.1204 17.2399C89.1204 16.3507 88.3996 15.6299 87.5104 15.6299C86.6212 15.6299 85.9004 16.3507 85.9004 17.2399C85.9004 18.1291 86.6212 18.8499 87.5104 18.8499Z" fill="white"/>
<path opacity="0.4" d="M3.30031 103.73C2.91694 103.841 2.56765 104.047 2.28456 104.328C2.00147 104.61 1.79369 104.958 1.68031 105.34C1.56543 104.96 1.35833 104.614 1.07744 104.333C0.796548 104.052 0.450575 103.845 0.0703125 103.73C0.452982 103.617 0.800997 103.409 1.08234 103.126C1.36368 102.843 1.56931 102.494 1.68031 102.11C1.79389 102.494 2.0016 102.843 2.28453 103.126C2.56746 103.409 2.91664 103.617 3.30031 103.73Z" fill="white"/>
<path opacity="0.4" d="M153.081 21.3795C152.7 21.4969 152.355 21.7047 152.072 21.9851C151.79 22.2655 151.58 22.6102 151.461 22.9895C151.346 22.6092 151.139 22.2633 150.858 21.9824C150.577 21.7015 150.231 21.4944 149.851 21.3795C150.235 21.2609 150.584 21.0477 150.866 20.7595C151.147 20.4712 151.351 20.1171 151.461 19.7295C151.575 20.1162 151.782 20.469 152.065 20.7567C152.347 21.0444 152.696 21.2583 153.081 21.3795Z" fill="white"/>
</svg>
