<svg width="351" height="216" viewBox="0 0 351 216" fill="none" xmlns="http://www.w3.org/2000/svg">
<path d="M193.32 95.4V101.08H202.48V106.36H193.32V112.52H203.68V118H186.48V89.92H203.68V95.4H193.32ZM199.56 84.28L189.92 88.32V83.6L199.56 78.96V84.28ZM228.321 89.92V95.4H220.881V118H214.041V95.4H206.601V89.92H228.321ZM238.593 95.4V101.08H247.753V106.36H238.593V112.52H248.953V118H231.753V89.92H248.953V95.4H238.593ZM260.234 89.92V118H253.394V89.92H260.234ZM290.311 118H283.471L272.031 100.68V118H265.191V89.92H272.031L283.471 107.32V89.92H290.311V118ZM315.469 89.92V95.4H308.029V118H301.189V95.4H293.749V89.92H315.469Z" fill="#20252C"/>
<path d="M128.5 197.64C199.469 197.64 257 192.572 257 186.32C257 180.068 199.469 175 128.5 175C57.5314 175 0 180.068 0 186.32C0 192.572 57.5314 197.64 128.5 197.64Z" fill="#436A4A"/>
<path d="M225.512 184.673L228.942 182.563L223.432 181.203L226.302 179.623C222.872 176.723 214.172 179.623 214.172 179.623C214.172 179.623 201.512 152.603 192.812 147.203C184.632 142.203 166.642 137.973 151.862 130.253C150.962 127.343 150.002 124.483 148.982 121.723C148.242 119.723 147.482 117.723 146.692 115.893C146.252 114.833 145.802 113.803 145.342 112.793C142.182 105.793 141.752 98.6029 142.642 91.4929C142.842 89.8429 143.122 88.1929 143.452 86.5629C146.632 70.5629 154.852 55.7729 151.272 46.9829C148.972 41.3283 145.903 36.0182 142.152 31.2029C136.152 23.6729 128.532 18.5029 120.462 21.2029C120.462 21.2029 80.4617 36.5929 64.6317 74.5729C48.8017 112.553 43.6317 172.293 51.9017 182.063C55.0317 185.763 70.5517 188.573 88.9017 190.063C105.197 191.461 121.57 191.722 137.902 190.843C156.712 191.743 190.982 187.543 191.772 187.543C192.562 187.543 207.332 191.763 211.292 191.373C215.252 190.983 226.592 189.653 226.592 189.653L225.272 188.333L227.912 186.413L225.512 184.673Z" fill="#263238"/>
<path opacity="0.2" d="M225.512 184.673L228.942 182.563L223.432 181.203L226.302 179.623C222.872 176.723 214.172 179.623 214.172 179.623C214.172 179.623 201.512 152.603 192.812 147.203C184.632 142.203 166.642 137.973 151.862 130.253C150.962 127.343 150.002 124.483 148.982 121.723C148.242 119.723 147.482 117.723 146.692 115.893C146.252 114.833 145.802 113.803 145.342 112.793C142.182 105.793 141.752 98.6029 142.642 91.4929C142.842 89.8429 143.122 88.1929 143.452 86.5629C146.632 70.5629 154.852 55.7729 151.272 46.9829C148.972 41.3283 145.903 36.0182 142.152 31.2029C136.152 23.6729 128.532 18.5029 120.462 21.2029C120.462 21.2029 80.4617 36.5929 64.6317 74.5729C48.8017 112.553 43.6317 172.293 51.9017 182.063C55.0317 185.763 70.5517 188.573 88.9017 190.063C105.197 191.461 121.57 191.722 137.902 190.843C156.712 191.743 190.982 187.543 191.772 187.543C192.562 187.543 207.332 191.763 211.292 191.373C215.252 190.983 226.592 189.653 226.592 189.653L225.272 188.333L227.912 186.413L225.512 184.673Z" fill="white"/>
<path opacity="0.2" d="M225.512 184.673L228.942 182.563L223.432 181.203L226.302 179.623C222.872 176.723 214.172 179.623 214.172 179.623C214.172 179.623 201.512 152.603 192.812 147.203C184.632 142.203 166.642 137.973 151.862 130.253C150.962 127.343 149.992 124.493 148.972 121.733L148.432 120.313C148.272 119.883 148.112 119.453 147.942 119.033C147.532 117.973 147.112 116.923 146.682 115.903C146.252 114.883 145.792 113.813 145.332 112.803C142.172 105.803 141.742 98.6131 142.632 91.5031C142.722 90.7531 142.832 89.9932 142.962 89.2432L143.022 88.8232C143.149 88.0765 143.289 87.3265 143.442 86.5732C146.642 70.5732 154.852 55.7931 151.272 47.0031C148.974 41.3415 145.905 36.0246 142.152 31.2032C129.422 26.4932 114.412 27.0432 114.412 27.0432C114.412 27.0432 120.132 58.5332 120.412 62.7332C121.172 74.2132 131.232 82.3831 131.232 82.3831V76.0832C131.652 76.7732 143.342 88.6832 133.232 100.713V95.9731C133.232 95.9731 126.132 108.823 116.432 112.383C116.432 112.383 115.642 106.253 109.702 99.7231C103.762 93.1931 99.8119 75.7931 100.412 69.0631C101.012 62.3331 78.7719 64.3632 73.2819 74.2032C73.2819 74.2032 67.2019 85.0432 72.1519 100.863L69.6419 97.5031C69.6419 97.5031 66.6419 107.403 81.6419 115.903C89.2919 120.233 98.1219 128.503 104.952 135.583C100.072 133.923 95.5019 132.833 93.1219 133.503C86.5219 135.353 69.6419 147.203 69.6419 147.203C69.6419 147.203 77.4819 169.793 88.8619 190.073C105.157 191.471 121.53 191.732 137.862 190.853C156.672 191.753 190.942 187.553 191.732 187.553C192.522 187.553 207.292 191.773 211.252 191.383C215.212 190.993 226.552 189.663 226.552 189.663L225.232 188.343L227.872 186.423L225.512 184.673Z" fill="black"/>
<path d="M146.512 17.7835C146.512 17.7835 150.512 11.9335 154.652 13.7835C158.792 15.6335 157.572 22.3535 153.502 25.2735C149.432 28.1935 146.512 17.7835 146.512 17.7835Z" fill="#263238"/>
<path opacity="0.1" d="M146.512 17.7835C146.512 17.7835 150.512 11.9335 154.652 13.7835C158.792 15.6335 157.572 22.3535 153.502 25.2735C149.432 28.1935 146.512 17.7835 146.512 17.7835Z" fill="white"/>
<path opacity="0.2" d="M154.152 17.3328C152.242 16.7128 149.542 19.6227 149.542 19.6227C150.629 20.9623 151.925 22.1172 153.382 23.0427C155.272 20.7327 156.062 17.9428 154.152 17.3328Z" fill="white"/>
<path d="M172.112 65.7333C172.112 68.2833 160.412 74.1033 157.862 74.1733C155.312 74.2433 143.362 64.2832 143.362 64.2832C143.362 64.2832 131.892 59.2233 123.182 52.4533C114.472 45.6833 109.632 28.8733 114.052 24.1433C117.512 20.4533 144.552 13.2733 146.922 16.8233C149.292 20.3733 165.022 32.0832 166.302 35.0032C167.062 36.7232 164.302 48.8532 164.302 48.8532C164.302 48.8532 164.372 48.9833 164.402 49.0533C164.436 49.1112 164.466 49.1713 164.492 49.2333C164.521 49.2732 164.544 49.3169 164.562 49.3633C165.932 52.0433 172.082 64.3733 172.112 65.7333Z" fill="#263238"/>
<path opacity="0.2" d="M172.112 65.7333C172.112 68.2833 160.412 74.1033 157.862 74.1733C155.312 74.2433 143.362 64.2832 143.362 64.2832C143.362 64.2832 131.892 59.2233 123.182 52.4533C114.472 45.6833 109.632 28.8733 114.052 24.1433C117.512 20.4533 144.552 13.2733 146.922 16.8233C149.292 20.3733 165.022 32.0832 166.302 35.0032C167.062 36.7232 164.302 48.8532 164.302 48.8532C164.302 48.8532 164.372 48.9833 164.402 49.0533C164.436 49.1112 164.466 49.1713 164.492 49.2333C164.521 49.2732 164.544 49.3169 164.562 49.3633C165.932 52.0433 172.082 64.3733 172.112 65.7333Z" fill="white"/>
<path opacity="0.2" d="M172.112 65.733C172.112 68.283 160.412 74.103 157.862 74.173C155.312 74.243 143.362 64.283 143.362 64.283C143.362 64.283 154.832 55.843 157.862 49.903C160.892 43.963 161.862 43.783 164.332 48.853C164.332 48.923 164.402 48.983 164.432 49.053L164.522 49.233C164.551 49.2729 164.575 49.3166 164.592 49.363C165.932 52.043 172.082 64.373 172.112 65.733Z" fill="white"/>
<path d="M151.832 48.5434C151.602 49.6434 150.832 50.4134 150.092 50.2534C149.352 50.0934 148.962 49.0834 149.192 47.9734C149.422 46.8634 150.192 46.1034 150.942 46.2634C151.692 46.4234 152.072 47.4334 151.832 48.5434Z" fill="#263238"/>
<path d="M164.712 45.2834C164.522 46.1934 164.162 46.8834 163.922 46.8334C163.682 46.7834 163.632 46.0034 163.832 45.0934C164.032 44.1834 164.372 43.4934 164.622 43.5534C164.872 43.6134 164.942 44.3834 164.712 45.2834Z" fill="#263238"/>
<path d="M171.772 64.593C171.652 64.433 167.262 66.453 164.312 66.063C161.362 65.673 162.632 68.653 166.692 70.473C166.712 70.473 173.882 67.203 171.772 64.593Z" fill="#263238"/>
<path d="M136.022 22.3132C136.022 22.3132 136.712 16.7132 132.442 13.1232C128.172 9.53322 120.732 14.5732 124.132 27.8932C124.132 27.8932 125.692 29.2532 127.452 26.8932C129.212 24.5332 134.832 27.0932 136.022 22.3132Z" fill="#263238"/>
<path opacity="0.1" d="M136.022 22.3132C136.022 22.3132 136.712 16.7132 132.442 13.1232C128.172 9.53322 120.732 14.5732 124.132 27.8932C124.132 27.8932 125.692 29.2532 127.452 26.8932C129.212 24.5332 134.832 27.0932 136.022 22.3132Z" fill="white"/>
<path opacity="0.2" d="M131.472 23.6432C131.472 23.6432 132.052 19.1632 129.952 17.4332C127.852 15.7032 124.952 19.5232 126.832 25.2232C126.832 25.2232 128.672 23.3532 130.002 24.0732L128.712 22.8332C128.712 22.8332 130.082 21.9932 131.472 23.6432Z" fill="white"/>
<path d="M78.9314 60.9528C70.2314 72.2528 67.2214 97.2028 71.7114 104.413C76.2014 111.623 104.061 122.313 104.061 122.313C104.061 122.313 105.131 132.423 107.161 135.043L108.461 132.043L110.531 137.683C113.091 135.683 112.611 131.283 112.611 131.283L114.391 136.443C117.161 134.023 116.011 129.653 116.011 129.653L117.831 133.343C117.831 133.343 119.211 129.213 117.831 125.773C116.451 122.333 109.501 110.623 109.501 110.623L99.2514 98.7028C99.2514 98.7028 112.541 78.8328 112.611 65.1328C112.681 51.4328 89.6014 47.0928 78.9314 60.9528Z" fill="#263238"/>
<path opacity="0.2" d="M78.9314 60.9528C70.2314 72.2528 67.2214 97.2028 71.7114 104.413C76.2014 111.623 104.061 122.313 104.061 122.313C104.061 122.313 105.131 132.423 107.161 135.043L108.461 132.043L110.531 137.683C113.091 135.683 112.611 131.283 112.611 131.283L114.391 136.443C117.161 134.023 116.011 129.653 116.011 129.653L117.831 133.343C117.831 133.343 119.211 129.213 117.831 125.773C116.451 122.333 109.501 110.623 109.501 110.623L99.2514 98.7028C99.2514 98.7028 112.541 78.8328 112.611 65.1328C112.681 51.4328 89.6014 47.0928 78.9314 60.9528Z" fill="white"/>
<path d="M147.472 71.8428C146.997 78.4707 148.31 85.1045 151.272 91.0528C156.152 100.283 163.012 110.833 164.062 119.273C164.593 125.025 164.137 130.825 162.712 136.423C162.812 141.823 161.662 143.533 161.662 143.533L159.962 141.393L158.962 145.643L157.302 142.203L156.102 145.633C155.165 144.399 154.597 142.926 154.462 141.383L153.552 144.383C152.825 143.436 152.299 142.351 152.005 141.194C151.711 140.037 151.655 138.832 151.842 137.653C152.358 135.487 153.245 133.427 154.462 131.563C154.462 131.563 147.912 130.933 143.752 125.853C137.822 118.633 136.952 87.4528 147.472 71.8428Z" fill="#263238"/>
<path opacity="0.2" d="M147.472 71.8428C146.997 78.4707 148.31 85.1045 151.272 91.0528C156.152 100.283 163.012 110.833 164.062 119.273C164.593 125.025 164.137 130.825 162.712 136.423C162.812 141.823 161.662 143.533 161.662 143.533L159.962 141.393L158.962 145.643L157.302 142.203L156.102 145.633C155.165 144.399 154.597 142.926 154.462 141.383L153.552 144.383C152.825 143.436 152.299 142.351 152.005 141.194C151.711 140.037 151.655 138.832 151.842 137.653C152.358 135.487 153.245 133.427 154.462 131.563C154.462 131.563 147.912 130.933 143.752 125.853C137.822 118.633 136.952 87.4528 147.472 71.8428Z" fill="white"/>
<path d="M58.5716 156.553C65.5716 140.423 81.9016 137.993 91.5716 145.383C101.242 152.773 115.312 168.383 118.412 173.053C121.284 177.446 124.451 181.639 127.892 185.603H137.732L147.282 187.603L143.962 188.513L149.072 190.913L142.702 191.413L147.442 194.413H141.532L144.752 196.353H136.822C136.822 196.353 127.722 198.673 124.982 196.803C122.242 194.933 112.152 191.423 112.152 191.423C112.152 191.423 91.0216 198.833 54.7416 183.973C54.7716 183.973 52.7616 169.833 58.5716 156.553Z" fill="#263238"/>
<path opacity="0.2" d="M58.5716 156.553C65.5716 140.423 81.9016 137.993 91.5716 145.383C101.242 152.773 115.312 168.383 118.412 173.053C121.284 177.446 124.451 181.639 127.892 185.603H137.732L147.282 187.603L143.962 188.513L149.072 190.913L142.702 191.413L147.442 194.413H141.532L144.752 196.353H136.822C136.822 196.353 127.722 198.673 124.982 196.803C122.242 194.933 112.152 191.423 112.152 191.423C112.152 191.423 91.0216 198.833 54.7416 183.973C54.7716 183.973 52.7616 169.833 58.5716 156.553Z" fill="white"/>
<path d="M46 5L250 211" stroke="#FF725E" stroke-width="10" stroke-linecap="round"/>
</svg>
