<svg width="1431" height="145" viewBox="0 0 1431 145" fill="none" xmlns="http://www.w3.org/2000/svg">
<g clip-path="url(#clip0_172_43)">
<rect width="1431" height="145" fill="white"/>
<rect x="-61" y="-57" width="1556" height="199" fill="#6CAE7E"/>
<path d="M184.447 54.8647C111.987 16.4124 29.2906 80.5663 -3 117.45V158.5H1437V117.45C1425.7 101.428 1392.63 69.3835 1350.78 69.3835C1298.47 69.3835 1264.87 117.45 1168 117.45C1071.13 117.45 1100.85 69.3835 982.187 54.8647C863.519 40.3459 826.707 117.45 732.257 117.45C637.807 117.45 634.62 43.7433 527.5 68.5C415 94.5 447.938 98.423 361.723 117.45C275.507 136.477 275.022 102.93 184.447 54.8647Z" fill="#447752"/>
<path d="M80.0281 12.1185C82.1718 13.1767 84.0591 14.6201 85.5764 16.3617C87.0937 18.1033 88.2097 20.1072 88.8572 22.2529C90.1606 26.5719 90.352 31.1077 89.4164 35.5055C87.9154 44.0001 82.147 52.414 76.0549 59C68.4913 52.3602 67.2258 41.3119 67.0197 35.6668C66.6371 26.769 71.8464 10.4518 79.9692 12.1185" fill="#455A64"/>
<path d="M84.1768 72.9928C83.7624 70.5355 84.0796 68.0238 85.0965 65.7119C86.1134 63.3999 87.7938 61.3699 89.9674 59.8275C92.1707 58.3238 94.6855 57.2276 97.3654 56.6029C100.045 55.9781 102.837 55.8372 105.578 56.1882C106.857 56.2181 108.112 56.5026 109.253 57.0209C110.394 57.5393 111.392 58.2786 112.175 59.1853C112.75 60.1266 113.034 61.1886 112.997 62.2612C112.96 63.3339 112.604 64.3784 111.966 65.2863C110.65 67.0872 108.828 68.5454 106.683 69.5142C99.5489 73.1266 91.7584 75.4279 84.1768 72.9928Z" fill="#455A64"/>
<path d="M73 99C73.0565 98.4166 73.1747 97.8393 73.3529 97.2761C73.6765 96.0826 74.0882 94.624 74.5588 92.6349C75.7249 87.4521 77.8105 82.4729 80.7353 77.8892C83.7307 73.3391 88.0011 69.5799 93.1177 66.9891C94.6977 66.2483 96.365 65.6701 98.0883 65.2652C98.5526 65.1519 99.0241 65.0633 99.5 65C99.8236 65 100 65 100 65C97.6955 65.5892 95.4672 66.3983 93.3529 67.4134C88.3488 70.0503 84.1614 73.7806 81.1765 78.2605C78.3083 82.792 76.1973 87.6804 74.9117 92.7675C74.3235 94.7036 73.8529 96.2948 73.5 97.3822C73.381 97.9325 73.2138 98.4735 73 99Z" fill="#263238"/>
<path d="M76.9685 25C77.0105 25.2498 77.0105 25.5048 76.9685 25.7546C76.9685 26.3206 76.9685 27.0752 76.9685 27.9646C76.9685 29.905 76.9685 32.6809 76.9685 36.0497C76.9685 42.922 76.5932 52.4355 76.0301 63C75.4669 73.5645 74.7966 82.9702 74.1798 89.9503C73.8849 93.373 73.6167 96.1489 73.4022 98.0354C73.4022 98.9248 73.2145 99.6525 73.134 100.245C73.1254 100.502 73.0802 100.756 73 101C73 101 73 100.73 73 100.218C73 99.7064 73 98.9248 73.134 98.0085C73.2681 96.0141 73.4558 93.2652 73.6971 89.9234C74.2066 83.078 74.8502 73.5915 75.3864 63.1078C75.9227 52.6241 76.2714 43.1376 76.5127 36.1575C76.5127 32.7617 76.7004 30.0128 76.754 28.0724C76.754 27.183 76.754 26.4284 76.754 25.8624C76.754 25.2965 76.9685 25 76.9685 25Z" fill="#263238"/>
<path d="M71 78.1733C70.2857 72.998 68.1987 68.0499 64.9124 63.7407C61.6261 59.4314 57.2356 55.8856 52.1061 53.3983C49.5093 52.1448 46.1364 51.2381 43.7784 52.9183C41.4204 54.5984 41.7786 57.8252 42.7337 60.3321C44.8061 65.5613 48.5656 70.125 53.5377 73.4473C58.5098 76.7696 64.4719 78.7018 70.6717 79" fill="#455A64"/>
<path d="M53.0011 61C53.583 61.1742 54.1375 61.4161 54.6505 61.7197C55.1806 61.9863 55.799 62.2796 56.5058 62.7061C57.2127 63.1326 58.0079 63.5857 58.8325 64.1988C59.7611 64.8147 60.6464 65.4824 61.4831 66.1981C62.5243 66.9836 63.5081 67.8295 64.4283 68.7304C66.4586 70.7773 68.2179 73.0317 69.6706 75.4479C71.0787 77.8863 72.1755 80.4618 72.9398 83.1249C73.2738 84.2811 73.5198 85.4568 73.6761 86.6435C73.8634 87.6751 73.9716 88.7173 74 89.7624C74 90.722 74 91.575 74 92.428C73.995 93.0798 73.936 93.7302 73.8233 94.3739C73.7872 94.9237 73.6885 95.4686 73.5288 96C73.3815 96 73.7644 93.6275 73.5288 89.869C73.4535 88.8411 73.3159 87.8177 73.1165 86.8035C72.9692 85.7106 72.6452 84.5644 72.3507 83.3382C71.5581 80.7348 70.4623 78.2149 69.0817 75.821C67.5995 73.382 65.832 71.0942 63.8098 68.997C62.9714 68.0562 62.0662 67.1658 61.1002 66.3313C60.2926 65.6093 59.437 64.9327 58.538 64.3054C55.2689 62.1995 52.9422 61 53.0011 61Z" fill="#263238"/>
<path d="M1487.88 154.966L1476.41 162.836L1482.93 151.594C1479.98 149.545 1476.95 147.484 1473.82 145.41L1462.62 158.302L1469.44 142.375C1466.37 140.389 1463.29 138.44 1460.11 136.492L1449.95 156.503L1455.61 133.831C1454.08 132.894 1452.5 131.995 1450.93 131.095L1439.05 157.028L1446.28 128.472C1441.6 125.886 1436.76 123.376 1431.82 120.977C1425.18 130.646 1412.48 148.933 1412.48 148.933L1422.22 116.48C1412.57 112.133 1402.7 108.293 1392.66 104.976L1378.08 144.249L1384.19 102.09C1375.79 99.5921 1367.05 97.3436 1357.95 95.345L1343.38 141.85L1347.65 93.3589L1341.47 92.3096L1334.5 141.85L1330.04 90.8481C1318.79 89.4615 1307.06 88.5247 1294.7 88.1874L1287.2 138.14L1283.91 88H1275.44L1275.02 137.916L1266.85 88.2623H1263.11C1256.14 88.5621 1249.43 89.0119 1242.83 89.4991L1233.76 150.994V90.2485L1225.93 90.9605L1221.21 150.807L1214.84 92.3096C1202.85 93.6962 1191.57 95.345 1180.89 97.2187L1173.77 152.568L1168.67 99.4671L1162.6 100.741L1164.89 152.156L1151.85 103.14C1142.55 105.313 1133.82 107.674 1125.61 110.11L1130.11 152.755L1117.22 112.733C1106.24 116.293 1096.35 120.04 1087.24 123.975L1095.37 156.016C1095.37 156.016 1084.13 138.29 1077.83 128.172C1072.44 130.683 1067.42 133.231 1062.84 135.667L1068.5 162.948L1058.42 138.14L1053.36 141.101L1057.9 162.049L1049.58 143.724C1046.13 145.898 1042.98 147.996 1040.17 150.02L1045.16 163.286L1036.58 152.643C1032.83 155.379 1029.87 157.889 1027.28 160.138L1031.03 167.295L1024.7 162.536C1022.7 164.337 1020.8 166.239 1019 168.232L1019.41 168.869H1265.47L1508.26 170.256C1501.74 165.159 1494.95 160.063 1487.88 154.966Z" fill="#49935D"/>
<path d="M290.877 169.966L279.41 177.836L285.93 166.594C282.982 164.545 279.947 162.484 276.824 160.41L265.619 173.302L272.44 157.375C269.367 155.389 266.294 153.44 263.109 151.492L252.953 171.503L258.612 148.831C257.075 147.894 255.501 146.995 253.928 146.095L242.048 172.028L249.281 143.472C244.596 140.886 239.762 138.376 234.816 135.977C228.183 145.646 215.479 163.933 215.479 163.933L225.222 131.48C215.574 127.133 205.705 123.293 195.655 119.976L181.078 159.249L187.186 117.09C178.792 114.592 170.048 112.344 160.954 110.345L146.377 156.85L150.649 108.359L144.465 107.31L137.495 156.85L133.036 105.848C121.794 104.462 110.064 103.525 97.6976 103.187L90.2028 153.14L86.905 103H78.4359L78.0237 152.916L69.8543 103.262H66.1069C59.1367 103.562 52.4288 104.012 45.8333 104.499L36.7646 165.994V105.248L28.9324 105.96L24.2107 165.807L17.8401 107.31C5.84835 108.696 -5.43137 110.345 -16.1115 112.219L-23.2316 167.568L-28.3281 114.467L-34.3989 115.741L-32.113 167.156L-45.154 118.14C-54.4476 120.313 -63.1791 122.674 -71.3859 125.11L-66.889 167.755L-79.7801 127.733C-90.7601 131.293 -100.653 135.04 -109.759 138.975L-101.628 171.016C-101.628 171.016 -112.87 153.29 -119.166 143.172C-124.562 145.683 -129.583 148.231 -134.155 150.667L-128.497 177.948L-138.577 153.14L-143.636 156.101L-139.102 177.049L-147.421 158.724C-150.869 160.898 -154.017 162.996 -156.827 165.02L-151.843 178.286L-160.425 167.643C-164.172 170.379 -167.132 172.889 -169.718 175.138L-165.971 182.295L-172.304 177.536C-174.298 179.337 -176.199 181.239 -178 183.232L-177.588 183.869H68.4677L311.263 185.256C304.742 180.159 297.947 175.063 290.877 169.966Z" fill="#49935D"/>
<path d="M1009.93 0.00175809C1012.63 0.820853 1015.13 2.1755 1017.3 3.98476C1019.46 5.79402 1021.24 8.02077 1022.52 10.532C1024.98 15.6026 1026.26 21.1617 1026.27 26.7958C1026.02 38.1392 1022.81 49.2215 1016.97 58.9487C1006.78 52.4657 1002.62 39.0499 1000.93 32.1172C998.274 21.1747 1000.15 -0.223087 1009.74 0.00175809" fill="#455A64"/>
<path d="M1030.31 75.0268C1029.23 72.0611 1028.95 68.8597 1029.51 65.7514C1030.07 62.643 1031.45 59.7396 1033.5 57.339C1035.58 54.9735 1038.1 53.0458 1040.94 51.6688C1043.77 50.2919 1046.84 49.4932 1049.99 49.3195C1051.43 49.0846 1052.9 49.1639 1054.3 49.5521C1055.7 49.9403 1057.01 50.628 1058.12 51.568C1058.98 52.5901 1059.55 53.8241 1059.78 55.1419C1060 56.4597 1059.87 57.8134 1059.39 59.0628C1058.38 61.6004 1056.71 63.8243 1054.56 65.5084C1047.51 71.5792 1039.57 76.1885 1030.31 74.8769" fill="#455A64"/>
<path d="M1023.76 109.764C1023.67 109.017 1023.67 108.262 1023.76 107.515C1023.76 105.941 1023.76 103.768 1023.76 101.407C1023.78 94.6424 1024.88 87.9247 1027.02 81.508C1029.3 74.9953 1033.3 69.2206 1038.6 64.7945C1040.18 63.4837 1041.91 62.3758 1043.77 61.4968C1044.4 61.1595 1044.97 60.9722 1045.3 60.8223H1045.87C1043.41 62.0857 1041.1 63.6056 1038.97 65.3566C1033.89 69.7663 1030.02 75.404 1027.73 81.7328C1025.6 88.082 1024.44 94.7135 1024.28 101.407C1024.28 103.992 1023.98 106.054 1023.87 107.515C1023.88 108.266 1023.85 109.018 1023.76 109.764Z" fill="#263238"/>
<path d="M1009.97 16.4141C1009.97 16.4141 1009.97 16.7513 1010.23 17.3509L1010.79 20.0866C1011.28 22.4849 1011.95 25.9325 1012.74 30.2045C1014.31 38.7112 1016.49 50.5531 1018.25 63.6316C1020.01 76.71 1021.66 88.6268 1022.63 97.3583C1023.08 101.668 1023.46 105.19 1023.68 107.589L1023.91 110.362C1023.96 110.685 1023.96 111.013 1023.91 111.336C1023.91 111.336 1023.91 111.036 1023.91 110.399C1023.91 109.762 1023.72 108.75 1023.53 107.626C1023.23 105.115 1022.78 101.668 1022.26 97.4332C1021.17 88.8142 1019.6 76.9349 1017.69 63.7065C1015.77 50.4781 1013.94 38.7862 1012.36 30.242C1011.69 26.0449 1011.09 22.7472 1010.68 20.124L1010.23 17.3509C1010.1 17.0514 1010.01 16.7364 1009.97 16.4141Z" fill="#263238"/>
<path d="M1015.74 83.9065C1013.66 77.5918 1010.1 71.8623 1005.37 67.1905C1000.64 62.5188 994.87 59.0387 988.53 57.0375C987.001 56.3169 985.295 56.0539 983.62 56.2799C981.945 56.506 980.37 57.2115 979.086 58.3116C978.267 59.789 977.898 61.4739 978.024 63.1586C978.151 64.8433 978.768 66.4541 979.798 67.7925C983.416 73.8549 988.752 78.7076 995.129 81.7361C1001.51 84.7647 1008.64 85.833 1015.62 84.8058" fill="#455A64"/>
<path d="M991.528 66.9316C992.217 67.0608 992.894 67.2488 993.551 67.4937C994.355 67.7194 995.143 67.9948 995.912 68.3182C996.934 68.7017 997.935 69.1396 998.91 69.6298C999.997 70.1544 1001.2 70.754 1002.43 71.5035C1003.67 72.253 1004.91 73.1149 1006.18 74.0517C1008.94 76.1645 1011.45 78.5778 1013.68 81.2468C1015.89 83.9636 1017.78 86.932 1019.3 90.0907C1019.96 91.4658 1020.53 92.88 1021.02 94.3253C1021.48 95.5503 1021.87 96.8017 1022.18 98.0727C1022.52 99.2719 1022.63 100.359 1022.82 101.295C1023.01 102.232 1023.04 103.094 1023.12 103.769C1023.18 104.467 1023.18 105.169 1023.12 105.867C1022.93 105.867 1022.78 102.869 1021.54 98.3724C1021.21 97.1038 1020.81 95.8531 1020.35 94.625C1019.83 93.22 1019.25 91.8439 1018.58 90.5028C1017.06 87.416 1015.18 84.5121 1013 81.8463C1010.75 79.2111 1008.24 76.8128 1005.51 74.6888C1004.19 73.752 1002.99 72.8525 1001.76 72.1405C1000.66 71.4228 999.523 70.7721 998.348 70.1919C994.376 67.9434 991.453 67.119 991.528 66.9316Z" fill="#263238"/>
</g>
<defs>
<clipPath id="clip0_172_43">
<rect width="1431" height="145" fill="white"/>
</clipPath>
</defs>
</svg>
