<svg width="1440" height="202" viewBox="0 0 1440 202" fill="none" xmlns="http://www.w3.org/2000/svg">
<g clip-path="url(#clip0_172_43)">
<rect width="1440" height="202" fill="white"/>
<rect x="-58" width="1556" height="199" fill="#6CAE7E"/>
<path d="M187.447 111.865C114.987 73.4124 32.2906 137.566 0 174.45V215.5H1440V174.45C1428.7 158.428 1395.63 126.384 1353.78 126.384C1301.47 126.384 1267.87 174.45 1171 174.45C1074.13 174.45 1103.85 126.384 985.187 111.865C866.519 97.3459 829.707 174.45 735.257 174.45C640.807 174.45 637.62 100.743 530.5 125.5C418 151.5 450.938 155.423 364.723 174.45C278.507 193.477 278.022 159.93 187.447 111.865Z" fill="#447752"/>
<path d="M83.0281 69.1185C85.1718 70.1767 87.0591 71.6201 88.5764 73.3617C90.0937 75.1033 91.2097 77.1072 91.8572 79.2529C93.1606 83.5719 93.352 88.1077 92.4164 92.5055C90.9154 101 85.147 109.414 79.0549 116C71.4913 109.36 70.2258 98.3119 70.0197 92.6668C69.6371 83.769 74.8464 67.4518 82.9692 69.1185" fill="#455A64"/>
<path d="M87.1768 129.993C86.7624 127.536 87.0796 125.024 88.0965 122.712C89.1134 120.4 90.7938 118.37 92.9674 116.827C95.1707 115.324 97.6855 114.228 100.365 113.603C103.045 112.978 105.837 112.837 108.578 113.188C109.857 113.218 111.112 113.503 112.253 114.021C113.394 114.539 114.392 115.279 115.175 116.185C115.75 117.127 116.034 118.189 115.997 119.261C115.96 120.334 115.604 121.378 114.966 122.286C113.65 124.087 111.828 125.545 109.683 126.514C102.549 130.127 94.7584 132.428 87.1768 129.993Z" fill="#455A64"/>
<path d="M76 156C76.0565 155.417 76.1747 154.839 76.3529 154.276C76.6765 153.083 77.0882 151.624 77.5588 149.635C78.7249 144.452 80.8105 139.473 83.7353 134.889C86.7307 130.339 91.0011 126.58 96.1177 123.989C97.6977 123.248 99.365 122.67 101.088 122.265C101.553 122.152 102.024 122.063 102.5 122C102.824 122 103 122 103 122C100.696 122.589 98.4672 123.398 96.3529 124.413C91.3488 127.05 87.1614 130.781 84.1765 135.261C81.3083 139.792 79.1973 144.68 77.9117 149.768C77.3235 151.704 76.8529 153.295 76.5 154.382C76.381 154.933 76.2138 155.474 76 156Z" fill="#263238"/>
<path d="M79.9685 82C80.0105 82.2498 80.0105 82.5048 79.9685 82.7546C79.9685 83.3206 79.9685 84.0752 79.9685 84.9646C79.9685 86.905 79.9685 89.6809 79.9685 93.0497C79.9685 99.922 79.5932 109.435 79.0301 120C78.4669 130.565 77.7966 139.97 77.1798 146.95C76.8849 150.373 76.6167 153.149 76.4022 155.035C76.4022 155.925 76.2145 156.652 76.134 157.245C76.1254 157.502 76.0802 157.756 76 158C76 158 76 157.73 76 157.218C76 156.706 76 155.925 76.134 155.008C76.2681 153.014 76.4558 150.265 76.6971 146.923C77.2066 140.078 77.8502 130.592 78.3864 120.108C78.9227 109.624 79.2714 100.138 79.5127 93.1575C79.5127 89.7617 79.7004 87.0128 79.754 85.0724C79.754 84.183 79.754 83.4284 79.754 82.8624C79.754 82.2965 79.9685 82 79.9685 82Z" fill="#263238"/>
<path d="M74 135.173C73.2857 129.998 71.1987 125.05 67.9124 120.741C64.6261 116.431 60.2356 112.886 55.1061 110.398C52.5093 109.145 49.1364 108.238 46.7784 109.918C44.4204 111.598 44.7786 114.825 45.7337 117.332C47.8061 122.561 51.5656 127.125 56.5377 130.447C61.5098 133.77 67.4719 135.702 73.6717 136" fill="#455A64"/>
<path d="M56.0011 118C56.583 118.174 57.1375 118.416 57.6505 118.72C58.1806 118.986 58.799 119.28 59.5058 119.706C60.2127 120.133 61.0079 120.586 61.8325 121.199C62.7611 121.815 63.6464 122.482 64.4831 123.198C65.5243 123.984 66.5081 124.829 67.4283 125.73C69.4586 127.777 71.2179 130.032 72.6706 132.448C74.0787 134.886 75.1755 137.462 75.9398 140.125C76.2738 141.281 76.5198 142.457 76.6761 143.644C76.8634 144.675 76.9716 145.717 77 146.762C77 147.722 77 148.575 77 149.428C76.995 150.08 76.936 150.73 76.8233 151.374C76.7872 151.924 76.6885 152.469 76.5288 153C76.3815 153 76.7644 150.628 76.5288 146.869C76.4535 145.841 76.3159 144.818 76.1165 143.803C75.9692 142.711 75.6452 141.564 75.3507 140.338C74.5581 137.735 73.4623 135.215 72.0817 132.821C70.5995 130.382 68.832 128.094 66.8098 125.997C65.9714 125.056 65.0662 124.166 64.1002 123.331C63.2926 122.609 62.437 121.933 61.538 121.305C58.2689 119.2 55.9422 118 56.0011 118Z" fill="#263238"/>
<path d="M1490.88 211.966L1479.41 219.836L1485.93 208.594C1482.98 206.545 1479.95 204.484 1476.82 202.41L1465.62 215.302L1472.44 199.375C1469.37 197.389 1466.29 195.44 1463.11 193.492L1452.95 213.503L1458.61 190.831C1457.08 189.894 1455.5 188.995 1453.93 188.095L1442.05 214.028L1449.28 185.472C1444.6 182.886 1439.76 180.376 1434.82 177.977C1428.18 187.646 1415.48 205.933 1415.48 205.933L1425.22 173.48C1415.57 169.133 1405.7 165.293 1395.66 161.976L1381.08 201.249L1387.19 159.09C1378.79 156.592 1370.05 154.344 1360.95 152.345L1346.38 198.85L1350.65 150.359L1344.47 149.31L1337.5 198.85L1333.04 147.848C1321.79 146.462 1310.06 145.525 1297.7 145.187L1290.2 195.14L1286.91 145H1278.44L1278.02 194.916L1269.85 145.262H1266.11C1259.14 145.562 1252.43 146.012 1245.83 146.499L1236.76 207.994V147.248L1228.93 147.96L1224.21 207.807L1217.84 149.31C1205.85 150.696 1194.57 152.345 1183.89 154.219L1176.77 209.568L1171.67 156.467L1165.6 157.741L1167.89 209.156L1154.85 160.14C1145.55 162.313 1136.82 164.674 1128.61 167.11L1133.11 209.755L1120.22 169.733C1109.24 173.293 1099.35 177.04 1090.24 180.975L1098.37 213.016C1098.37 213.016 1087.13 195.29 1080.83 185.172C1075.44 187.683 1070.42 190.231 1065.84 192.667L1071.5 219.948L1061.42 195.14L1056.36 198.101L1060.9 219.049L1052.58 200.724C1049.13 202.898 1045.98 204.996 1043.17 207.02L1048.16 220.286L1039.58 209.643C1035.83 212.379 1032.87 214.889 1030.28 217.138L1034.03 224.295L1027.7 219.536C1025.7 221.337 1023.8 223.239 1022 225.232L1022.41 225.869H1268.47L1511.26 227.256C1504.74 222.159 1497.95 217.063 1490.88 211.966Z" fill="#49935D"/>
<path d="M293.877 226.966L282.41 234.836L288.93 223.594C285.982 221.545 282.947 219.484 279.824 217.41L268.619 230.302L275.44 214.375C272.367 212.389 269.294 210.44 266.109 208.492L255.953 228.503L261.612 205.831C260.075 204.894 258.501 203.995 256.928 203.095L245.048 229.028L252.281 200.472C247.596 197.886 242.762 195.376 237.816 192.977C231.183 202.646 218.479 220.933 218.479 220.933L228.222 188.48C218.574 184.133 208.705 180.293 198.655 176.976L184.078 216.249L190.186 174.09C181.792 171.592 173.048 169.344 163.954 167.345L149.377 213.85L153.649 165.359L147.465 164.31L140.495 213.85L136.036 162.848C124.794 161.462 113.064 160.525 100.698 160.187L93.2028 210.14L89.905 160H81.4359L81.0237 209.916L72.8543 160.262H69.1069C62.1367 160.562 55.4288 161.012 48.8333 161.499L39.7646 222.994V162.248L31.9324 162.96L27.2107 222.807L20.8401 164.31C8.84835 165.696 -2.43137 167.345 -13.1115 169.219L-20.2316 224.568L-25.3281 171.467L-31.3989 172.741L-29.113 224.156L-42.154 175.14C-51.4476 177.313 -60.1791 179.674 -68.3859 182.11L-63.889 224.755L-76.7801 184.733C-87.7601 188.293 -97.6533 192.04 -106.759 195.975L-98.6276 228.016C-98.6276 228.016 -109.87 210.29 -116.166 200.172C-121.562 202.683 -126.583 205.231 -131.155 207.667L-125.497 234.948L-135.577 210.14L-140.636 213.101L-136.102 234.049L-144.421 215.724C-147.869 217.898 -151.017 219.996 -153.827 222.02L-148.843 235.286L-157.425 224.643C-161.172 227.379 -164.132 229.889 -166.718 232.138L-162.971 239.295L-169.304 234.536C-171.298 236.337 -173.199 238.239 -175 240.232L-174.588 240.869H71.4677L314.263 242.256C307.742 237.159 300.947 232.063 293.877 226.966Z" fill="#49935D"/>
<path d="M1012.93 57.0018C1015.63 57.8209 1018.13 59.1755 1020.3 60.9848C1022.46 62.794 1024.24 65.0208 1025.52 67.532C1027.98 72.6026 1029.26 78.1617 1029.27 83.7958C1029.02 95.1392 1025.81 106.222 1019.97 115.949C1009.78 109.466 1005.62 96.0499 1003.93 89.1172C1001.27 78.1747 1003.15 56.7769 1012.74 57.0018" fill="#455A64"/>
<path d="M1033.31 132.027C1032.23 129.061 1031.95 125.86 1032.51 122.751C1033.07 119.643 1034.45 116.74 1036.5 114.339C1038.58 111.973 1041.1 110.046 1043.94 108.669C1046.77 107.292 1049.84 106.493 1052.99 106.319C1054.43 106.085 1055.9 106.164 1057.3 106.552C1058.7 106.94 1060.01 107.628 1061.12 108.568C1061.98 109.59 1062.55 110.824 1062.78 112.142C1063 113.46 1062.87 114.813 1062.39 116.063C1061.38 118.6 1059.71 120.824 1057.56 122.508C1050.51 128.579 1042.57 133.189 1033.31 131.877" fill="#455A64"/>
<path d="M1026.76 166.764C1026.67 166.017 1026.67 165.262 1026.76 164.515C1026.76 162.941 1026.76 160.768 1026.76 158.407C1026.78 151.642 1027.88 144.925 1030.02 138.508C1032.3 131.995 1036.3 126.221 1041.6 121.795C1043.18 120.484 1044.91 119.376 1046.77 118.497C1047.4 118.16 1047.97 117.972 1048.3 117.822H1048.87C1046.41 119.086 1044.1 120.606 1041.97 122.357C1036.89 126.766 1033.02 132.404 1030.73 138.733C1028.6 145.082 1027.44 151.713 1027.28 158.407C1027.28 160.992 1026.98 163.054 1026.87 164.515C1026.88 165.266 1026.85 166.018 1026.76 166.764Z" fill="#263238"/>
<path d="M1012.97 73.4141C1012.97 73.4141 1012.97 73.7513 1013.23 74.3509L1013.79 77.0866C1014.28 79.4849 1014.95 82.9325 1015.74 87.2045C1017.31 95.7112 1019.49 107.553 1021.25 120.632C1023.01 133.71 1024.66 145.627 1025.63 154.358C1026.08 158.668 1026.46 162.19 1026.68 164.589L1026.91 167.362C1026.96 167.685 1026.96 168.013 1026.91 168.336C1026.91 168.336 1026.91 168.036 1026.91 167.399C1026.91 166.762 1026.72 165.75 1026.53 164.626C1026.23 162.115 1025.78 158.668 1025.26 154.433C1024.17 145.814 1022.6 133.935 1020.69 120.706C1018.77 107.478 1016.94 95.7862 1015.36 87.242C1014.69 83.0449 1014.09 79.7472 1013.68 77.124L1013.23 74.3509C1013.1 74.0514 1013.01 73.7364 1012.97 73.4141Z" fill="#263238"/>
<path d="M1018.74 140.907C1016.66 134.592 1013.1 128.862 1008.37 124.191C1003.64 119.519 997.87 116.039 991.53 114.037C990.001 113.317 988.295 113.054 986.62 113.28C984.945 113.506 983.37 114.211 982.086 115.312C981.267 116.789 980.898 118.474 981.024 120.159C981.151 121.843 981.768 123.454 982.798 124.793C986.416 130.855 991.752 135.708 998.129 138.736C1004.51 141.765 1011.64 142.833 1018.62 141.806" fill="#455A64"/>
<path d="M994.528 123.932C995.217 124.061 995.894 124.249 996.551 124.494C997.355 124.719 998.143 124.995 998.912 125.318C999.934 125.702 1000.93 126.14 1001.91 126.63C1003 127.154 1004.2 127.754 1005.43 128.503C1006.67 129.253 1007.91 130.115 1009.18 131.052C1011.94 133.164 1014.45 135.578 1016.68 138.247C1018.89 140.964 1020.78 143.932 1022.3 147.091C1022.96 148.466 1023.53 149.88 1024.02 151.325C1024.48 152.55 1024.87 153.802 1025.18 155.073C1025.52 156.272 1025.63 157.359 1025.82 158.295C1026.01 159.232 1026.04 160.094 1026.12 160.769C1026.18 161.467 1026.18 162.169 1026.12 162.867C1025.93 162.867 1025.78 159.869 1024.54 155.372C1024.21 154.104 1023.81 152.853 1023.35 151.625C1022.83 150.22 1022.25 148.844 1021.58 147.503C1020.06 144.416 1018.18 141.512 1016 138.846C1013.75 136.211 1011.24 133.813 1008.51 131.689C1007.19 130.752 1005.99 129.853 1004.76 129.14C1003.66 128.423 1002.52 127.772 1001.35 127.192C997.376 124.943 994.453 124.119 994.528 123.932Z" fill="#263238"/>
</g>
<defs>
<clipPath id="clip0_172_43">
<rect width="1440" height="202" fill="white"/>
</clipPath>
</defs>
</svg>
