<svg width="1431" height="145" viewBox="0 0 1431 145" fill="none" xmlns="http://www.w3.org/2000/svg">
<g clip-path="url(#clip0_172_43)">
<rect width="1431" height="145" fill="white"/>
<rect x="-61" y="-57" width="1556" height="199" fill="#6CAE7E"/>
<path d="M184.447 38.7651C111.987 -5.84622 29.2906 68.5835 -3 111.375V159H1437V111.375C1425.7 92.7863 1392.63 55.6095 1350.78 55.6095C1298.47 55.6095 1264.87 111.375 1168 111.375C1071.13 111.375 1100.85 55.6095 982.187 38.7651C863.519 21.9208 826.707 111.375 732.257 111.375C637.807 111.375 634.62 25.8624 527.5 54.5844C415 84.7489 447.938 89.3003 361.723 111.375C275.507 133.449 275.022 94.5293 184.447 38.7651Z" fill="#447752"/>
<path d="M81.0281 0.118504C83.1718 1.17672 85.0591 2.62005 86.5764 4.36166C88.0937 6.10326 89.2097 8.10721 89.8572 10.2529C91.1606 14.5719 91.352 19.1077 90.4164 23.5055C88.9154 32.0001 83.147 40.414 77.0549 47C69.4913 40.3602 68.2258 29.3119 68.0197 23.6668C67.6371 14.769 72.8464 -1.54815 80.9692 0.118504" fill="#455A64"/>
<path d="M85.1768 60.9928C84.7624 58.5355 85.0796 56.0238 86.0965 53.7119C87.1134 51.3999 88.7938 49.3699 90.9674 47.8275C93.1707 46.3238 95.6855 45.2276 98.3654 44.6029C101.045 43.9781 103.837 43.8372 106.578 44.1882C107.857 44.2181 109.112 44.5026 110.253 45.0209C111.394 45.5393 112.392 46.2786 113.175 47.1853C113.75 48.1266 114.034 49.1886 113.997 50.2612C113.96 51.3339 113.604 52.3784 112.966 53.2863C111.65 55.0872 109.828 56.5454 107.683 57.5142C100.549 61.1266 92.7584 63.4279 85.1768 60.9928Z" fill="#455A64"/>
<path d="M74 87C74.0565 86.4166 74.1747 85.8393 74.3529 85.2761C74.6765 84.0826 75.0882 82.624 75.5588 80.6349C76.7249 75.4521 78.8105 70.4729 81.7353 65.8892C84.7307 61.3391 89.0011 57.5799 94.1177 54.9891C95.6977 54.2483 97.365 53.6701 99.0883 53.2652C99.5526 53.1519 100.024 53.0633 100.5 53C100.824 53 101 53 101 53C98.6955 53.5892 96.4672 54.3983 94.3529 55.4134C89.3488 58.0503 85.1614 61.7806 82.1765 66.2605C79.3083 70.792 77.1973 75.6804 75.9117 80.7675C75.3235 82.7036 74.8529 84.2948 74.5 85.3822C74.381 85.9325 74.2138 86.4735 74 87Z" fill="#263238"/>
<path d="M77.9685 13C78.0105 13.2498 78.0105 13.5048 77.9685 13.7546C77.9685 14.3206 77.9685 15.0752 77.9685 15.9646C77.9685 17.905 77.9685 20.6809 77.9685 24.0497C77.9685 30.922 77.5932 40.4355 77.0301 51C76.4669 61.5645 75.7966 70.9702 75.1798 77.9503C74.8849 81.373 74.6167 84.1489 74.4022 86.0354C74.4022 86.9248 74.2145 87.6525 74.134 88.2454C74.1254 88.5021 74.0802 88.7562 74 89C74 89 74 88.7305 74 88.2184C74 87.7064 74 86.9248 74.134 86.0085C74.2681 84.0141 74.4558 81.2652 74.6971 77.9234C75.2066 71.078 75.8502 61.5915 76.3864 51.1078C76.9227 40.6241 77.2714 31.1376 77.5127 24.1575C77.5127 20.7617 77.7004 18.0128 77.754 16.0724C77.754 15.183 77.754 14.4284 77.754 13.8624C77.754 13.2965 77.9685 13 77.9685 13Z" fill="#263238"/>
<path d="M72 66.1733C71.2857 60.998 69.1987 56.0499 65.9124 51.7407C62.6261 47.4314 58.2356 43.8856 53.1061 41.3983C50.5093 40.1448 47.1364 39.2381 44.7784 40.9183C42.4204 42.5984 42.7786 45.8252 43.7337 48.3321C45.8061 53.5613 49.5656 58.125 54.5377 61.4473C59.5098 64.7696 65.4719 66.7018 71.6717 67" fill="#455A64"/>
<path d="M54.0011 49C54.583 49.1742 55.1375 49.4161 55.6505 49.7197C56.1806 49.9863 56.799 50.2796 57.5058 50.7061C58.2127 51.1326 59.0079 51.5857 59.8325 52.1988C60.7611 52.8147 61.6464 53.4824 62.4831 54.1981C63.5243 54.9836 64.5081 55.8295 65.4283 56.7304C67.4586 58.7773 69.2179 61.0317 70.6706 63.4479C72.0787 65.8863 73.1755 68.4618 73.9398 71.1249C74.2738 72.2811 74.5198 73.4568 74.6761 74.6435C74.8634 75.6751 74.9716 76.7173 75 77.7624C75 78.722 75 79.575 75 80.428C74.995 81.0798 74.936 81.7302 74.8233 82.3739C74.7872 82.9237 74.6885 83.4686 74.5288 84C74.3815 84 74.7644 81.6275 74.5288 77.869C74.4535 76.8411 74.3159 75.8177 74.1165 74.8035C73.9692 73.7106 73.6452 72.5644 73.3507 71.3382C72.5581 68.7348 71.4623 66.2149 70.0817 63.821C68.5995 61.382 66.832 59.0942 64.8098 56.997C63.9714 56.0562 63.0662 55.1658 62.1002 54.3313C61.2926 53.6093 60.437 52.9327 59.538 52.3054C56.2689 50.1995 53.9422 49 54.0011 49Z" fill="#263238"/>
<path d="M1484.63 132.643L1473.16 141.062L1479.68 129.035C1476.73 126.843 1473.7 124.638 1470.58 122.42L1459.38 136.211L1466.2 119.172C1463.13 117.047 1460.06 114.963 1456.87 112.878L1446.72 134.287L1452.38 110.031C1450.84 109.029 1449.27 108.067 1447.7 107.105L1435.82 134.848L1443.05 104.298C1438.37 101.532 1433.54 98.8461 1428.59 96.2802C1421.96 106.624 1409.27 126.188 1409.27 126.188L1419.01 91.4693C1409.36 86.818 1399.5 82.7097 1389.45 79.1613L1374.88 121.177L1380.99 76.0743C1372.6 73.4016 1363.86 70.9961 1354.77 68.8579L1340.2 118.611L1344.47 66.7331L1338.29 65.6106L1331.33 118.611L1326.87 64.047C1315.63 62.5636 1303.91 61.5613 1291.55 61.2005L1284.06 114.642L1280.76 61H1272.3L1271.89 114.401L1263.72 61.2807H1259.98C1253.01 61.6014 1246.3 62.0826 1239.71 62.6037L1230.65 128.393V63.4055L1222.82 64.1672L1218.1 128.193L1211.73 65.6106C1199.75 67.0939 1188.48 68.8579 1177.8 70.8625L1170.69 130.077L1165.59 73.2679L1159.52 74.6311L1161.81 129.636L1148.77 77.1968C1139.49 79.5221 1130.76 82.0479 1122.56 84.6538L1127.05 130.277L1114.17 87.4601C1103.19 91.2688 1093.31 95.2779 1084.2 99.4875L1092.33 133.765C1092.33 133.765 1081.1 114.802 1074.8 103.978C1069.41 106.664 1064.39 109.39 1059.82 111.996L1065.48 141.182L1055.4 114.642L1050.35 117.809L1054.88 140.22L1046.56 120.615C1043.12 122.941 1039.97 125.186 1037.16 127.351L1042.14 141.543L1033.57 130.157C1029.82 133.084 1026.86 135.77 1024.28 138.175L1028.02 145.833L1021.69 140.741C1019.7 142.668 1017.8 144.702 1016 146.835L1016.41 147.517H1262.34L1505 149C1498.48 143.548 1491.69 138.095 1484.63 132.643Z" fill="#49935D"/>
<path d="M310.625 172.368L299.164 182.987L305.681 167.816C302.735 165.052 299.701 162.271 296.58 159.472L285.381 176.868L292.198 155.376C289.126 152.696 286.055 150.066 282.872 147.437L272.721 174.441L278.377 143.846C276.841 142.582 275.268 141.369 273.695 140.155L261.822 175.149L269.051 136.615C264.369 133.126 259.538 129.738 254.594 126.501C247.964 139.548 235.267 164.226 235.267 164.226L245.006 120.433C235.362 114.566 225.498 109.384 215.454 104.908L200.885 157.905L206.99 101.014C198.6 97.6429 189.861 94.6088 180.772 91.9117L166.202 154.668L170.472 89.2315L164.292 87.8156L157.326 154.668L152.869 85.8433C141.632 83.9723 129.909 82.7081 117.549 82.2529L110.059 149.662L106.763 82H98.298L97.886 149.359L89.7211 82.354H85.9756C79.0092 82.7586 72.3049 83.3655 65.713 84.0229L56.6491 167.007V85.0342L48.8212 85.995L44.102 166.754L37.7348 87.8156C25.7495 89.6867 14.4759 91.9117 3.80146 94.4402L-3.31481 169.131L-8.40856 97.4742L-14.4761 99.1937L-12.1914 168.575L-25.2254 102.43C-34.514 105.363 -43.2408 108.549 -51.4432 111.836L-46.9488 169.384L-59.8329 115.376C-70.807 120.18 -80.6948 125.237 -89.7962 130.547L-81.6687 173.784C-81.6687 173.784 -92.9049 149.864 -99.1972 136.21C-104.591 139.599 -109.609 143.037 -114.179 146.324L-108.523 183.139L-118.598 149.662L-123.655 153.657L-119.123 181.925L-127.438 157.197C-130.883 160.13 -134.029 162.962 -136.838 165.693L-131.857 183.594L-140.434 169.232C-144.179 172.924 -147.138 176.312 -149.723 179.346L-145.977 189.005L-152.307 182.583C-154.3 185.013 -156.2 187.579 -158 190.269L-157.588 191.129H88.3352L331 193C324.483 186.123 317.691 179.245 310.625 172.368Z" fill="#49935D"/>
<path d="M1009.93 0.00175809C1012.63 0.820853 1015.13 2.1755 1017.3 3.98476C1019.46 5.79402 1021.24 8.02077 1022.52 10.532C1024.98 15.6026 1026.26 21.1617 1026.27 26.7958C1026.02 38.1392 1022.81 49.2215 1016.97 58.9487C1006.78 52.4657 1002.62 39.0499 1000.93 32.1172C998.274 21.1747 1000.15 -0.223087 1009.74 0.00175809" fill="#455A64"/>
<path d="M1030.31 75.0268C1029.23 72.0611 1028.95 68.8597 1029.51 65.7514C1030.07 62.643 1031.45 59.7396 1033.5 57.339C1035.58 54.9735 1038.1 53.0458 1040.94 51.6688C1043.77 50.2919 1046.84 49.4932 1049.99 49.3195C1051.43 49.0846 1052.9 49.1639 1054.3 49.5521C1055.7 49.9403 1057.01 50.628 1058.12 51.568C1058.98 52.5901 1059.55 53.8241 1059.78 55.1419C1060 56.4597 1059.87 57.8134 1059.39 59.0628C1058.38 61.6004 1056.71 63.8243 1054.56 65.5084C1047.51 71.5792 1039.57 76.1885 1030.31 74.8769" fill="#455A64"/>
<path d="M1023.76 109.764C1023.67 109.017 1023.67 108.262 1023.76 107.515C1023.76 105.941 1023.76 103.768 1023.76 101.407C1023.78 94.6424 1024.88 87.9247 1027.02 81.508C1029.3 74.9953 1033.3 69.2206 1038.6 64.7945C1040.18 63.4837 1041.91 62.3758 1043.77 61.4968C1044.4 61.1595 1044.97 60.9722 1045.3 60.8223H1045.87C1043.41 62.0857 1041.1 63.6056 1038.97 65.3566C1033.89 69.7663 1030.02 75.404 1027.73 81.7328C1025.6 88.082 1024.44 94.7135 1024.28 101.407C1024.28 103.992 1023.98 106.054 1023.87 107.515C1023.88 108.266 1023.85 109.018 1023.76 109.764Z" fill="#263238"/>
<path d="M1009.97 16.4141C1009.97 16.4141 1009.97 16.7513 1010.23 17.3509L1010.79 20.0866C1011.28 22.4849 1011.95 25.9325 1012.74 30.2045C1014.31 38.7112 1016.49 50.5531 1018.25 63.6316C1020.01 76.71 1021.66 88.6268 1022.63 97.3583C1023.08 101.668 1023.46 105.19 1023.68 107.589L1023.91 110.362C1023.96 110.685 1023.96 111.013 1023.91 111.336C1023.91 111.336 1023.91 111.036 1023.91 110.399C1023.91 109.762 1023.72 108.75 1023.53 107.626C1023.23 105.115 1022.78 101.668 1022.26 97.4332C1021.17 88.8142 1019.6 76.9349 1017.69 63.7065C1015.77 50.4781 1013.94 38.7862 1012.36 30.242C1011.69 26.0449 1011.09 22.7472 1010.68 20.124L1010.23 17.3509C1010.1 17.0514 1010.01 16.7364 1009.97 16.4141Z" fill="#263238"/>
<path d="M1015.74 83.9065C1013.66 77.5918 1010.1 71.8623 1005.37 67.1905C1000.64 62.5188 994.87 59.0387 988.53 57.0375C987.001 56.3169 985.295 56.0539 983.62 56.2799C981.945 56.506 980.37 57.2115 979.086 58.3116C978.267 59.789 977.898 61.4739 978.024 63.1586C978.151 64.8433 978.768 66.4541 979.798 67.7925C983.416 73.8549 988.752 78.7076 995.129 81.7361C1001.51 84.7647 1008.64 85.833 1015.62 84.8058" fill="#455A64"/>
<path d="M991.528 66.9316C992.217 67.0608 992.894 67.2488 993.551 67.4937C994.355 67.7194 995.143 67.9948 995.912 68.3182C996.934 68.7017 997.935 69.1396 998.91 69.6298C999.997 70.1544 1001.2 70.754 1002.43 71.5035C1003.67 72.253 1004.91 73.1149 1006.18 74.0517C1008.94 76.1645 1011.45 78.5778 1013.68 81.2468C1015.89 83.9636 1017.78 86.932 1019.3 90.0907C1019.96 91.4658 1020.53 92.88 1021.02 94.3253C1021.48 95.5503 1021.87 96.8017 1022.18 98.0727C1022.52 99.2719 1022.63 100.359 1022.82 101.295C1023.01 102.232 1023.04 103.094 1023.12 103.769C1023.18 104.467 1023.18 105.169 1023.12 105.867C1022.93 105.867 1022.78 102.869 1021.54 98.3724C1021.21 97.1038 1020.81 95.8531 1020.35 94.625C1019.83 93.22 1019.25 91.8439 1018.58 90.5028C1017.06 87.416 1015.18 84.5121 1013 81.8463C1010.75 79.2111 1008.24 76.8128 1005.51 74.6888C1004.19 73.752 1002.99 72.8525 1001.76 72.1405C1000.66 71.4228 999.523 70.7721 998.348 70.1919C994.376 67.9434 991.453 67.119 991.528 66.9316Z" fill="#263238"/>
</g>
<defs>
<clipPath id="clip0_172_43">
<rect width="1431" height="145" fill="white"/>
</clipPath>
</defs>
</svg>
