<svg width="1512" height="181" viewBox="0 0 1512 181" fill="none" xmlns="http://www.w3.org/2000/svg">
<path d="M1102.41 175.292C1102.4 164.664 1101.09 154.145 1098.53 144.366C1092.9 120.281 1083.05 168.416 1083.05 168.416C1083.05 168.416 1083.05 162.691 1072.52 144.366C1061.98 126.041 1052.82 158.119 1052.82 158.119C1052.82 158.119 1057.74 81.3269 1045.79 87.0514C1033.85 92.7759 1035.24 158.119 1035.24 158.119C1035.24 158.119 1026.8 109.949 1015.56 109.949C1004.32 109.949 1001.49 144.366 1001.49 144.366C1001.49 144.366 998.729 83.5958 987.423 82.4439C976.118 81.292 963.527 132.812 963.527 132.812C963.527 132.812 967.039 64.0487 955.798 60.5931C944.556 57.1374 940.317 85.8297 940.317 85.8297C940.317 85.8297 930.467 -9.32242 911.496 2.05674C892.525 13.4359 908.798 119.129 908.798 119.129C908.798 119.129 889.805 45.8281 874.324 62.9666C860.278 78.6042 878.157 160.527 881.54 175.292H1102.41Z" fill="#92E3A9"/>
<path d="M1510 175C1510 164.382 1508.84 153.875 1506.6 144.106C1501.65 120.046 1493 168.131 1493 168.131C1493 168.131 1493 162.412 1483.75 144.106C1474.5 125.799 1466.46 157.844 1466.46 157.844C1466.46 157.844 1470.78 81.132 1460.29 86.8506C1449.8 92.5691 1451.02 157.844 1451.02 157.844C1451.02 157.844 1443.61 109.725 1433.74 109.725C1423.87 109.725 1421.39 144.106 1421.39 144.106C1421.39 144.106 1418.93 83.3985 1409.06 82.2478C1399.18 81.0971 1388.07 132.564 1388.07 132.564C1388.07 132.564 1391.16 63.8717 1381.29 60.4196C1371.42 56.9676 1367.69 85.6301 1367.69 85.6301C1367.69 85.6301 1359.06 -9.42343 1342.39 1.94394C1325.71 13.3113 1339.92 118.721 1339.92 118.721C1339.92 118.721 1323.25 45.4956 1309.67 62.6164C1297.32 78.2378 1313.04 160.076 1315.99 174.826L1510 175Z" fill="#92E3A9"/>
<path d="M1318.16 174.21C1318.16 163.58 1316.84 153.058 1314.28 143.284C1308.67 119.199 1298.82 167.334 1298.82 167.334C1298.82 167.334 1298.82 161.609 1288.26 143.284C1277.71 124.959 1268.59 157.037 1268.59 157.037C1268.59 157.037 1273.51 80.2447 1261.56 85.9692C1249.62 91.6937 1251.01 157.037 1251.01 157.037C1251.01 157.037 1242.57 108.902 1231.33 108.902C1220.09 108.902 1217.26 143.284 1217.26 143.284C1217.26 143.284 1214.43 82.5136 1203.19 81.3966C1191.95 80.2796 1179.3 131.8 1179.3 131.8C1179.3 131.8 1182.87 63.0015 1171.55 59.5109C1160.22 56.0204 1156.09 84.7126 1156.09 84.7126C1156.09 84.7126 1146.24 -10.4046 1127.27 0.939668C1108.29 12.2839 1124.44 117.838 1124.44 117.838C1124.44 117.838 1105.47 44.5365 1089.99 61.6751C1075.94 77.3127 1093.82 159.236 1097.2 174.001L1318.16 174.21Z" fill="#92E3A9"/>
<path d="M593.407 176.292C593.404 165.664 592.086 155.145 589.531 145.366C583.9 121.281 574.05 169.416 574.05 169.416C574.05 169.416 574.05 163.691 563.515 145.366C552.981 127.041 543.816 159.119 543.816 159.119C543.816 159.119 548.741 82.3269 536.793 88.0514C524.845 93.7759 526.237 159.119 526.237 159.119C526.237 159.119 517.8 110.949 506.559 110.949C495.318 110.949 492.491 145.366 492.491 145.366C492.491 145.366 489.729 84.5958 478.423 83.4439C467.118 82.292 454.527 133.812 454.527 133.812C454.527 133.812 458.039 65.0487 446.798 61.5931C435.556 58.1374 431.317 86.8297 431.317 86.8297C431.317 86.8297 421.467 -8.32242 402.496 3.05674C383.525 14.4359 399.798 120.129 399.798 120.129C399.798 120.129 380.805 46.8281 365.324 63.9666C351.278 79.6042 369.157 161.527 372.54 176.292H593.407Z" fill="#92E3A9"/>
<path d="M1029 176.292C1028.99 165.664 1027.67 155.145 1025.12 145.366C1019.49 121.281 1009.64 169.416 1009.64 169.416C1009.64 169.416 1009.64 163.691 999.104 145.366C988.569 127.041 979.405 159.119 979.405 159.119C979.405 159.119 984.33 82.3269 972.382 88.0514C960.434 93.7759 961.825 159.119 961.825 159.119C961.825 159.119 953.389 110.949 942.148 110.949C930.906 110.949 928.08 145.366 928.08 145.366C928.08 145.366 925.275 84.5958 914.033 83.4439C902.792 82.292 890.137 133.812 890.137 133.812C890.137 133.812 893.649 65.0487 882.408 61.5931C871.166 58.1374 866.927 86.8297 866.927 86.8297C866.927 86.8297 857.098 -8.32242 838.106 3.05674C819.113 14.4359 835.301 119.955 835.301 119.955C835.301 119.955 816.308 46.6536 800.849 63.7921C786.781 79.4297 804.681 161.353 808.043 176.118L1029 176.292Z" fill="#92E3A9"/>
<path d="M809.156 175.21C809.162 164.58 807.844 154.058 805.28 144.284C799.67 120.199 789.82 168.334 789.82 168.334C789.82 168.334 789.82 162.609 779.264 144.284C768.708 125.959 759.586 158.037 759.586 158.037C759.586 158.037 764.511 81.2447 752.563 86.9692C740.615 92.6937 742.007 158.037 742.007 158.037C742.007 158.037 733.571 109.902 722.329 109.902C711.088 109.902 708.261 144.284 708.261 144.284C708.261 144.284 705.435 83.5136 694.194 82.3966C682.952 81.2796 670.298 132.8 670.298 132.8C670.298 132.8 673.873 64.0015 662.546 60.5109C651.219 57.0204 647.087 85.7126 647.087 85.7126C647.087 85.7126 637.237 -9.40459 618.266 1.93967C599.295 13.2839 615.44 118.838 615.44 118.838C615.44 118.838 596.468 45.5365 580.987 62.6751C566.941 78.3127 584.82 160.236 588.203 175.001L809.156 175.21Z" fill="#92E3A9"/>
<path d="M222.393 178.18C222.39 167.552 221.072 157.033 218.518 147.254C212.886 123.169 203.037 171.304 203.037 171.304C203.037 171.304 203.037 165.58 192.502 147.254C181.967 128.929 172.803 161.007 172.803 161.007C172.803 161.007 177.727 84.2151 165.779 89.9396C153.831 95.6641 155.223 161.007 155.223 161.007C155.223 161.007 146.787 112.838 135.545 112.838C124.304 112.838 121.478 147.254 121.478 147.254C121.478 147.254 118.715 86.4839 107.41 85.3321C96.1041 84.1802 83.5137 135.701 83.5137 135.701C83.5137 135.701 87.0253 66.9369 75.7839 63.4813C64.5425 60.0256 60.3029 88.7179 60.3029 88.7179C60.3029 88.7179 50.4533 -6.43424 31.4821 4.94492C12.5109 16.3241 28.7842 122.018 28.7842 122.018C28.7842 122.018 9.7916 48.7162 -5.68941 65.8548C-19.7358 81.4924 -1.85664 163.415 1.52649 178.18H222.393Z" fill="#92E3A9"/>
<path d="M618.995 180.292C618.993 169.664 617.674 159.145 615.12 149.366C609.488 125.281 599.639 173.416 599.639 173.416C599.639 173.416 599.639 167.691 589.104 149.366C578.569 131.041 569.405 163.119 569.405 163.119C569.405 163.119 574.33 86.3269 562.382 92.0514C550.434 97.7759 551.825 163.119 551.825 163.119C551.825 163.119 543.389 114.949 532.148 114.949C520.906 114.949 518.08 149.366 518.08 149.366C518.08 149.366 515.275 88.5958 504.033 87.4439C492.792 86.292 480.137 137.812 480.137 137.812C480.137 137.812 483.649 69.0487 472.408 65.5931C461.166 62.1374 456.927 90.8297 456.927 90.8297C456.927 90.8297 447.098 -4.32242 428.106 7.05674C409.113 18.4359 425.301 123.955 425.301 123.955C425.301 123.955 406.308 50.6536 390.849 67.7921C376.781 83.4297 394.681 165.353 398.043 180.118L618.995 180.292Z" fill="#92E3A9"/>
<path d="M400.479 179.21C400.485 168.58 399.167 158.058 396.603 148.284C390.993 124.199 381.144 172.334 381.144 172.334C381.144 172.334 381.144 166.609 370.587 148.284C360.031 129.959 350.91 162.037 350.91 162.037C350.91 162.037 355.834 85.2447 343.886 90.9692C331.938 96.6937 333.33 162.037 333.33 162.037C333.33 162.037 324.894 113.902 313.652 113.902C302.411 113.902 299.585 148.284 299.585 148.284C299.585 148.284 296.758 87.5136 285.517 86.3966C274.275 85.2796 261.621 136.8 261.621 136.8C261.621 136.8 265.197 68.0015 253.87 64.5109C242.543 61.0204 238.41 89.7126 238.41 89.7126C238.41 89.7126 228.56 -5.40459 209.589 5.93967C190.618 17.2839 206.763 122.838 206.763 122.838C206.763 122.838 187.792 49.5365 172.311 66.6751C158.264 82.3127 176.143 164.236 179.527 179.001L400.479 179.21Z" fill="#92E3A9"/>
</svg>
