<svg width="1512" height="1565" viewBox="0 0 1512 1565" fill="none" xmlns="http://www.w3.org/2000/svg">
<path d="M973.407 175.292C973.404 164.664 972.086 154.145 969.531 144.366C963.9 120.281 954.05 168.416 954.05 168.416C954.05 168.416 954.05 162.691 943.515 144.366C932.981 126.041 923.816 158.119 923.816 158.119C923.816 158.119 928.741 81.3269 916.793 87.0514C904.845 92.7759 906.237 158.119 906.237 158.119C906.237 158.119 897.8 109.949 886.559 109.949C875.318 109.949 872.491 144.366 872.491 144.366C872.491 144.366 869.729 83.5958 858.423 82.4439C847.118 81.292 834.527 132.812 834.527 132.812C834.527 132.812 838.039 64.0487 826.798 60.5931C815.556 57.1374 811.317 85.8297 811.317 85.8297C811.317 85.8297 801.467 -9.32242 782.496 2.05674C763.525 13.4359 779.798 119.129 779.798 119.129C779.798 119.129 760.805 45.8281 745.324 62.9666C731.278 78.6042 749.157 160.527 752.54 175.292H973.407Z" fill="#92E3A9"/>
<path d="M1381 175C1381 164.382 1379.84 153.875 1377.6 144.106C1372.65 120.046 1364 168.131 1364 168.131C1364 168.131 1364 162.412 1354.75 144.106C1345.5 125.799 1337.46 157.844 1337.46 157.844C1337.46 157.844 1341.78 81.132 1331.29 86.8506C1320.8 92.5691 1322.02 157.844 1322.02 157.844C1322.02 157.844 1314.61 109.725 1304.74 109.725C1294.87 109.725 1292.39 144.106 1292.39 144.106C1292.39 144.106 1289.93 83.3985 1280.06 82.2478C1270.18 81.0971 1259.07 132.564 1259.07 132.564C1259.07 132.564 1262.16 63.8717 1252.29 60.4196C1242.42 56.9676 1238.69 85.6301 1238.69 85.6301C1238.69 85.6301 1230.06 -9.42343 1213.39 1.94394C1196.71 13.3113 1210.92 118.721 1210.92 118.721C1210.92 118.721 1194.25 45.4956 1180.67 62.6164C1168.32 78.2378 1184.04 160.076 1186.99 174.826L1381 175Z" fill="#92E3A9"/>
<path d="M1189.16 174.21C1189.16 163.58 1187.84 153.058 1185.28 143.284C1179.67 119.199 1169.82 167.334 1169.82 167.334C1169.82 167.334 1169.82 161.609 1159.26 143.284C1148.71 124.959 1139.59 157.037 1139.59 157.037C1139.59 157.037 1144.51 80.2447 1132.56 85.9692C1120.62 91.6937 1122.01 157.037 1122.01 157.037C1122.01 157.037 1113.57 108.902 1102.33 108.902C1091.09 108.902 1088.26 143.284 1088.26 143.284C1088.26 143.284 1085.43 82.5136 1074.19 81.3966C1062.95 80.2796 1050.3 131.8 1050.3 131.8C1050.3 131.8 1053.87 63.0015 1042.55 59.5109C1031.22 56.0204 1027.09 84.7126 1027.09 84.7126C1027.09 84.7126 1017.24 -10.4046 998.266 0.939668C979.295 12.2839 995.44 117.838 995.44 117.838C995.44 117.838 976.468 44.5365 960.987 61.6751C946.941 77.3127 964.82 159.236 968.203 174.001L1189.16 174.21Z" fill="#92E3A9"/>
<path d="M464.407 176.292C464.404 165.664 463.086 155.145 460.531 145.366C454.9 121.281 445.05 169.416 445.05 169.416C445.05 169.416 445.05 163.691 434.515 145.366C423.981 127.041 414.816 159.119 414.816 159.119C414.816 159.119 419.741 82.3269 407.793 88.0514C395.845 93.7759 397.237 159.119 397.237 159.119C397.237 159.119 388.8 110.949 377.559 110.949C366.318 110.949 363.491 145.366 363.491 145.366C363.491 145.366 360.729 84.5958 349.423 83.4439C338.118 82.292 325.527 133.812 325.527 133.812C325.527 133.812 329.039 65.0487 317.798 61.5931C306.556 58.1374 302.317 86.8297 302.317 86.8297C302.317 86.8297 292.467 -8.32242 273.496 3.05674C254.525 14.4359 270.798 120.129 270.798 120.129C270.798 120.129 251.805 46.8281 236.324 63.9666C222.278 79.6042 240.157 161.527 243.54 176.292H464.407Z" fill="#92E3A9"/>
<path d="M899.995 176.292C899.993 165.664 898.674 155.145 896.12 145.366C890.488 121.281 880.639 169.416 880.639 169.416C880.639 169.416 880.639 163.691 870.104 145.366C859.569 127.041 850.405 159.119 850.405 159.119C850.405 159.119 855.33 82.3269 843.382 88.0514C831.434 93.7759 832.825 159.119 832.825 159.119C832.825 159.119 824.389 110.949 813.148 110.949C801.906 110.949 799.08 145.366 799.08 145.366C799.08 145.366 796.275 84.5958 785.033 83.4439C773.792 82.292 761.137 133.812 761.137 133.812C761.137 133.812 764.649 65.0487 753.408 61.5931C742.166 58.1374 737.927 86.8297 737.927 86.8297C737.927 86.8297 728.098 -8.32242 709.106 3.05674C690.113 14.4359 706.301 119.955 706.301 119.955C706.301 119.955 687.308 46.6536 671.849 63.7921C657.781 79.4297 675.681 161.353 679.043 176.118L899.995 176.292Z" fill="#92E3A9"/>
<path d="M680.156 175.21C680.162 164.58 678.844 154.058 676.28 144.284C670.67 120.199 660.82 168.334 660.82 168.334C660.82 168.334 660.82 162.609 650.264 144.284C639.708 125.959 630.586 158.037 630.586 158.037C630.586 158.037 635.511 81.2447 623.563 86.9692C611.615 92.6937 613.007 158.037 613.007 158.037C613.007 158.037 604.571 109.902 593.329 109.902C582.088 109.902 579.261 144.284 579.261 144.284C579.261 144.284 576.435 83.5136 565.194 82.3966C553.952 81.2796 541.298 132.8 541.298 132.8C541.298 132.8 544.873 64.0015 533.546 60.5109C522.219 57.0204 518.087 85.7126 518.087 85.7126C518.087 85.7126 508.237 -9.40459 489.266 1.93967C470.295 13.2839 486.44 118.838 486.44 118.838C486.44 118.838 467.468 45.5365 451.987 62.6751C437.941 78.3127 455.82 160.236 459.203 175.001L680.156 175.21Z" fill="#92E3A9"/>
<path d="M93.3932 178.18C93.3902 167.552 92.0721 157.033 89.5176 147.254C83.8862 123.169 74.0366 171.304 74.0366 171.304C74.0366 171.304 74.0365 165.58 63.5018 147.254C52.967 128.929 43.8026 161.007 43.8026 161.007C43.8026 161.007 48.7274 84.2151 36.7794 89.9396C24.8314 95.6641 26.2232 161.007 26.2232 161.007C26.2232 161.007 17.7867 112.838 6.54535 112.838C-4.69605 112.838 -7.52245 147.254 -7.52245 147.254C-7.52245 147.254 -10.2846 86.4839 -21.5903 85.3321C-32.8959 84.1802 -45.4863 135.701 -45.4863 135.701C-45.4863 135.701 -41.9747 66.9369 -53.2161 63.4813C-64.4575 60.0256 -68.6971 88.7179 -68.6971 88.7179C-68.6971 88.7179 -78.5467 -6.43424 -97.5179 4.94492C-116.489 16.3241 -100.216 122.018 -100.216 122.018C-100.216 122.018 -119.208 48.7162 -134.689 65.8548C-148.736 81.4924 -130.857 163.415 -127.474 178.18H93.3932Z" fill="#92E3A9"/>
<path d="M489.995 176.292C489.993 165.664 488.674 155.145 486.12 145.366C480.488 121.281 470.639 169.416 470.639 169.416C470.639 169.416 470.639 163.691 460.104 145.366C449.569 127.041 440.405 159.119 440.405 159.119C440.405 159.119 445.33 82.3269 433.382 88.0514C421.434 93.7759 422.825 159.119 422.825 159.119C422.825 159.119 414.389 110.949 403.148 110.949C391.906 110.949 389.08 145.366 389.08 145.366C389.08 145.366 386.275 84.5958 375.033 83.4439C363.792 82.292 351.137 133.812 351.137 133.812C351.137 133.812 354.649 65.0487 343.408 61.5931C332.166 58.1374 327.927 86.8297 327.927 86.8297C327.927 86.8297 318.098 -8.32242 299.106 3.05674C280.113 14.4359 296.301 119.955 296.301 119.955C296.301 119.955 277.308 46.6536 261.849 63.7921C247.781 79.4297 265.681 161.353 269.043 176.118L489.995 176.292Z" fill="#92E3A9"/>
<path d="M270.156 175.21C270.162 164.58 268.844 154.058 266.28 144.284C260.67 120.199 250.82 168.334 250.82 168.334C250.82 168.334 250.82 162.609 240.264 144.284C229.708 125.959 220.586 158.037 220.586 158.037C220.586 158.037 225.511 81.2447 213.563 86.9692C201.615 92.6937 203.007 158.037 203.007 158.037C203.007 158.037 194.571 109.902 183.329 109.902C172.088 109.902 169.261 144.284 169.261 144.284C169.261 144.284 166.435 83.5136 155.194 82.3966C143.952 81.2796 131.298 132.8 131.298 132.8C131.298 132.8 134.873 64.0015 123.546 60.5109C112.219 57.0204 108.087 85.7126 108.087 85.7126C108.087 85.7126 98.2372 -9.40459 79.266 1.93967C60.2948 13.2839 76.4396 118.838 76.4396 118.838C76.4396 118.838 57.4684 45.5365 41.9873 62.6751C27.9409 78.3127 45.8201 160.236 49.2033 175.001L270.156 175.21Z" fill="#92E3A9"/>
<rect x="-131" y="153" width="1512" height="1412" fill="#92E3A9"/>
</svg>
