<svg width="137" height="64" viewBox="0 0 137 64" fill="none" xmlns="http://www.w3.org/2000/svg">
<path d="M16.6035 63.5C12.2035 63.5 8.87018 62.9667 6.60352 61.9C4.40352 60.8333 2.90352 59.4 2.10352 57.6C1.30352 55.8 0.903516 53.8333 0.903516 51.7V27.2C0.903516 25 1.30352 23.0333 2.10352 21.3C2.90352 19.5 4.43685 18.0667 6.70352 17C9.03685 15.9333 12.4368 15.4 16.9035 15.4C20.9035 15.4 24.0702 15.9333 26.4035 17C28.7369 18 30.3702 19.3667 31.3035 21.1C32.3035 22.8333 32.8035 24.8 32.8035 27V36.4L22.2035 37.1V29C22.2035 27.6 21.7702 26.3667 20.9035 25.3C20.1035 24.1667 18.7369 23.6 16.8035 23.6C14.9368 23.6 13.5702 24.1333 12.7035 25.2C11.9035 26.2667 11.5035 27.5333 11.5035 29V49.7C11.5035 51.1 11.9035 52.3 12.7035 53.3C13.5035 54.3 14.7702 54.8 16.5035 54.8C18.5702 54.8 20.0369 54.3 20.9035 53.3C21.7702 52.2333 22.2035 50.9333 22.2035 49.4V46.1L32.8035 45.3V51.3C32.8035 53.6333 32.3035 55.7333 31.3035 57.6C30.3035 59.4 28.6369 60.8333 26.3035 61.9C23.9702 62.9667 20.7368 63.5 16.6035 63.5ZM2.10352 41.4V35.7H32.8035V41.4H2.10352ZM15.8035 10.4L4.10352 0.299997H13.3035L22.5035 10.4H15.8035ZM42.0801 63V15.9H50.7801L51.7801 20.8C52.7801 19 54.2134 17.6333 56.0801 16.7C58.0134 15.7 60.2801 15.2 62.8801 15.2C65.5467 15.2 67.6467 15.6 69.1801 16.4C70.7134 17.2 71.8134 18.2333 72.4801 19.5C73.2134 20.7 73.6467 22 73.7801 23.4L71.5801 25.4C72.1134 22.5333 73.0467 20.4 74.3801 19C75.7134 17.5333 77.2467 16.5333 78.9801 16C80.7801 15.4667 82.5134 15.2 84.1801 15.2C87.3134 15.2 89.6467 15.7667 91.1801 16.9C92.7801 17.9667 93.8467 19.3 94.3801 20.9C94.9134 22.4333 95.1801 23.9333 95.1801 25.4V63H84.5801V29.3C84.5801 27.3 84.1134 25.8667 83.1801 25C82.3134 24.1333 81.0467 23.7 79.3801 23.7C77.7801 23.7 76.4801 24.1333 75.4801 25C74.4801 25.8667 73.9801 27.3 73.9801 29.3V63H63.3801V28.9C63.3801 27.1 62.9134 25.8 61.9801 25C61.1134 24.1333 59.7801 23.7 57.9801 23.7C56.5134 23.7 55.3467 24.0667 54.4801 24.8C53.6801 25.5333 53.0801 26.5333 52.6801 27.8V63H42.0801ZM119.92 63.5C115.52 63.5 112.187 62.9667 109.92 61.9C107.72 60.8333 106.22 59.4 105.42 57.6C104.62 55.8 104.22 53.8333 104.22 51.7V27.2C104.22 25 104.62 23.0333 105.42 21.3C106.22 19.5 107.753 18.0667 110.02 17C112.353 15.9333 115.753 15.4 120.22 15.4C124.22 15.4 127.387 15.9333 129.72 17C132.053 18 133.687 19.3667 134.62 21.1C135.62 22.8333 136.12 24.8 136.12 27V36.4L125.52 37.1V29C125.52 27.6 125.087 26.3667 124.22 25.3C123.42 24.1667 122.053 23.6 120.12 23.6C118.253 23.6 116.887 24.1333 116.02 25.2C115.22 26.2667 114.82 27.5333 114.82 29V49.7C114.82 51.1 115.22 52.3 116.02 53.3C116.82 54.3 118.087 54.8 119.82 54.8C121.887 54.8 123.353 54.3 124.22 53.3C125.087 52.2333 125.52 50.9333 125.52 49.4V46.1L136.12 45.3V51.3C136.12 53.6333 135.62 55.7333 134.62 57.6C133.62 59.4 131.953 60.8333 129.62 61.9C127.287 62.9667 124.053 63.5 119.92 63.5ZM105.42 41.4V35.7H136.12V41.4H105.42Z" fill="#20252C"/>
</svg>
