<svg width="461" height="144" viewBox="0 0 461 144" fill="none" xmlns="http://www.w3.org/2000/svg">
<path d="M88 142.64C136.601 142.64 176 137.572 176 131.32C176 125.068 136.601 120 88 120C39.3989 120 0 125.068 0 131.32C0 137.572 39.3989 142.64 88 142.64Z" fill="#436A4A"/>
<path d="M218.48 65.8L214.88 60.96C213.813 61.1733 212.773 61.28 211.76 61.28C209.12 61.28 206.693 60.6667 204.48 59.44C202.293 58.2133 200.547 56.5067 199.24 54.32C197.96 52.1067 197.32 49.6267 197.32 46.88C197.32 44.1333 197.96 41.6667 199.24 39.48C200.547 37.2933 202.293 35.5867 204.48 34.36C206.693 33.1333 209.12 32.52 211.76 32.52C214.4 32.52 216.813 33.1333 219 34.36C221.213 35.5867 222.947 37.2933 224.2 39.48C225.48 41.6667 226.12 44.1333 226.12 46.88C226.12 49.28 225.627 51.48 224.64 53.48C223.68 55.4533 222.333 57.0933 220.6 58.4L226.76 65.8H218.48ZM204.32 46.88C204.32 49.36 204.987 51.3467 206.32 52.84C207.68 54.3067 209.493 55.04 211.76 55.04C214 55.04 215.787 54.2933 217.12 52.8C218.48 51.3067 219.16 49.3333 219.16 46.88C219.16 44.4 218.48 42.4267 217.12 40.96C215.787 39.4667 214 38.72 211.76 38.72C209.493 38.72 207.68 39.4533 206.32 40.92C204.987 42.3867 204.32 44.3733 204.32 46.88ZM236.723 32.92V49.72C236.723 51.4 237.137 52.6933 237.963 53.6C238.79 54.5067 240.003 54.96 241.603 54.96C243.203 54.96 244.43 54.5067 245.283 53.6C246.137 52.6933 246.563 51.4 246.563 49.72V32.92H253.403V49.68C253.403 52.1867 252.87 54.3067 251.803 56.04C250.737 57.7733 249.297 59.08 247.483 59.96C245.697 60.84 243.697 61.28 241.483 61.28C239.27 61.28 237.283 60.8533 235.523 60C233.79 59.12 232.417 57.8133 231.403 56.08C230.39 54.32 229.883 52.1867 229.883 49.68V32.92H236.723ZM275.687 56.04H265.207L263.527 61H256.367L266.527 32.92H274.447L284.607 61H277.367L275.687 56.04ZM273.927 50.76L270.447 40.48L267.007 50.76H273.927ZM297.859 61.28C295.805 61.28 293.965 60.9467 292.339 60.28C290.712 59.6133 289.405 58.6267 288.419 57.32C287.459 56.0133 286.952 54.44 286.899 52.6H294.179C294.285 53.64 294.645 54.44 295.259 55C295.872 55.5333 296.672 55.8 297.659 55.8C298.672 55.8 299.472 55.5733 300.059 55.12C300.645 54.64 300.939 53.9867 300.939 53.16C300.939 52.4667 300.699 51.8933 300.219 51.44C299.765 50.9867 299.192 50.6133 298.499 50.32C297.832 50.0267 296.872 49.6933 295.619 49.32C293.805 48.76 292.325 48.2 291.179 47.64C290.032 47.08 289.045 46.2533 288.219 45.16C287.392 44.0667 286.979 42.64 286.979 40.88C286.979 38.2667 287.925 36.2267 289.819 34.76C291.712 33.2667 294.179 32.52 297.219 32.52C300.312 32.52 302.805 33.2667 304.699 34.76C306.592 36.2267 307.605 38.28 307.739 40.92H300.339C300.285 40.0133 299.952 39.3067 299.339 38.8C298.725 38.2667 297.939 38 296.979 38C296.152 38 295.485 38.2267 294.979 38.68C294.472 39.1067 294.219 39.7333 294.219 40.56C294.219 41.4667 294.645 42.1733 295.499 42.68C296.352 43.1867 297.685 43.7333 299.499 44.32C301.312 44.9333 302.779 45.52 303.899 46.08C305.045 46.64 306.032 47.4533 306.859 48.52C307.685 49.5867 308.099 50.96 308.099 52.64C308.099 54.24 307.685 55.6933 306.859 57C306.059 58.3067 304.885 59.3467 303.339 60.12C301.792 60.8933 299.965 61.28 297.859 61.28ZM319.148 32.92V61H312.308V32.92H319.148ZM230.28 92.92V121H223.44V104.16L217.16 121H211.64L205.32 104.12V121H198.48V92.92H206.56L214.44 112.36L222.24 92.92H230.28ZM242.039 98.4V104.08H251.199V109.36H242.039V115.52H252.399V121H235.199V92.92H252.399V98.4H242.039ZM281.959 121H275.119L263.679 103.68V121H256.839V92.92H263.679L275.119 110.32V92.92H281.959V121ZM304.398 116.04H293.918L292.238 121H285.078L295.238 92.92H303.158L313.318 121H306.078L304.398 116.04ZM302.638 110.76L299.158 100.48L295.718 110.76H302.638ZM315.25 106.92C315.25 104.147 315.85 101.68 317.05 99.52C318.25 97.3333 319.916 95.64 322.05 94.44C324.21 93.2133 326.65 92.6 329.37 92.6C332.703 92.6 335.556 93.48 337.93 95.24C340.303 97 341.89 99.4 342.69 102.44H335.17C334.61 101.267 333.81 100.373 332.77 99.76C331.756 99.1467 330.596 98.84 329.29 98.84C327.183 98.84 325.476 99.5733 324.17 101.04C322.863 102.507 322.21 104.467 322.21 106.92C322.21 109.373 322.863 111.333 324.17 112.8C325.476 114.267 327.183 115 329.29 115C330.596 115 331.756 114.693 332.77 114.08C333.81 113.467 334.61 112.573 335.17 111.4H342.69C341.89 114.44 340.303 116.84 337.93 118.6C335.556 120.333 332.703 121.2 329.37 121.2C326.65 121.2 324.21 120.6 322.05 119.4C319.916 118.173 318.25 116.48 317.05 114.32C315.85 112.16 315.25 109.693 315.25 106.92ZM353.718 98.4V104.08H362.878V109.36H353.718V115.52H364.078V121H346.878V92.92H364.078V98.4H353.718ZM359.958 87.28L350.318 91.32V86.6L359.958 81.96V87.28Z" fill="#20252C"/>
<path d="M16.5552 19.9057C16.9114 19.6391 17.333 19.4534 17.7847 19.3642C18.2365 19.2749 18.7054 19.2846 19.1521 19.3925L26.4841 20.1241L27.4263 20.5063C25.2933 22.4108 23.8488 24.8549 23.2831 27.5164C20.7829 26.4272 18.6299 24.7815 17.0262 22.7338C16.3619 21.9039 15.8184 20.7028 16.5552 19.9057Z" fill="#7DA479"/>
<path d="M121.486 84.7227C121.486 84.7227 105.784 93.3708 102.1 92.8139C98.4154 92.257 66.7805 83.6308 59.1949 79.4597C51.6093 75.2886 29.1786 59.6304 26.0743 40.1505C22.97 20.6707 50.2323 31.9174 50.2323 31.9174L121.486 84.7227Z" fill="#326A3B"/>
<path d="M120.35 85.3442C120.35 85.3442 123.551 98.1961 120.797 105.337C118.043 112.478 97.2309 129.633 82.9536 130.724C68.6762 131.816 59.9189 130.069 62.4193 126.564C64.9196 123.059 81.8906 118.058 87.3865 112.839C92.8825 107.619 95.2017 102.793 99.0669 101.221C102.932 99.6484 105.263 98.9495 103.174 95.7611C101.084 92.5727 96.6753 81.7627 96.6753 81.7627L120.35 85.3442Z" fill="#7DA479"/>
<path d="M48.6978 62.7418C48.6978 62.7418 26.8469 68.0922 18.8989 73.8248C10.9509 79.5574 0.889078 78.4764 0.116022 77.4936C-0.657034 76.5109 2.43518 58.4178 9.32021 56.0046C16.2052 53.5915 23.0661 57.5006 29.6975 50.7962C36.3289 44.0918 48.6978 62.7418 48.6978 62.7418Z" fill="#7DA479"/>
<path d="M30.8569 18.6719C30.8569 18.6719 30.2288 18.5299 29.2745 18.2351C26.4118 17.3288 20.5777 14.9593 19.6717 10.0784C18.4638 3.64703 25.8199 0 25.8199 0C26.7564 1.70493 28.1416 3.17598 29.8538 4.28401C31.566 5.39204 33.5529 6.10318 35.6402 6.35499C42.6701 7.06474 59.9673 12.9065 59.9673 12.9065L30.2288 18.4863" fill="#7DA479"/>
<path d="M140.547 47.6295C140.547 47.6295 152.167 37.3218 152.276 30.2243C152.384 23.1268 145.572 5.68883 138.409 3.10098C131.246 0.513127 125.75 -0.742567 127.61 6.01643C129.47 12.7754 137.418 13.4633 132.671 23.8693C127.924 34.2754 123.479 34.9633 123.479 34.9633L140.547 47.6295Z" fill="#7DA479"/>
<path d="M140.317 61.6494C140.317 61.6494 142.407 67.109 148.144 68.4412C154.353 69.9153 165.465 72.514 167.869 74.9927C170.273 77.4714 179.429 88.8383 172.387 94.9203C167.652 99.015 155.548 91.7428 151.321 90.0284C147.093 88.3141 146.175 84.2958 141.803 83.4223C137.43 82.5488 127.392 78.6725 127.392 78.6725L125.146 64.947L140.317 61.6494Z" fill="#7DA479"/>
<path d="M133.806 68.0159C133.806 68.0159 141.923 67.0987 143.892 62.8621C145.861 58.6254 141.174 42.6069 129.397 35.2256C117.62 27.8442 98.9221 16.6629 90.3339 15.3198C81.7457 13.9768 46.3422 3.96386 30.4825 16.2589C14.6228 28.5539 26.0737 40.1938 26.0737 40.1938C26.0737 40.1938 49.6277 74.3818 65.9344 76.6094C65.9344 76.6094 72.8194 78.0835 75.4163 76.9588C75.4163 76.9588 77.1195 81.9598 81.4558 83.0517C85.7922 84.1436 100.456 85.8907 100.456 85.8907C100.456 85.8907 103.367 89.5595 114.323 89.7015C125.278 89.8434 127.513 85.4212 129.603 80.5512C131.245 76.442 132.648 72.2578 133.806 68.0159Z" fill="#7DA479"/>
<path d="M133.807 68.0164C133.807 68.0164 133.722 68.2675 133.565 68.7698L132.901 70.9537C132.285 72.8973 131.415 75.7909 129.99 79.4161C129.253 81.439 128.234 83.369 126.958 85.1596C125.306 87.2145 122.839 88.6115 120.073 89.0577C116.904 89.5831 113.664 89.6568 110.47 89.2761C108.719 89.1053 106.994 88.7649 105.324 88.2606C103.57 87.7931 101.975 86.933 100.686 85.7601L100.614 85.6837H100.541C96.3013 85.1596 91.7838 84.5918 87.0609 83.8274C85.853 83.6418 84.6451 83.4453 83.4372 83.216C81.5606 83.0395 79.7939 82.3307 78.39 81.1911C76.9862 80.0515 76.0173 78.5396 75.6221 76.8719L75.5254 76.6207L75.2476 76.719C73.8029 77.1252 72.2766 77.2371 70.7784 77.0466C69.1529 76.908 67.539 76.6746 65.9468 76.3478C63.7889 75.9792 61.7199 75.2695 59.8348 74.2513C57.8791 73.2097 56.0172 72.0304 54.2664 70.7244C50.6563 67.9806 47.2918 64.983 44.2046 61.7597C37.6528 54.9283 31.6733 47.6651 26.3156 40.0305C25.3414 38.9446 24.5291 37.7478 23.8998 36.4708C23.5825 35.8187 23.3042 35.1517 23.0663 34.4726C22.8472 33.7851 22.6817 33.0845 22.5711 32.3761C22.1108 29.4656 22.6461 26.4976 24.1051 23.87C25.3584 21.6059 27.0523 19.5642 29.1058 17.8426C31.02 16.0388 33.2947 14.579 35.8097 13.5404C40.8007 11.5961 46.1744 10.5822 51.609 10.5595C62.3231 10.3084 72.5782 12.0773 82.181 14.01C84.5968 14.4904 86.9522 15.0036 89.3196 15.4404C91.6374 15.8044 93.897 16.4241 96.0477 17.2857C100.171 18.9604 104.181 20.8564 108.054 22.9637C115.591 27.0038 122.38 31.1422 128.528 34.9749C134.023 38.4647 138.322 43.2816 140.933 48.875C142.074 51.1306 142.952 53.4873 143.554 55.907C144.138 57.9224 144.293 60.0195 144.013 62.0873C143.771 62.88 143.355 63.6207 142.791 64.2659C142.227 64.911 141.525 65.4474 140.728 65.8435C139.574 66.4761 138.336 66.975 137.044 67.3285C136.25 67.56 135.444 67.7531 134.628 67.9072L133.795 68.0601C134.91 67.9516 136.01 67.7431 137.08 67.4377C138.392 67.0998 139.65 66.6118 140.825 65.9854C141.654 65.5854 142.386 65.0377 142.976 64.3753C143.565 63.7129 144 62.9494 144.255 62.1309C144.558 60.034 144.423 57.9042 143.856 55.8524C143.26 53.4092 142.39 51.0274 141.259 48.744C139.964 46.1085 138.343 43.6139 136.428 41.308C134.292 38.7152 131.691 36.4639 128.733 34.6473C122.597 30.8037 115.821 26.6544 108.272 22.5816C104.378 20.4509 100.344 18.5365 96.1926 16.849C94.0055 15.9744 91.7102 15.3402 89.3559 14.9599C87.0126 14.5232 84.633 14.01 82.2293 13.5186C72.5661 11.575 62.3231 9.77334 51.5124 10.0245C45.995 10.0484 40.5394 11.077 35.4715 13.0491C32.8952 14.0984 30.5629 15.5806 28.5985 17.4168C26.4933 19.1836 24.7548 21.2767 23.465 23.5971C21.9546 26.3272 21.3985 29.4081 21.8705 32.4307C21.9936 33.1676 22.167 33.897 22.3899 34.6145C22.6346 35.3173 22.925 36.0064 23.2596 36.6782C23.9034 38.0123 24.7445 39.2613 25.76 40.3908C31.1409 48.0649 37.1488 55.3647 43.7335 62.2292C46.8463 65.4703 50.2391 68.4825 53.8799 71.2376C55.6528 72.5607 57.539 73.7546 59.5207 74.8081C61.4643 75.8733 63.6043 76.613 65.8381 76.992C67.4589 77.3181 69.1009 77.5515 70.7542 77.6908C71.5586 77.7398 72.3657 77.7398 73.17 77.6908C73.9703 77.6865 74.762 77.5419 75.5013 77.265L75.1389 77.123C75.9237 79.4149 77.5518 81.3953 79.7531 82.7355C80.8885 83.2616 82.1133 83.6121 83.3768 83.7728C84.5847 83.9912 85.7926 84.1987 87.0005 84.3734C91.7354 85.105 96.253 85.6837 100.505 86.1969L100.348 86.1095C101.686 87.3449 103.348 88.2539 105.179 88.752C106.879 89.252 108.632 89.5887 110.41 89.7566C113.65 90.1309 116.936 90.0388 120.145 89.4836C122.988 89.009 125.516 87.5569 127.199 85.4326C128.476 83.6182 129.487 81.6619 130.207 79.6126C131.608 75.9547 132.442 73.0611 133.009 71.1065L133.625 68.8681C133.758 68.2566 133.807 68.0164 133.807 68.0164Z" fill="#326A3B"/>
<path d="M25.2399 23.3994L25.5298 23.4758L26.3994 23.6287L29.7212 24.1747L42.0055 26.1183L82.9775 32.3641H82.8809L85.961 33.7399L105.384 42.5517L105.287 42.4862L115.905 53.6019C117.499 55.2726 118.997 56.8777 120.398 58.2972C121.619 59.701 122.982 60.9987 124.469 62.1735C126.627 63.7647 128.886 65.2413 131.233 66.5958C132.042 67.0763 132.683 67.4257 133.117 67.6877C133.329 67.8155 133.551 67.9287 133.782 68.0262C133.588 67.8738 133.383 67.7351 133.166 67.6113L131.342 66.5194C129.759 65.5148 127.404 64.0735 124.698 61.9988C123.257 60.8123 121.931 59.5154 120.736 58.1225L116.291 53.3836L105.734 42.2023L86.3233 33.3686L83.2311 31.9601L42.235 25.889L29.9144 24.131L26.5685 23.6833L25.6988 23.5741L25.2399 23.3994Z" fill="#326A3B"/>
<path d="M160.851 82.342C161.217 82.2628 161.6 82.2839 161.953 82.4025C162.306 82.5211 162.612 82.7319 162.832 83.0081C163.16 83.3089 163.399 83.6799 163.525 84.0866C163.652 84.4933 163.663 84.9224 163.556 85.3339C163.347 85.8535 162.928 86.2822 162.384 86.5335C161.839 86.7848 161.209 86.84 160.621 86.6879C160.044 86.4991 159.55 86.1478 159.211 85.6859C158.871 85.2239 158.705 84.6756 158.737 84.1219C158.821 83.019 159.751 82.8225 160.851 82.342Z" fill="#326A3B"/>
<path d="M146.442 83.1926C146.492 81.9306 146.719 80.6794 147.118 79.4691C147.695 78.3272 148.465 77.2736 149.401 76.3462C149.401 76.2807 148.894 76.4554 148.278 76.9359C147.493 77.5754 146.892 78.3772 146.526 79.2726C146.151 80.163 146.002 81.1184 146.091 82.0679C146.164 82.7886 146.357 83.2035 146.442 83.1926Z" fill="#326A3B"/>
<path d="M161.95 92.6822C161.842 92.8023 162.53 93.4684 163.484 94.1672C164.439 94.866 165.296 95.3246 165.405 95.2045C165.514 95.0844 164.837 94.4183 163.871 93.7195C162.905 93.0207 162.059 92.5621 161.95 92.6822Z" fill="#326A3B"/>
<path d="M170.514 94.4735C170.671 94.55 170.973 94.2988 171.19 93.9276C171.408 93.5563 171.468 93.185 171.311 93.1195C171.154 93.054 170.852 93.2833 170.635 93.6655C170.417 94.0477 170.405 94.3971 170.514 94.4735Z" fill="#326A3B"/>
<path d="M157.046 81.6535C157.046 81.7518 157.747 81.5553 158.822 81.6535C159.516 81.6857 160.196 81.8411 160.823 82.111C161.451 82.3808 162.014 82.7598 162.479 83.2262C162.945 83.6927 163.304 84.2374 163.536 84.8294C163.769 85.4214 163.87 86.049 163.834 86.6764C163.834 87.6591 163.52 88.2378 163.617 88.2706C164.029 87.8348 164.26 87.2825 164.269 86.7091C164.373 86.0165 164.309 85.3118 164.081 84.6439C163.853 83.9761 163.467 83.361 162.95 82.8415C162.433 82.322 161.797 81.9105 161.086 81.6356C160.375 81.3607 159.606 81.2289 158.834 81.2495C158.204 81.19 157.571 81.3331 157.046 81.6535Z" fill="#326A3B"/>
<g opacity="0.3">
<path d="M115.76 69.5555C116.283 68.2395 116.608 66.866 116.727 65.4718C117.054 64.1062 117.172 62.7062 117.077 61.3115C116.23 63.9935 115.787 66.7665 115.76 69.5555Z" fill="black"/>
<path d="M95.4308 72.1441C98.4884 72.1576 101.543 71.9825 104.575 71.62C107.622 71.4438 110.653 71.079 113.646 70.5281C110.593 70.5072 107.541 70.6787 104.514 71.0413C101.462 71.2236 98.4277 71.592 95.4308 72.1441Z" fill="black"/>
<path d="M77.5059 58.7139C80.0663 60.9895 82.777 63.1226 85.623 65.1016C88.3343 67.2297 91.1775 69.2166 94.1387 71.0526C91.5777 68.7776 88.867 66.6444 86.0216 64.6648C83.313 62.5337 80.4696 60.5467 77.5059 58.7139Z" fill="black"/>
<path d="M77.4095 42.792C77.2283 42.792 77.494 45.631 77.6027 49.1033C77.7115 52.5756 77.6028 55.4037 77.8202 55.4146C78.5063 51.218 78.3673 46.9449 77.4095 42.792Z" fill="black"/>
<path d="M92.1934 37.748C89.91 37.7931 87.6434 38.1126 85.4533 38.698C83.2131 39.1027 81.0435 39.7785 79.0031 40.7071C81.2278 40.3269 83.4292 39.8421 85.5982 39.2549C87.8242 38.857 90.0256 38.354 92.1934 37.748Z" fill="black"/>
<path d="M60.5347 65.8333C60.6071 65.9862 64.0738 64.796 68.4222 63.4966C72.7707 62.1972 76.334 61.3128 76.2856 61.1162C75.4654 61.1479 74.6533 61.2764 73.8698 61.4984C72.3962 61.8041 70.3911 62.3064 68.2048 62.9616C66.0185 63.6167 64.0859 64.2937 62.7089 64.8287C61.9355 65.0695 61.2035 65.4077 60.5347 65.8333Z" fill="black"/>
<path d="M47.5865 62.2188C48.9159 62.9913 50.3487 63.6077 51.8504 64.0532C53.2769 64.6666 54.7882 65.1037 56.3438 65.3526C55.0143 64.58 53.5815 63.9636 52.0799 63.5181C50.6534 62.9047 49.142 62.4676 47.5865 62.2188Z" fill="black"/>
<path d="M61.5612 35.5752C63.521 36.5974 65.5837 37.4493 67.7215 38.1194C69.778 38.9694 71.917 39.6457 74.1113 40.1394C72.1535 39.121 70.0953 38.2693 67.9631 37.5953C65.9011 36.7483 63.7584 36.0721 61.5612 35.5752Z" fill="black"/>
<path d="M43.576 39.9975C43.6605 40.1504 46.8856 38.9056 50.9562 37.5517C55.0269 36.1977 58.3969 35.3132 58.3486 35.1494C55.7375 35.49 53.1821 36.117 50.7388 37.0166C48.224 37.7386 45.818 38.7399 43.576 39.9975Z" fill="black"/>
<path d="M41.269 54.9136C41.9192 50.5723 42.1536 46.1883 41.9695 41.8105C41.5426 43.9734 41.3204 46.1651 41.3052 48.3621C41.081 50.5407 41.0689 52.733 41.269 54.9136Z" fill="black"/>
<path d="M59.122 29.5703C58.9417 30.5673 59.08 31.5901 59.5205 32.5185C59.771 33.5079 60.3332 34.4106 61.1392 35.1173C60.8825 34.1687 60.539 33.241 60.1124 32.3438C59.882 31.3926 59.5503 30.4638 59.122 29.5703Z" fill="black"/>
<path d="M31.6062 41.8109C33.4881 41.8342 35.3673 41.6731 37.2109 41.3305C39.0896 41.1505 40.9407 40.7843 42.731 40.2385C40.849 40.2152 38.9699 40.3763 37.1263 40.719C35.2465 40.8927 33.3945 41.259 31.6062 41.8109Z" fill="black"/>
<path d="M98.0404 82.1351C98.1355 80.8236 98.0175 79.5066 97.6901 78.226C97.5621 76.9172 97.2328 75.6309 96.7117 74.4043C96.6164 75.7158 96.7344 77.0328 97.062 78.3134C97.1858 79.6228 97.5153 80.9096 98.0404 82.1351Z" fill="black"/>
<path d="M129.941 71.2923C128.077 70.8148 126.133 70.6483 124.203 70.8009C122.27 70.7602 120.343 71.0301 118.514 71.5981C118.514 71.7619 121.087 71.4452 124.228 71.3688C127.368 71.2923 129.917 71.4015 129.941 71.2923Z" fill="black"/>
<path d="M131.113 52.282C129.315 52.0152 127.476 52.0708 125.701 52.4458C123.893 52.6242 122.144 53.1293 120.556 53.9308C120.616 54.0837 122.911 53.4504 125.81 53.0027C128.709 52.555 131.113 52.4458 131.113 52.282Z" fill="black"/>
<path d="M134.35 41.5596C133.965 42.5704 133.785 43.6357 133.818 44.7043C133.645 45.7609 133.682 46.8369 133.927 47.8818C134.304 46.8695 134.48 45.8048 134.446 44.7371C134.619 43.6809 134.587 42.6055 134.35 41.5596Z" fill="black"/>
<path d="M104.624 25.0052C106.537 25.3926 108.521 25.3926 110.434 25.0052C109.5 24.7289 108.512 24.6358 107.535 24.7322C106.554 24.6395 105.563 24.7325 104.624 25.0052Z" fill="black"/>
<path d="M100.939 37.9114C101.169 36.3068 101.193 34.6837 101.012 33.0742C101.034 31.4544 100.843 29.838 100.444 28.2588C100.214 29.8633 100.19 31.4864 100.372 33.096C100.351 34.7157 100.542 36.332 100.939 37.9114Z" fill="black"/>
<path d="M94.1625 18.8799C94.6224 20.1003 95.2732 21.2549 96.0951 22.3085C96.7435 23.4554 97.5781 24.508 98.5713 25.4314C97.4672 23.0629 95.9815 20.8552 94.1625 18.8799Z" fill="black"/>
</g>
<g opacity="0.3">
<path d="M142.442 65.0455C142.572 65.4751 142.588 65.9262 142.49 66.3625C142.391 66.7987 142.18 67.2079 141.874 67.557C141.261 68.2513 140.56 68.878 139.785 69.4242C137.011 71.6492 134.887 74.4583 133.6 77.6026C133.417 78.2778 133.018 78.8893 132.453 79.3607C131.837 79.7647 130.738 79.6118 130.581 78.9457C130.542 78.6993 130.571 78.4481 130.665 78.2141C131.692 74.7309 132.779 71.477 133.806 67.9937C136.904 67.7004 139.841 66.6003 142.261 64.8271" fill="black"/>
</g>
<path d="M164.281 74.7865C164.281 74.8739 165.332 75.2888 166.769 76.3916C168.598 77.8574 170.06 79.6592 171.057 81.6765C172.036 83.7158 172.804 85.8321 173.352 87.9987C173.534 88.9151 173.809 89.8143 174.174 90.6849C174.161 89.7495 174.027 88.8187 173.775 87.9114C173.356 85.6813 172.634 83.5065 171.625 81.4363C170.6 79.3415 169.029 77.502 167.047 76.075C166.443 75.6451 165.786 75.2788 165.09 74.983C164.595 74.8193 164.305 74.7538 164.281 74.7865Z" fill="white"/>
<path d="M40.375 14.5121H40.689L41.607 14.4466L45.1583 14.1736C48.2384 14.0426 52.6956 13.7696 58.2036 13.977C64.6575 14.1948 71.0828 14.8666 77.4213 15.9862C85.1752 17.37 92.7607 19.4363 100.069 22.1555C103.848 23.5682 107.542 25.161 111.134 26.9272C114.504 28.5358 117.76 30.3337 120.882 32.3104C126.218 35.5872 130.892 39.6685 134.7 44.3761C137.242 47.5666 139.181 51.1162 140.437 54.8804C140.779 55.9038 141.061 56.9425 141.283 57.9924C141.355 58.3309 141.404 58.5929 141.452 58.8113C141.469 58.9085 141.497 59.0037 141.537 59.0952C141.411 57.6495 141.124 56.2191 140.679 54.8258C139.5 51.0007 137.6 47.3881 135.062 44.1468C131.276 39.353 126.586 35.1987 121.208 31.8736C118.074 29.8728 114.807 28.0494 111.424 26.414C107.819 24.6303 104.109 23.0265 100.311 21.6096C86.9323 16.6073 72.6523 13.8649 58.1794 13.5184C53.8144 13.4201 49.4468 13.5477 45.0979 13.9006L41.5587 14.2828L40.6407 14.392C40.5461 14.4199 40.4565 14.4603 40.375 14.5121Z" fill="white"/>
<path d="M106.229 47.083C108.203 49.4959 110.504 51.675 113.078 53.569C112.178 52.3069 111.107 51.1515 109.889 50.1295C108.817 48.9777 107.587 47.954 106.229 47.083Z" fill="white"/>
<g opacity="0.3">
<path d="M144.98 79.4929C145.021 78.8449 145.204 78.2108 145.519 77.6278C145.835 77.0447 146.275 76.5243 146.816 76.097C147.349 75.6358 148.02 75.3267 148.746 75.2083C149.472 75.0898 150.221 75.1673 150.898 75.4309C149.416 76.1848 148.117 77.2026 147.081 78.4228C146.59 79.0962 146.272 79.8613 146.153 80.6611C146.034 81.4608 146.116 82.2746 146.393 83.0416C145.909 82.5641 145.535 82.0045 145.293 81.3953C145.05 80.7862 144.944 80.1395 144.98 79.4929Z" fill="black"/>
</g>
<g opacity="0.3">
<path d="M98.4265 85.9893C99.7559 85.9105 101.072 86.2671 102.135 86.9938C107.945 89.8547 114.492 89.8656 121.062 89.0903C116.772 91.8321 111.505 93.0311 106.29 92.4534C104.288 92.2945 102.362 91.6865 100.685 90.6845C99.8563 90.175 99.2041 89.4634 98.8043 88.6324C98.4045 87.8013 98.2735 86.8849 98.4265 85.9893Z" fill="black"/>
</g>
<g opacity="0.3">
<path d="M33.0314 49.3447L45.5332 63.8018C41.8453 63.0715 38.5629 61.1836 36.2686 58.4732C33.9872 55.8925 32.835 52.6435 33.0314 49.3447Z" fill="black"/>
</g>
<path d="M70.9354 130.867C73.9521 130.097 76.9098 129.148 79.7893 128.028C82.7505 127.089 85.6362 125.965 88.4258 124.665C85.404 125.432 82.4422 126.381 79.5598 127.504C76.6008 128.44 73.7188 129.564 70.9354 130.867Z" fill="#326A3B"/>
<path d="M63.011 129.404C63.1197 129.546 66.1032 127.406 70.2584 125.593C74.4136 123.78 78.146 122.983 78.0977 122.809C77.2764 122.831 76.4629 122.96 75.6819 123.191C73.7366 123.66 71.8441 124.292 70.0289 125.08C68.2144 125.868 66.4874 126.812 64.8712 127.897C64.1641 128.304 63.5357 128.813 63.011 129.404Z" fill="#326A3B"/>
<path d="M0.997445 73.4759C5.2188 72.8996 9.36623 71.9449 13.3784 70.626C9.15706 71.2023 5.00963 72.157 0.997445 73.4759Z" fill="#326A3B"/>
<path d="M3.28084 66.4102C3.40163 66.5522 5.33428 65.1982 8.11245 64.1609C10.8906 63.1236 13.2702 62.7851 13.234 62.6104C9.50821 62.6661 5.95222 64.0286 3.31708 66.4102H3.28084Z" fill="#326A3B"/>
</svg>
