<svg width="164" height="227" viewBox="0 0 164 227" fill="none" xmlns="http://www.w3.org/2000/svg">
<path d="M83.148 227C69.5907 227 57.6187 224.91 47.232 220.729C36.8453 216.444 28.1533 210.487 21.156 202.858C14.1587 195.124 8.856 186.136 5.248 175.894C1.74933 165.547 0 154.364 0 142.345C0 119.457 4.756 98.1367 14.268 78.384C23.78 58.6312 38.376 41.857 58.056 28.0615C77.736 14.2659 102.773 4.91206 133.168 0V37.6243C121.688 39.7146 110.427 43.268 99.384 48.2845C88.3413 53.3011 78.5013 59.7808 69.864 67.7238C61.2267 75.6667 54.8853 85.0727 50.84 95.942C55.104 92.4931 60.516 89.7235 67.076 87.6333C73.636 85.4385 81.0707 84.3412 89.38 84.3412C103.703 84.3412 116.44 87.4243 127.592 93.5905C138.853 99.7567 147.709 108.17 154.16 118.83C160.72 129.49 164 141.614 164 155.2C164 169.309 160.501 181.746 153.504 192.511C146.507 203.276 136.885 211.741 124.64 217.907C112.504 223.969 98.6733 227 83.148 227ZM82.984 188.749C90.528 188.749 97.252 187.39 103.156 184.673C109.06 181.955 113.652 178.193 116.932 173.385C120.212 168.473 121.852 162.621 121.852 155.827C121.852 145.69 118.189 137.642 110.864 131.685C103.648 125.623 94.3547 122.593 82.984 122.593C75.3307 122.593 68.4973 124.003 62.484 126.825C56.58 129.543 51.9333 133.41 48.544 138.426C45.1547 143.443 43.46 149.243 43.46 155.827C43.46 162.621 45.1547 168.473 48.544 173.385C52.0427 178.193 56.744 181.955 62.648 184.673C68.6613 187.39 75.44 188.749 82.984 188.749Z" fill="#9D0006"/>
</svg>
