<svg width="1377" height="1329" viewBox="0 0 1377 1329" fill="none" xmlns="http://www.w3.org/2000/svg">
<path d="M650.538 1328C870.092 1328 1048.08 1152.12 1048.08 935.154C1048.08 718.191 870.092 542.308 650.538 542.308C430.984 542.308 253 718.191 253 935.154C253 1152.12 430.984 1328 650.538 1328Z" fill="url(#paint0_linear_33_9)" stroke="#263238" stroke-miterlimit="10"/>
<path d="M570.69 1298.62C592.007 1303.21 613.693 1305.93 635.494 1306.76" stroke="#263238" stroke-miterlimit="10"/>
<path d="M521.976 1284.67C532.751 1288.53 543.706 1291.95 554.81 1294.84" stroke="#263238" stroke-miterlimit="10"/>
<path d="M288.551 833.388C263.249 921.439 271.681 1015.62 312.234 1097.91C352.787 1180.2 422.616 1244.84 508.364 1279.45" stroke="#263238" stroke-miterlimit="10"/>
<path d="M339.146 726.401C325.552 746.22 313.907 767.279 304.371 789.289" stroke="#263238" stroke-miterlimit="10"/>
<path d="M596.659 760.676L637.195 768.965L651.015 783.124L669.015 785.867L674.746 802.739L670.537 814.184L658.269 819.73L628.18 814.892L627.375 811.235L641.583 801.442L631.762 783.537L604.868 779.879L590.54 767.756L596.659 760.676Z" fill="white" stroke="#263238" stroke-miterlimit="10"/>
<path d="M923.274 1130.25L891.126 1124.88L852.321 1120.01L823.785 1126.27L795.846 1126.68L767.787 1139.51L751.429 1144.08L741.281 1146.3L724.386 1161.46L707.61 1172.78L679.253 1162.76L679.999 1135.88L662.895 1132.93L644.478 1136.97L639.911 1129.51L638.06 1112.73L629.583 1105.03L617.076 1109.69L615.434 1119.6L600.002 1123.94L582.51 1110.6L572.063 1089.96L580.152 1061.43L607.256 1057.39L616.061 1062.17L627.135 1059.72L639.075 1048.51L651.851 1049.52L674.775 1074.09L681.014 1071.79L674.477 1051.14L666.507 1041.4L664.448 1023.71L695.252 1001.67L692.267 966.982L704.207 951.909L711.491 928.311L720.296 924.447L738.415 906.158L737.699 898.666L723.162 902.825L718.774 896.129L708.625 898.371L693.7 905.45L698.416 891.999L728.863 875.835L734.385 866.042L751.788 883.239L761.937 889.61L773.876 883.121L765.698 872.502L743.28 863.122L715.789 843.388L689.282 832.975L666.358 834.185L652.836 825.689L637.284 825.276L636.269 829.318L640.359 856.101L646.09 864.419L644.329 895.362L622.658 884.832V871.469L601.286 866.632L590.749 858.432L590.241 834.657L612.658 809.702L609.673 787.431L599.733 790.588L591.465 783.803L585.495 770.765L578.839 771.267L578.451 786.635L568.57 790.706L556.81 759.851L548.422 756.902L534.303 754.276L521.199 764.777L543.497 778.022L550.661 792.77L511.856 775.485L483.32 755.958L476.036 731.74L450.455 729.705L434.695 745.575C430.826 749.23 426.761 752.677 422.516 755.899C418.307 758.848 401.233 764.394 401.233 764.394L401.024 780.676L380.129 786.222L384.219 795.838L419.531 793.832L441.321 809.082L448.485 840.94L444.694 871.381L453.291 900.878L437.5 951.024L446.903 1018.66L463.798 1055.09L482.305 1081.64L496.543 1080.43L488.663 1066.86L478.842 1057.57L469.738 1038.54L477.618 1034.91L497.856 1064.85L513.617 1091.96L518.93 1115.56L541.139 1132.64L577.525 1148.8L628.27 1151.05L646.18 1161.46L660.507 1173.58L679.313 1179.95L700.804 1180.99L720.863 1175.62C720.863 1175.62 721.998 1184.91 723.013 1189.48C724.027 1194.05 714.625 1212.34 714.625 1212.34L708.655 1232.75L720.595 1251.16L742.713 1254.91L777.518 1277.77L791.637 1280.39L794.622 1294.05L797.607 1299.95C866.751 1272.86 926.78 1227.09 970.825 1167.86L969.839 1161.16L984.764 1111.02L970.944 1105.44L923.274 1130.25Z" fill="white" stroke="#263238" stroke-miterlimit="10"/>
<path d="M938.258 749.703L924.259 734.63L906.857 717.433L897.036 690.886L914.229 689.971L913.095 680.679L900.917 682.39L910.021 675.606L919.662 666.757L917.602 657.642L903.275 645.519L896.529 626.434C828.44 573.471 744.716 543.925 658.08 542.285C571.445 540.645 486.637 567.002 416.546 617.349L441.142 627.555L431.919 646.757L415.233 654.25L418.934 679.234L412.158 683.57L405.203 695.605L409.8 711.799L425.889 710.177L422.904 727.049L438.575 723.628L457.709 684.101L457.201 668.939L482.573 661.477L486.573 649.117L512.662 640.534L511.946 624.457L531.079 619.295C531.079 619.295 543.258 608.971 546.004 608.381C551.586 608.347 557.164 608.722 562.69 609.502L578.958 617.378L598.42 613.307L612.748 599.68L634.329 596.73C637.815 598.057 641.57 598.542 645.284 598.146C649.881 597.113 662.268 587.733 662.268 587.733L692.655 598.234L705.551 604.134L708.535 617.791L722.774 616.582L725.52 607.379L738.743 610.328L739.46 617.791L713.461 631.006L733.609 647.583L770.861 658.527L788.771 673.689L809.427 671.063L811.994 660.946L818.949 657.524L790.921 644.575L775.787 645.991L786.921 639.708L772.384 626.67L787.846 622.304L810.562 628.794L820.084 649.619L832.859 659.235L847.098 683.806L870.619 693.924L877.395 723.952L901.633 732.978L902.887 743.096V755.544L912.11 770.705L915.782 778.493L932.05 777.785L935.93 760.706L938.258 749.703Z" fill="white" stroke="#263238" stroke-miterlimit="10"/>
<path d="M929.752 655.37L930.916 660.591L929.603 676.166L935.214 688.319L946.169 689.735L950.049 707.02L938.11 704.896L946.378 754.658L939.841 777.106L952.915 800.969L967.362 809.258L978.407 858.43L998.973 894.004L1018.41 920.315L1040.82 921.112L1044.11 901.29L1046.58 898.34C1045.01 882.093 1042.42 865.958 1038.85 850.023C1022.33 776.067 984.426 708.445 929.752 655.37Z" fill="white" stroke="#263238" stroke-miterlimit="10"/>
<path d="M715.58 696.372L648.866 683.305L622.36 690.089L619.793 708.79L606.092 699.381L586.869 708.377L591.764 738.819L610.987 747.019L619.076 727.108L635.971 737.727L670.06 756.016L681.492 781.206L712.207 805.984L749.46 791.117L745.46 777.696L733.699 764.039L723.67 728.023L729.401 710.531L715.58 696.372Z" fill="white" stroke="#263238" stroke-miterlimit="10"/>
<path d="M769.817 705.487L755.191 704.868L745.46 717.522L757.848 742.477L769.817 739.852V705.487Z" fill="white" stroke="#263238" stroke-miterlimit="10"/>
<path d="M859.366 703.983L824.382 694.456L815.457 684.958L808.711 689.323L819.248 706.107L830.113 728.555L845.157 730.973L847.098 726.726L835.725 714.897L861.724 718.732L859.366 703.983Z" fill="white" stroke="#263238" stroke-miterlimit="10"/>
<path d="M664.269 1091.58L661.403 1096.03L690.865 1098.15L704.775 1108.48L722.685 1106.44L726.893 1095.03L704.894 1096.03L664.269 1091.58Z" fill="white" stroke="#263238" stroke-miterlimit="10"/>
<path d="M750.117 1090.87L731.998 1100.57L736.416 1107.27L760.355 1101.99L763.34 1093.7L755.251 1096.45L750.117 1090.87Z" fill="white" stroke="#263238" stroke-miterlimit="10"/>
<path d="M1145.52 118.441C1145.52 114.692 1144.65 110.996 1142.97 107.647C1141.3 104.298 1138.87 101.391 1135.88 99.1571C1132.89 96.9235 1129.42 95.4258 1125.75 94.784C1122.08 94.1422 1118.31 94.3741 1114.75 95.4611C1112.35 88.6119 1107.9 82.6792 1102.01 78.4783C1096.13 74.2773 1089.09 72.0142 1081.88 72.0001C1074.66 71.9859 1067.62 74.2213 1061.72 78.3991C1055.81 82.5769 1051.34 88.4921 1048.92 95.3318C1046.83 94.7307 1044.66 94.426 1042.49 94.4264C1036.66 94.5141 1031.06 96.7508 1026.75 100.713C1022.44 104.676 1019.73 110.09 1019.12 115.931C1018.51 121.772 1020.05 127.635 1023.44 132.412C1026.84 137.188 1031.86 140.547 1037.54 141.853L1127.23 141.831C1132.45 140.571 1137.09 137.577 1140.41 133.333C1143.73 129.088 1145.53 123.842 1145.52 118.441Z" fill="white" stroke="#263238" stroke-miterlimit="10"/>
<path d="M1166.87 130.362C1166.88 128.517 1166.45 126.697 1165.63 125.048C1164.8 123.399 1163.61 121.968 1162.13 120.869C1160.66 119.77 1158.95 119.035 1157.15 118.721C1155.34 118.408 1153.49 118.526 1151.73 119.066C1150.57 115.67 1148.39 112.723 1145.48 110.637C1142.58 108.551 1139.1 107.43 1135.53 107.43C1131.96 107.43 1128.48 108.551 1125.58 110.637C1122.68 112.723 1120.49 115.67 1119.33 119.066C1117.81 118.635 1116.23 118.516 1114.66 118.716C1113.1 118.916 1111.59 119.431 1110.23 120.23C1108.87 121.029 1107.68 122.097 1106.74 123.368C1105.79 124.64 1105.11 126.089 1104.74 127.631C1104.37 129.172 1104.3 130.774 1104.56 132.34C1104.81 133.906 1105.38 135.404 1106.22 136.745C1107.06 138.087 1108.16 139.244 1109.46 140.147C1110.76 141.05 1112.22 141.682 1113.76 142.003H1157.88C1160.47 141.378 1162.77 139.885 1164.4 137.769C1166.04 135.654 1166.91 133.042 1166.87 130.362Z" fill="white" stroke="#263238" stroke-miterlimit="10"/>
<path d="M1195.51 392.379C1195.51 388.63 1194.64 384.934 1192.96 381.585C1191.29 378.236 1188.86 375.329 1185.87 373.095C1182.88 370.861 1179.41 369.364 1175.74 368.722C1172.07 368.08 1168.3 368.312 1164.74 369.399C1162.32 362.566 1157.87 356.651 1151.99 352.462C1146.11 348.274 1139.09 346.017 1131.88 346C1124.68 345.984 1117.65 348.208 1111.75 352.37C1105.85 356.531 1101.37 362.426 1098.93 369.248C1096.84 368.647 1094.67 368.342 1092.5 368.343C1086.67 368.431 1081.07 370.667 1076.76 374.63C1072.45 378.592 1069.74 384.006 1069.13 389.847C1068.52 395.688 1070.06 401.552 1073.45 406.328C1076.85 411.105 1081.87 414.464 1087.55 415.769L1177.24 415.597C1182.43 414.339 1187.04 411.369 1190.36 407.16C1193.67 402.952 1195.48 397.748 1195.51 392.379Z" fill="white" stroke="#263238" stroke-miterlimit="10"/>
<path d="M1098.4 413.997C1098.4 410.864 1097.17 407.859 1094.97 405.644C1092.77 403.428 1089.78 402.184 1086.67 402.184C1085.52 402.168 1084.37 402.321 1083.26 402.637C1082.1 399.24 1079.92 396.294 1077.01 394.207C1074.11 392.121 1070.63 391 1067.06 391C1063.49 391 1060.02 392.121 1057.11 394.207C1054.21 396.294 1052.02 399.24 1050.86 402.637C1049.84 402.35 1048.79 402.205 1047.73 402.205C1044.83 402.206 1042.04 403.287 1039.88 405.24C1037.73 407.193 1036.37 409.88 1036.06 412.783C1035.76 415.686 1036.54 418.6 1038.24 420.961C1039.94 423.323 1042.46 424.966 1045.29 425.574H1089.43C1092 424.946 1094.29 423.461 1095.92 421.359C1097.55 419.258 1098.43 416.663 1098.4 413.997Z" fill="white" stroke="#263238" stroke-miterlimit="10"/>
<path d="M127.531 715.45C127.538 711.7 126.671 708.001 125 704.65C123.33 701.298 120.902 698.387 117.912 696.151C114.922 693.914 111.452 692.414 107.782 691.771C104.112 691.128 100.343 691.36 96.7785 692.449C94.3724 685.602 89.9202 679.672 84.033 675.474C78.1458 671.276 71.1121 669.014 63.8973 669C56.6824 668.986 49.64 671.22 43.7366 675.395C37.8331 679.57 33.358 685.482 30.9253 692.319C28.8339 691.728 26.6728 691.424 24.5006 691.414C18.6667 691.502 13.0671 693.738 8.76068 697.701C4.45429 701.664 1.73976 707.077 1.13049 712.918C0.521213 718.759 2.05944 724.623 5.45424 729.399C8.84905 734.176 13.8651 737.535 19.5536 738.84L109.242 738.668C114.437 737.425 119.065 734.459 122.382 730.248C125.699 726.037 127.513 720.825 127.531 715.45Z" fill="white" stroke="#263238" stroke-miterlimit="10"/>
<path d="M150.381 738.923C150.381 735.79 149.144 732.785 146.943 730.57C144.742 728.354 141.757 727.109 138.645 727.109C137.492 727.109 136.345 727.276 135.24 727.605C134.075 724.217 131.889 721.278 128.987 719.198C126.086 717.118 122.612 716 119.05 716C115.487 716 112.013 717.118 109.112 719.198C106.21 721.278 104.024 724.217 102.859 727.605C101.346 727.185 99.7647 727.074 98.2084 727.28C96.6521 727.485 95.1526 728.003 93.7986 728.803C92.4447 729.602 91.2638 730.666 90.3258 731.933C89.3878 733.2 88.7119 734.644 88.3379 736.178C87.964 737.713 87.8996 739.307 88.1487 740.867C88.3978 742.427 88.9552 743.921 89.788 745.261C90.6208 746.6 91.7121 747.757 92.9972 748.665C94.2823 749.572 95.7351 750.21 97.2697 750.542H141.407C143.989 749.913 146.281 748.422 147.911 746.311C149.541 744.201 150.412 741.596 150.381 738.923Z" fill="white" stroke="#263238" stroke-miterlimit="10"/>
<path d="M1210.38 982.923C1210.38 979.79 1209.14 976.785 1206.94 974.57C1204.74 972.354 1201.76 971.109 1198.64 971.109C1197.49 971.109 1196.35 971.276 1195.24 971.605C1194.07 968.217 1191.89 965.278 1188.99 963.198C1186.09 961.118 1182.61 960 1179.05 960C1175.49 960 1172.01 961.118 1169.11 963.198C1166.21 965.278 1164.02 968.217 1162.86 971.605C1161.35 971.185 1159.76 971.074 1158.21 971.28C1156.65 971.485 1155.15 972.003 1153.8 972.803C1152.44 973.602 1151.26 974.666 1150.33 975.933C1149.39 977.2 1148.71 978.644 1148.34 980.178C1147.96 981.713 1147.9 983.307 1148.15 984.867C1148.4 986.427 1148.96 987.921 1149.79 989.261C1150.62 990.6 1151.71 991.757 1153 992.665C1154.28 993.572 1155.74 994.21 1157.27 994.542H1201.41C1203.99 993.913 1206.28 992.422 1207.91 990.311C1209.54 988.201 1210.41 985.596 1210.38 982.923Z" fill="white" stroke="#263238" stroke-miterlimit="10"/>
<path d="M1375.16 505.055L1357.66 517.278L1357.77 538.706L1340.81 525.75L1320.59 532.476L1327.59 512.233L1315 494.944L1336.29 495.397L1348.73 478L1354.88 498.523L1375.16 505.055Z" fill="white" stroke="#263238" stroke-miterlimit="10"/>
<path d="M165.777 870.586L161.58 885.267L171.217 897.08L156.033 897.598L147.852 910.468L142.691 896.11L128 892.252L139.971 882.852L139.072 867.59L151.643 876.148L165.777 870.586Z" fill="white" stroke="#263238" stroke-miterlimit="10"/>
<path d="M1092.58 623.725L1088.68 637.078L1097.6 647.824L1083.56 648.294L1075.99 660L1071.19 646.941L1057.6 643.431L1068.68 634.882L1067.84 621L1079.48 628.784L1092.58 623.725Z" fill="white" stroke="#263238" stroke-miterlimit="10"/>
<path d="M98.9851 1113.73L95.0803 1127.08L104 1137.82L89.9663 1138.29L82.3944 1150L77.5976 1136.94L64 1133.43L75.0803 1124.88L74.2478 1111L85.883 1118.78L98.9851 1113.73Z" fill="white" stroke="#263238" stroke-miterlimit="10"/>
<path d="M39.4698 3.09108L36.5359 13.3955L43.2818 21.6736L32.6382 22.0185L26.9202 31.0511L23.2795 20.9838L13 18.2675L21.395 11.6925L20.7525 1L29.5758 7.01453L39.4698 3.09108Z" fill="white" stroke="#263238" stroke-miterlimit="10"/>
<path d="M157.575 477.53L148.366 482.919L147.574 493.612L139.65 486.476L129.306 488.998L133.589 479.19L128 470.092L138.601 471.17L145.475 463L147.724 473.477L157.575 477.53Z" fill="white" stroke="#263238" stroke-miterlimit="10"/>
<path d="M1311.49 516.091L1308.54 526.396L1315.3 534.674L1304.66 535.019L1298.92 544.051L1295.3 533.984L1285 531.289L1293.39 524.692L1292.77 514L1301.58 520.015L1311.49 516.091Z" fill="white" stroke="#263238" stroke-miterlimit="10"/>
<path d="M852.799 72.9965L848.58 87.6771L858.217 99.4906L843.055 100.008L834.874 112.878L829.691 98.5205L815 94.6617L826.971 85.2627L826.072 70L838.643 78.5583L852.799 72.9965Z" fill="white" stroke="#263238" stroke-miterlimit="10"/>
<defs>
<linearGradient id="paint0_linear_33_9" x1="650.538" y1="542.308" x2="650.538" y2="1328" gradientUnits="userSpaceOnUse">
<stop offset="0.479256" stop-color="#92BCE3" stop-opacity="0.54"/>
<stop offset="1" stop-color="#FF0000" stop-opacity="0.06"/>
</linearGradient>
</defs>
</svg>
