<svg width="1375" height="1328" viewBox="0 0 1375 1328" fill="none" xmlns="http://www.w3.org/2000/svg">
<path d="M649.538 1327C869.092 1327 1047.08 1151.12 1047.08 934.154C1047.08 717.191 869.092 541.308 649.538 541.308C429.984 541.308 252 717.191 252 934.154C252 1151.12 429.984 1327 649.538 1327Z" fill="url(#paint0_radial_93_2)" stroke="#1E1E1E" stroke-miterlimit="10"/>
<path d="M569.69 1297.62C591.007 1302.21 612.693 1304.93 634.494 1305.76" stroke="#1E1E1E" stroke-miterlimit="10"/>
<path d="M520.976 1283.67C531.751 1287.53 542.706 1290.95 553.81 1293.84" stroke="#1E1E1E" stroke-miterlimit="10"/>
<path d="M287.551 832.388C262.249 920.439 270.681 1014.62 311.234 1096.91C351.787 1179.2 421.616 1243.84 507.364 1278.45" stroke="#1E1E1E" stroke-miterlimit="10"/>
<path d="M338.146 725.401C324.552 745.22 312.907 766.279 303.371 788.289" stroke="#1E1E1E" stroke-miterlimit="10"/>
<path d="M595.659 759.676L636.195 767.965L650.015 782.124L668.015 784.867L673.746 801.739L669.537 813.184L657.269 818.73L627.18 813.892L626.375 810.235L640.583 800.442L630.762 782.537L603.868 778.879L589.54 766.756L595.659 759.676Z" fill="white" stroke="#1E1E1E" stroke-miterlimit="10"/>
<path d="M922.274 1129.25L890.126 1123.88L851.321 1119.01L822.785 1125.27L794.846 1125.68L766.787 1138.51L750.429 1143.08L740.281 1145.3L723.386 1160.46L706.61 1171.78L678.253 1161.76L678.999 1134.88L661.895 1131.93L643.478 1135.97L638.911 1128.51L637.06 1111.73L628.583 1104.03L616.076 1108.69L614.434 1118.6L599.002 1122.94L581.51 1109.6L571.063 1088.96L579.152 1060.43L606.256 1056.39L615.061 1061.17L626.135 1058.72L638.075 1047.51L650.851 1048.52L673.775 1073.09L680.014 1070.79L673.477 1050.14L665.507 1040.4L663.448 1022.71L694.252 1000.67L691.267 965.982L703.207 950.909L710.491 927.311L719.296 923.447L737.415 905.158L736.699 897.666L722.162 901.825L717.774 895.129L707.625 897.371L692.7 904.45L697.416 890.999L727.863 874.835L733.385 865.042L750.788 882.239L760.937 888.61L772.876 882.121L764.698 871.502L742.28 862.122L714.789 842.388L688.282 831.975L665.358 833.185L651.836 824.689L636.284 824.276L635.269 828.318L639.359 855.101L645.09 863.419L643.329 894.362L621.658 883.832V870.469L600.286 865.632L589.749 857.431L589.241 833.657L611.658 808.702L608.673 786.431L598.733 789.588L590.465 782.803L584.495 769.765L577.839 770.267L577.451 785.635L567.57 789.706L555.81 758.851L547.422 755.902L533.303 753.276L520.199 763.777L542.497 777.022L549.661 791.77L510.856 774.485L482.32 754.958L475.036 730.74L449.455 728.705L433.695 744.575C429.826 748.23 425.761 751.677 421.516 754.899C417.307 757.848 400.233 763.394 400.233 763.394L400.024 779.676L379.129 785.222L383.219 794.838L418.531 792.832L440.321 808.082L447.485 839.94L443.694 870.381L452.291 899.878L436.5 950.024L445.903 1017.66L462.798 1054.09L481.305 1080.64L495.543 1079.43L487.663 1065.86L477.842 1056.57L468.738 1037.54L476.618 1033.91L496.857 1063.85L512.617 1090.96L517.93 1114.56L540.139 1131.64L576.525 1147.8L627.27 1150.05L645.18 1160.46L659.507 1172.58L678.313 1178.95L699.804 1179.99L719.863 1174.62C719.863 1174.62 720.998 1183.91 722.013 1188.48C723.027 1193.05 713.625 1211.34 713.625 1211.34L707.655 1231.75L719.595 1250.16L741.713 1253.91L776.518 1276.77L790.637 1279.39L793.622 1293.05L796.607 1298.95C865.751 1271.86 925.78 1226.09 969.825 1166.86L968.839 1160.16L983.764 1110.02L969.944 1104.44L922.274 1129.25Z" fill="white" stroke="#1E1E1E" stroke-miterlimit="10"/>
<path d="M937.258 748.703L923.259 733.63L905.857 716.433L896.036 689.886L913.229 688.971L912.095 679.679L899.917 681.39L909.021 674.606L918.662 665.757L916.602 656.642L902.275 644.519L895.529 625.434C827.44 572.471 743.716 542.925 657.08 541.285C570.445 539.645 485.637 566.002 415.546 616.349L440.142 626.555L430.919 645.757L414.233 653.25L417.934 678.234L411.158 682.57L404.203 694.605L408.8 710.799L424.889 709.177L421.904 726.049L437.575 722.628L456.709 683.101L456.201 667.94L481.573 660.477L485.573 648.117L511.662 639.534L510.946 623.457L530.079 618.295C530.079 618.295 542.258 607.971 545.004 607.381C550.586 607.347 556.164 607.722 561.69 608.502L577.958 616.378L597.42 612.307L611.748 598.68L633.329 595.73C636.815 597.057 640.57 597.542 644.284 597.146C648.881 596.113 661.268 586.733 661.268 586.733L691.655 597.234L704.551 603.134L707.535 616.791L721.774 615.582L724.52 606.379L737.743 609.328L738.46 616.791L712.461 630.006L732.609 646.583L769.861 657.527L787.771 672.689L808.427 670.063L810.994 659.946L817.949 656.524L789.921 643.575L774.787 644.991L785.921 638.708L771.384 625.67L786.846 621.304L809.562 627.794L819.084 648.619L831.859 658.235L846.098 682.806L869.619 692.924L876.395 722.952L900.633 731.978L901.887 742.096V754.544L911.11 769.705L914.782 777.493L931.05 776.785L934.93 759.706L937.258 748.703Z" fill="white" stroke="#1E1E1E" stroke-miterlimit="10"/>
<path d="M928.752 654.37L929.916 659.591L928.603 675.166L934.214 687.319L945.169 688.735L949.049 706.02L937.11 703.896L945.378 753.658L938.841 776.106L951.915 799.969L966.362 808.258L977.407 857.43L997.973 893.004L1017.41 919.315L1039.82 920.112L1043.11 900.29L1045.58 897.34C1044.01 881.093 1041.42 864.958 1037.85 849.023C1021.33 775.067 983.426 707.445 928.752 654.37Z" fill="white" stroke="#1E1E1E" stroke-miterlimit="10"/>
<path d="M714.58 695.372L647.866 682.305L621.36 689.089L618.793 707.79L605.092 698.381L585.869 707.377L590.764 737.819L609.987 746.019L618.076 726.108L634.971 736.727L669.06 755.016L680.492 780.206L711.207 804.984L748.46 790.117L744.46 776.696L732.699 763.039L722.67 727.023L728.401 709.531L714.58 695.372Z" fill="white" stroke="#1E1E1E" stroke-miterlimit="10"/>
<path d="M768.817 704.487L754.191 703.868L744.46 716.522L756.848 741.477L768.817 738.852V704.487Z" fill="white" stroke="#1E1E1E" stroke-miterlimit="10"/>
<path d="M858.366 702.983L823.382 693.456L814.457 683.958L807.711 688.323L818.248 705.107L829.114 727.555L844.158 729.973L846.098 725.726L834.725 713.897L860.724 717.732L858.366 702.983Z" fill="white" stroke="#1E1E1E" stroke-miterlimit="10"/>
<path d="M663.269 1090.58L660.403 1095.03L689.865 1097.15L703.775 1107.48L721.685 1105.44L725.893 1094.03L703.894 1095.03L663.269 1090.58Z" fill="white" stroke="#1E1E1E" stroke-miterlimit="10"/>
<path d="M749.116 1089.87L730.998 1099.57L735.415 1106.27L759.355 1100.99L762.34 1092.7L754.25 1095.45L749.116 1089.87Z" fill="white" stroke="#1E1E1E" stroke-miterlimit="10"/>
<path d="M1144.52 117.441C1144.52 113.692 1143.65 109.996 1141.97 106.647C1140.3 103.298 1137.87 100.391 1134.88 98.1571C1131.89 95.9235 1128.42 94.4258 1124.75 93.784C1121.08 93.1422 1117.31 93.3741 1113.75 94.4611C1111.35 87.6119 1106.9 81.6792 1101.01 77.4783C1095.13 73.2773 1088.09 71.0142 1080.88 71.0001C1073.66 70.9859 1066.62 73.2213 1060.72 77.3991C1054.81 81.5769 1050.34 87.4921 1047.92 94.3318C1045.83 93.7307 1043.66 93.426 1041.49 93.4264C1035.66 93.5141 1030.06 95.7508 1025.75 99.7135C1021.44 103.676 1018.73 109.09 1018.12 114.931C1017.51 120.772 1019.05 126.635 1022.44 131.412C1025.84 136.188 1030.86 139.547 1036.54 140.853L1126.23 140.831C1131.45 139.571 1136.09 136.577 1139.41 132.333C1142.73 128.088 1144.53 122.842 1144.52 117.441Z" fill="white"/>
<path d="M1165.87 129.362C1165.88 127.517 1165.45 125.697 1164.63 124.048C1163.8 122.399 1162.61 120.968 1161.13 119.869C1159.66 118.77 1157.95 118.035 1156.15 117.721C1154.34 117.408 1152.49 117.526 1150.73 118.066C1149.57 114.67 1147.39 111.723 1144.48 109.637C1141.58 107.551 1138.1 106.43 1134.53 106.43C1130.96 106.43 1127.48 107.551 1124.58 109.637C1121.68 111.723 1119.49 114.67 1118.33 118.066C1116.81 117.635 1115.23 117.516 1113.66 117.716C1112.1 117.916 1110.59 118.431 1109.23 119.23C1107.87 120.029 1106.68 121.097 1105.74 122.368C1104.79 123.64 1104.11 125.089 1103.74 126.631C1103.37 128.172 1103.3 129.774 1103.56 131.34C1103.81 132.906 1104.38 134.404 1105.22 135.745C1106.06 137.087 1107.16 138.244 1108.46 139.147C1109.76 140.05 1111.22 140.682 1112.76 141.003H1156.88C1159.47 140.378 1161.77 138.885 1163.4 136.769C1165.04 134.654 1165.91 132.042 1165.87 129.362Z" fill="white"/>
<path d="M1194.51 391.379C1194.51 387.63 1193.64 383.934 1191.96 380.585C1190.29 377.236 1187.86 374.329 1184.87 372.095C1181.88 369.861 1178.41 368.364 1174.74 367.722C1171.07 367.08 1167.3 367.312 1163.74 368.399C1161.32 361.566 1156.87 355.651 1150.99 351.462C1145.11 347.274 1138.09 345.017 1130.88 345C1123.68 344.984 1116.65 347.208 1110.75 351.37C1104.85 355.531 1100.37 361.426 1097.93 368.248C1095.84 367.647 1093.67 367.342 1091.5 367.343C1085.67 367.431 1080.07 369.667 1075.76 373.63C1071.45 377.592 1068.74 383.006 1068.13 388.847C1067.52 394.688 1069.06 400.552 1072.45 405.328C1075.85 410.105 1080.87 413.464 1086.55 414.769L1176.24 414.597C1181.43 413.339 1186.04 410.369 1189.36 406.16C1192.67 401.952 1194.48 396.748 1194.51 391.379Z" fill="white"/>
<path d="M1097.4 412.997C1097.4 409.864 1096.17 406.859 1093.97 404.644C1091.77 402.428 1088.78 401.184 1085.67 401.184C1084.52 401.168 1083.37 401.321 1082.26 401.637C1081.1 398.24 1078.92 395.294 1076.01 393.207C1073.11 391.121 1069.63 390 1066.06 390C1062.49 390 1059.02 391.121 1056.11 393.207C1053.21 395.294 1051.02 398.24 1049.86 401.637C1048.84 401.35 1047.79 401.205 1046.73 401.205C1043.83 401.206 1041.04 402.287 1038.88 404.24C1036.73 406.193 1035.37 408.88 1035.06 411.783C1034.76 414.686 1035.54 417.6 1037.24 419.961C1038.94 422.323 1041.46 423.966 1044.29 424.574H1088.43C1091 423.946 1093.29 422.461 1094.92 420.359C1096.55 418.258 1097.43 415.663 1097.4 412.997Z" fill="white"/>
<path d="M126.531 714.45C126.538 710.7 125.671 707.001 124 703.65C122.33 700.298 119.902 697.387 116.912 695.151C113.922 692.914 110.452 691.414 106.782 690.771C103.112 690.128 99.3435 690.36 95.7785 691.449C93.3724 684.602 88.9202 678.672 83.033 674.474C77.1458 670.276 70.1121 668.014 62.8973 668C55.6824 667.986 48.64 670.22 42.7366 674.395C36.8331 678.57 32.358 684.482 29.9253 691.319C27.8339 690.728 25.6728 690.424 23.5006 690.414C17.6667 690.502 12.0671 692.738 7.76068 696.701C3.45429 700.664 0.739761 706.077 0.130487 711.918C-0.478787 717.759 1.05944 723.623 4.45424 728.399C7.84905 733.176 12.8651 736.535 18.5536 737.84L108.242 737.668C113.437 736.425 118.065 733.459 121.382 729.248C124.699 725.037 126.513 719.825 126.531 714.45Z" fill="white"/>
<path d="M149.381 737.923C149.381 734.79 148.144 731.785 145.943 729.57C143.742 727.354 140.757 726.109 137.645 726.109C136.492 726.109 135.345 726.276 134.24 726.605C133.075 723.217 130.889 720.278 127.987 718.198C125.086 716.118 121.612 715 118.05 715C114.487 715 111.013 716.118 108.112 718.198C105.21 720.278 103.024 723.217 101.859 726.605C100.346 726.185 98.7647 726.074 97.2084 726.28C95.6521 726.485 94.1526 727.003 92.7986 727.803C91.4447 728.602 90.2638 729.666 89.3258 730.933C88.3878 732.2 87.7119 733.644 87.3379 735.178C86.964 736.713 86.8996 738.307 87.1487 739.867C87.3978 741.427 87.9552 742.921 88.788 744.261C89.6208 745.6 90.7121 746.757 91.9972 747.665C93.2823 748.572 94.7351 749.21 96.2697 749.542H140.407C142.989 748.913 145.281 747.422 146.911 745.311C148.541 743.201 149.412 740.596 149.381 737.923Z" fill="white"/>
<path d="M1209.38 981.923C1209.38 978.79 1208.14 975.785 1205.94 973.57C1203.74 971.354 1200.76 970.109 1197.64 970.109C1196.49 970.109 1195.35 970.276 1194.24 970.605C1193.07 967.217 1190.89 964.278 1187.99 962.198C1185.09 960.118 1181.61 959 1178.05 959C1174.49 959 1171.01 960.118 1168.11 962.198C1165.21 964.278 1163.02 967.217 1161.86 970.605C1160.35 970.185 1158.76 970.074 1157.21 970.28C1155.65 970.485 1154.15 971.003 1152.8 971.803C1151.44 972.602 1150.26 973.666 1149.33 974.933C1148.39 976.2 1147.71 977.644 1147.34 979.178C1146.96 980.713 1146.9 982.307 1147.15 983.867C1147.4 985.427 1147.96 986.921 1148.79 988.261C1149.62 989.6 1150.71 990.757 1152 991.665C1153.28 992.572 1154.74 993.21 1156.27 993.542H1200.41C1202.99 992.913 1205.28 991.422 1206.91 989.311C1208.54 987.201 1209.41 984.596 1209.38 981.923Z" fill="white"/>
<path d="M1374.16 504.055L1356.66 516.278L1356.77 537.706L1339.81 524.75L1319.59 531.476L1326.59 511.233L1314 493.944L1335.29 494.397L1347.73 477L1353.88 497.523L1374.16 504.055Z" fill="white"/>
<path d="M164.777 869.586L160.58 884.267L170.217 896.08L155.033 896.598L146.852 909.468L141.691 895.11L127 891.252L138.971 881.852L138.072 866.59L150.643 875.148L164.777 869.586Z" fill="white"/>
<path d="M1091.58 622.725L1087.68 636.078L1096.6 646.824L1082.56 647.294L1074.99 659L1070.19 645.941L1056.6 642.431L1067.68 633.882L1066.84 620L1078.48 627.784L1091.58 622.725Z" fill="white"/>
<path d="M97.9851 1112.73L94.0803 1126.08L103 1136.82L88.9663 1137.29L81.3944 1149L76.5976 1135.94L63 1132.43L74.0803 1123.88L73.2478 1110L84.883 1117.78L97.9851 1112.73Z" fill="white"/>
<path d="M38.4698 2.09108L35.5359 12.3955L42.2818 20.6736L31.6382 21.0185L25.9202 30.0511L22.2795 19.9838L12 17.2675L20.395 10.6925L19.7525 0L28.5758 6.01453L38.4698 2.09108Z" fill="white"/>
<path d="M156.575 476.53L147.366 481.919L146.574 492.612L138.65 485.476L128.306 487.998L132.589 478.19L127 469.092L137.601 470.17L144.475 462L146.724 472.477L156.575 476.53Z" fill="white"/>
<path d="M1310.49 515.091L1307.54 525.396L1314.3 533.674L1303.66 534.019L1297.92 543.051L1294.3 532.984L1284 530.289L1292.39 523.692L1291.77 513L1300.58 519.015L1310.49 515.091Z" fill="white"/>
<path d="M851.799 71.9965L847.58 86.6771L857.217 98.4906L842.055 99.008L833.874 111.878L828.691 97.5205L814 93.6617L825.971 84.2627L825.072 69L837.643 77.5583L851.799 71.9965Z" fill="white"/>
<defs>
<radialGradient id="paint0_radial_93_2" cx="0" cy="0" r="1" gradientUnits="userSpaceOnUse" gradientTransform="translate(650 934) rotate(90.0674) scale(393 397.694)">
<stop stop-color="#B2FFA6"/>
<stop offset="1" stop-color="#88E2FF" stop-opacity="0.61"/>
</radialGradient>
</defs>
</svg>
