<svg width="206" height="231" viewBox="0 0 206 231" fill="none" xmlns="http://www.w3.org/2000/svg">
<path d="M191.548 121.11C191.548 121.11 176.855 107.813 170.962 108.723C165.069 109.634 161.62 122.732 157.386 122.782C153.152 122.832 146.27 109.626 136.243 114.702C126.216 119.779 126.382 136.421 119.238 137.021C112.094 137.62 67.7921 83.9452 67.7921 83.9452L45.6766 102.168C45.6766 102.168 92.3566 153.858 90.2579 160.651C88.1592 167.443 71.7714 163.639 64.5201 172.221C57.2688 180.802 68.8631 190.367 67.8966 194.422C66.9301 198.476 55.9932 198.269 53.8342 203.768C51.6751 209.266 58.8099 227.004 58.8099 227.004L118.628 163.423L191.548 121.11Z" fill="white" stroke="#263238" stroke-miterlimit="10"/>
<path d="M48.2827 54.5869L77.8102 61.016L87.9129 74.0617L70.6064 87.2029C70.6064 87.2029 63.9126 73.3232 48.2827 54.5869Z" fill="url(#paint0_linear_33_34)" stroke="#263238" stroke-miterlimit="10"/>
<path d="M18.1654 77.3854L16.6664 107.347L26.7691 120.393L44.1579 107.258C44.1579 107.258 32.358 97.2059 18.1654 77.3854Z" fill="url(#paint1_linear_33_34)" stroke="#263238" stroke-miterlimit="10"/>
<path d="M3.58806 28.1004C3.58806 28.1004 -4.3353 75.5723 44.1244 107.183L72.2208 85.9689C72.2208 85.9689 55.7314 35.4808 3.58806 28.1004Z" fill="white" stroke="#263238" stroke-miterlimit="10"/>
<path d="M31.8064 97.6604C35.6964 101.135 39.8472 104.313 44.2229 107.167L72.2207 85.9694C70.5021 81.1313 68.3385 76.4589 65.7569 72.0109L31.8064 97.6604Z" fill="url(#paint2_linear_33_34)" stroke="#263238" stroke-miterlimit="10"/>
<path d="M40.4681 60.3266C41.2531 53.6654 36.425 47.6366 29.6842 46.8609C22.9434 46.0851 16.8426 50.8563 16.0576 57.5174C15.2726 64.1786 20.1007 70.2075 26.8415 70.9832C33.5822 71.7589 39.6831 66.9878 40.4681 60.3266Z" fill="url(#paint3_linear_33_34)" stroke="#263238" stroke-miterlimit="10"/>
<path d="M34.4729 54.2012C33.5443 53.0084 32.2788 52.1144 30.8363 51.6319C29.3938 51.1495 27.839 51.1003 26.3682 51.4905C24.8975 51.8807 23.5767 52.6929 22.5728 53.8245C21.5688 54.956 20.9267 56.3562 20.7276 57.8482C20.5284 59.3401 20.7811 60.857 21.4538 62.2071C22.1264 63.5572 23.1889 64.6801 24.507 65.4339C25.825 66.1876 27.3396 66.5385 28.8593 66.4422C30.379 66.3459 31.8358 65.8067 33.0456 64.8928C33.8511 64.2843 34.527 63.5248 35.0349 62.6577C35.5427 61.7905 35.8723 60.8329 36.0049 59.8397C36.1375 58.8465 36.0704 57.8371 35.8075 56.8696C35.5446 55.902 35.0911 54.9952 34.4729 54.2012Z" fill="white" stroke="#263238" stroke-miterlimit="10"/>
<defs>
<linearGradient id="paint0_linear_33_34" x1="65.9105" y1="51.6226" x2="71.8583" y2="86.9924" gradientUnits="userSpaceOnUse">
<stop stop-color="#2A8CC4" stop-opacity="0.81"/>
<stop offset="1" stop-color="#FF0E0E" stop-opacity="0"/>
</linearGradient>
<linearGradient id="paint1_linear_33_34" x1="25.0607" y1="76.2259" x2="32.3306" y2="119.458" gradientUnits="userSpaceOnUse">
<stop stop-color="#2A8CC4" stop-opacity="0.81"/>
<stop offset="1" stop-color="#FF0E0E" stop-opacity="0"/>
</linearGradient>
<linearGradient id="paint2_linear_33_34" x1="49.086" y1="74.8143" x2="54.2432" y2="105.482" gradientUnits="userSpaceOnUse">
<stop stop-color="#2A8CC4" stop-opacity="0.81"/>
<stop offset="1" stop-color="#FF0E0E" stop-opacity="0"/>
</linearGradient>
<linearGradient id="paint3_linear_33_34" x1="16.0576" y1="57.5174" x2="40.4602" y2="60.3932" gradientUnits="userSpaceOnUse">
<stop stop-color="#2A8CC4" stop-opacity="0.81"/>
<stop offset="1" stop-color="#FF0E0E" stop-opacity="0"/>
</linearGradient>
</defs>
</svg>
