<svg width="352" height="198" viewBox="0 0 352 198" fill="none" xmlns="http://www.w3.org/2000/svg">
<path d="M234 133V134" stroke="#E4F14C" stroke-width="7" stroke-linecap="round"/>
<path d="M251.72 148H218.234C206.257 148 198.526 135.325 204.008 124.676L220.06 93.4987C225.901 82.1535 242.021 81.8758 248.25 93.0132L265.685 124.191C271.649 134.856 263.94 148 251.72 148Z" stroke="#E4F14C" stroke-width="6"/>
<path d="M234 97V122" stroke="#E4F14C" stroke-width="6" stroke-linecap="round"/>
<path d="M88 197.64C136.601 197.64 176 192.572 176 186.32C176 180.068 136.601 175 88 175C39.3989 175 0 180.068 0 186.32C0 192.572 39.3989 197.64 88 197.64Z" fill="#436A4A"/>
<path d="M115.84 15.92L105.88 44H97.32L87.36 15.92H94.64L101.6 37.12L108.6 15.92H115.84ZM125.419 15.92V32.72C125.419 34.4 125.832 35.6933 126.659 36.6C127.485 37.5067 128.699 37.96 130.299 37.96C131.899 37.96 133.125 37.5067 133.979 36.6C134.832 35.6933 135.259 34.4 135.259 32.72V15.92H142.099V32.68C142.099 35.1867 141.565 37.3067 140.499 39.04C139.432 40.7733 137.992 42.08 136.179 42.96C134.392 43.84 132.392 44.28 130.179 44.28C127.965 44.28 125.979 43.8533 124.219 43C122.485 42.12 121.112 40.8133 120.099 39.08C119.085 37.32 118.579 35.1867 118.579 32.68V15.92H125.419ZM153.742 38.72H162.702V44H146.902V15.92H153.742V38.72ZM191.084 44H184.244L172.804 26.68V44H165.964V15.92H172.804L184.244 33.32V15.92H191.084V44ZM202.883 21.4V27.08H212.043V32.36H202.883V38.52H213.243V44H196.043V15.92H213.243V21.4H202.883ZM209.123 10.28L199.483 14.32V9.6L209.123 4.96V10.28ZM232.003 44L226.163 33.4H224.523V44H217.683V15.92H229.163C231.376 15.92 233.256 16.3067 234.803 17.08C236.376 17.8533 237.55 18.92 238.323 20.28C239.096 21.6133 239.483 23.1067 239.483 24.76C239.483 26.6267 238.95 28.2933 237.883 29.76C236.843 31.2267 235.296 32.2667 233.243 32.88L239.723 44H232.003ZM224.523 28.56H228.763C230.016 28.56 230.95 28.2533 231.563 27.64C232.203 27.0267 232.523 26.16 232.523 25.04C232.523 23.9733 232.203 23.1333 231.563 22.52C230.95 21.9067 230.016 21.6 228.763 21.6H224.523V28.56ZM261.257 39.04H250.777L249.097 44H241.937L252.097 15.92H260.017L270.177 44H262.937L261.257 39.04ZM259.497 33.76L256.017 23.48L252.577 33.76H259.497ZM290.269 29.6C291.896 29.9467 293.202 30.76 294.189 32.04C295.176 33.2933 295.669 34.7333 295.669 36.36C295.669 38.7067 294.842 40.5733 293.189 41.96C291.562 43.32 289.282 44 286.349 44H273.269V15.92H285.909C288.762 15.92 290.989 16.5733 292.589 17.88C294.216 19.1867 295.029 20.96 295.029 23.2C295.029 24.8533 294.589 26.2267 293.709 27.32C292.856 28.4133 291.709 29.1733 290.269 29.6ZM280.109 27.28H284.589C285.709 27.28 286.562 27.04 287.149 26.56C287.762 26.0533 288.069 25.32 288.069 24.36C288.069 23.4 287.762 22.6667 287.149 22.16C286.562 21.6533 285.709 21.4 284.589 21.4H280.109V27.28ZM285.149 38.48C286.296 38.48 287.176 38.2267 287.789 37.72C288.429 37.1867 288.749 36.4267 288.749 35.44C288.749 34.4533 288.416 33.68 287.749 33.12C287.109 32.56 286.216 32.28 285.069 32.28H280.109V38.48H285.149ZM306.476 38.72H315.436V44H299.636V15.92H306.476V38.72ZM325.539 21.4V27.08H334.699V32.36H325.539V38.52H335.899V44H318.699V15.92H335.899V21.4H325.539Z" fill="#20252C"/>
<path d="M96.5912 98.7985L101.535 101.909C101.535 101.909 109.486 112.718 112.32 117.416C115.153 122.114 115.934 122.689 114.979 125.852C114.426 127.836 114.453 129.882 115.059 131.858C115.059 131.858 108.72 172.082 107.195 175.093C105.67 178.103 104.701 179.258 103.725 179.553C102.75 179.849 94.3288 180.608 89.992 181.219C85.6552 181.831 93.5265 181.625 93.7361 182.622C93.9457 183.619 86.125 184.821 87.4983 185.258C88.8717 185.696 95.7094 183.481 100.025 183.597C104.34 183.713 104.932 184.278 101.608 185.016C98.2826 185.754 100.061 186.313 103.19 185.717C106.32 185.121 109.248 184.536 110.419 182.522C111.164 181.1 111.213 179.533 110.556 178.088C110.353 177.661 112.139 179.079 111.922 177.223C111.705 175.367 111.517 176.511 111.459 172.077C111.402 167.643 117.437 134.715 118.189 132.279C118.94 129.843 122.251 128.104 121.044 125.541C119.837 122.979 118.875 121.85 118.434 120.98C117.994 120.11 107.665 106.154 105.67 103.307C103.675 100.459 103.075 99.7529 103.068 99.1782C103.06 98.6034 102.822 95.751 102.822 95.751C102.822 95.751 97.9501 98.0709 96.5912 98.7985Z" fill="#A3A3A3"/>
<path d="M100.891 186.202C100.169 186.202 99.6266 186.097 99.5109 185.796C99.3591 185.406 99.9807 185.074 101.535 184.742C102.183 184.634 102.8 184.443 103.356 184.178C103.147 184.093 102.431 183.903 100.039 183.84C97.7545 183.772 94.6609 184.399 92.1744 184.895C89.688 185.39 88.0978 185.696 87.3894 185.48C87.2787 185.458 87.1812 185.41 87.1119 185.343C87.0426 185.276 87.0055 185.195 87.0064 185.111C87.0064 184.747 87.7292 184.541 89.7097 183.998C90.8156 183.698 93.4249 182.997 93.4104 182.659C93.396 182.322 90.9963 182.132 90.2301 182.037C88.8495 181.895 88.3869 181.847 88.3725 181.51C88.358 181.172 88.7628 181.114 89.9554 180.946C91.9142 180.671 94.7693 180.355 97.2847 180.081C100.176 179.765 103.067 179.443 103.588 179.29C104.484 179.026 105.46 177.735 106.855 174.988C108.3 172.082 114.437 133.45 114.69 131.858C114.083 129.857 114.061 127.786 114.625 125.779C115.413 123.142 114.95 122.383 113.013 119.214C112.709 118.713 112.362 118.16 111.987 117.522C109.312 113.035 101.795 102.827 101.246 102.078L96.3523 98.9939C96.3119 98.9685 96.2799 98.9369 96.2586 98.9013C96.2374 98.8657 96.2274 98.827 96.2294 98.7882C96.2315 98.7484 96.2455 98.7093 96.2705 98.6738C96.2955 98.6383 96.3308 98.6072 96.374 98.5826C97.7328 97.8655 102.424 95.6247 102.626 95.5298C102.679 95.5031 102.74 95.4873 102.804 95.484C102.868 95.4808 102.932 95.4902 102.989 95.5113C103.046 95.5324 103.094 95.5643 103.128 95.6038C103.162 95.6433 103.181 95.6888 103.183 95.7354C103.183 95.8514 103.421 98.6037 103.429 99.1784C103.429 99.5791 103.826 100.138 104.997 101.815C105.286 102.21 105.611 102.674 105.987 103.212C106.761 104.314 108.842 107.145 111.047 110.145C115.427 116.119 118.55 120.385 118.781 120.886C118.926 121.186 119.15 121.529 119.431 121.966C120.176 123.096 120.83 124.256 121.39 125.441C122.2 127.16 121.116 128.541 120.068 129.87C119.399 130.63 118.887 131.458 118.55 132.327C117.827 134.594 111.77 167.627 111.828 172.067C111.864 175.077 111.965 175.499 112.088 176.037C112.146 176.295 112.218 176.59 112.283 177.192C112.348 177.793 112.232 178.188 111.878 178.362C111.76 178.418 111.626 178.452 111.487 178.462C111.347 178.472 111.206 178.458 111.076 178.42C111.593 179.815 111.481 181.293 110.758 182.638C109.515 184.805 106.363 185.406 103.306 185.986C102.515 186.125 101.705 186.198 100.891 186.202ZM100.364 185.649C101.295 185.706 102.232 185.633 103.125 185.433C106.016 184.905 108.987 184.32 110.093 182.39C110.796 181.037 110.842 179.548 110.223 178.172C110.185 178.112 110.174 178.045 110.191 177.979C110.208 177.914 110.252 177.855 110.317 177.808C110.534 177.671 110.779 177.761 110.982 177.808C111.184 177.856 111.423 177.94 111.466 177.914C111.51 177.887 111.64 177.824 111.567 177.218C111.495 176.612 111.43 176.358 111.372 176.105C111.242 175.525 111.141 175.104 111.105 172.056C111.047 167.601 117.147 134.468 117.849 132.195C118.193 131.275 118.729 130.398 119.439 129.596C120.451 128.304 121.412 127.091 120.711 125.599C120.161 124.432 119.517 123.289 118.781 122.177C118.526 121.809 118.299 121.431 118.102 121.044C117.863 120.517 113.729 114.907 110.404 110.377C108.235 107.377 106.125 104.546 105.344 103.433L104.361 102.036C103.089 100.254 102.706 99.7162 102.706 99.189C102.706 98.7672 102.561 97.0799 102.496 96.2258C101.332 96.7847 98.5062 98.145 97.1763 98.8199L101.766 101.715C101.801 101.735 101.83 101.76 101.853 101.788C101.932 101.899 109.869 112.666 112.652 117.321C113.027 117.949 113.374 118.502 113.671 119.003C115.637 122.22 116.172 123.084 115.333 125.9C114.797 127.842 114.822 129.844 115.405 131.779C115.416 131.812 115.416 131.846 115.405 131.879C115.152 133.519 109.052 172.167 107.527 175.177C106.002 178.188 104.997 179.443 103.855 179.786C101.72 180.144 99.5609 180.419 97.3859 180.608C94.8777 180.882 92.0299 181.199 90.0855 181.468H90.0205L90.324 181.499C92.4925 181.721 93.9814 181.926 94.1188 182.554C94.2561 183.181 92.6732 183.74 89.9482 184.468C89.3483 184.631 88.5893 184.837 88.1195 184.995C89.4283 184.864 90.7195 184.652 91.9793 184.362C94.5091 183.835 97.6678 183.234 100.06 183.308C103.515 183.397 104.05 183.745 104.115 184.104C104.18 184.462 103.501 184.853 101.737 185.243C101.264 185.334 100.809 185.47 100.386 185.649H100.364Z" fill="#263238"/>
<path d="M110.563 178.056C110.361 177.629 112.146 179.047 111.929 177.191C111.725 176.238 111.59 175.277 111.524 174.312C111.055 174.914 110.418 175.699 109.833 176.385C108.698 177.719 107.238 179.891 105.279 181.23C103.32 182.569 99.4968 182.474 96.8875 182.612C94.2782 182.749 98.0368 182 101.947 180.893C102.86 180.659 103.674 180.255 104.307 179.721C104.941 179.188 105.373 178.543 105.561 177.85C104.838 178.868 104.267 179.358 103.682 179.538C102.706 179.828 94.2854 180.592 89.9486 181.204C85.6117 181.815 93.4831 181.61 93.6927 182.606C93.9023 183.603 86.0815 184.805 87.4549 185.243C88.8282 185.68 95.666 183.466 99.9811 183.582C104.296 183.698 104.889 184.262 101.564 185C98.2392 185.738 100.017 186.297 103.147 185.701C106.277 185.105 109.204 184.52 110.375 182.506C111.142 181.083 111.209 179.511 110.563 178.056Z" fill="#263238"/>
<path d="M100.891 186.202C100.169 186.202 99.6266 186.097 99.5109 185.796C99.3591 185.406 99.9807 185.074 101.535 184.742C102.183 184.634 102.8 184.443 103.356 184.178C103.147 184.093 102.431 183.903 100.039 183.84C97.6461 183.777 94.6609 184.399 92.1744 184.895C89.688 185.39 88.0978 185.696 87.3894 185.48C87.2787 185.458 87.1812 185.41 87.1119 185.343C87.0426 185.276 87.0055 185.195 87.0064 185.111C87.0064 184.747 87.7292 184.541 89.7097 183.998C90.8156 183.698 93.4249 182.997 93.4104 182.659C93.396 182.322 90.9963 182.132 90.2301 182.037C88.8495 181.895 88.3869 181.847 88.3725 181.51C88.358 181.172 88.7628 181.114 89.9554 180.946C91.9142 180.671 94.7693 180.355 97.2847 180.081C100.176 179.764 103.067 179.443 103.588 179.29C104.108 179.137 104.65 178.636 105.279 177.708C105.316 177.648 105.383 177.6 105.466 177.574C105.549 177.548 105.643 177.546 105.728 177.568C105.813 177.59 105.884 177.634 105.927 177.692C105.97 177.751 105.981 177.818 105.958 177.882C105.754 178.618 105.292 179.303 104.617 179.869C103.942 180.436 103.076 180.865 102.106 181.114C100.935 181.446 99.8073 181.736 98.8098 181.995L97.6605 182.29H98.1665C100.53 182.2 103.472 182.095 105.033 181.03C106.469 179.91 107.685 178.65 108.647 177.286C108.951 176.907 109.233 176.553 109.5 176.232C110.1 175.525 110.751 174.719 111.184 174.165C111.223 174.116 111.283 174.077 111.355 174.055C111.427 174.033 111.506 174.029 111.582 174.044C111.658 174.056 111.726 174.087 111.776 174.131C111.825 174.175 111.854 174.229 111.856 174.286C111.864 174.86 111.932 175.433 112.059 176C112.117 176.258 112.189 176.553 112.254 177.155C112.319 177.756 112.203 178.151 111.849 178.325C111.731 178.381 111.597 178.415 111.458 178.425C111.318 178.435 111.177 178.421 111.047 178.383C111.56 179.778 111.448 181.256 110.729 182.601C109.486 184.768 106.334 185.369 103.277 185.949C102.497 186.099 101.697 186.184 100.891 186.202ZM100.364 185.649C101.295 185.706 102.232 185.633 103.125 185.432C106.016 184.905 108.987 184.32 110.093 182.39C110.796 181.036 110.842 179.548 110.223 178.172C110.185 178.112 110.174 178.044 110.191 177.979C110.208 177.914 110.252 177.855 110.317 177.808C110.534 177.671 110.779 177.761 110.982 177.808C111.184 177.856 111.423 177.94 111.466 177.914C111.509 177.887 111.64 177.824 111.567 177.218C111.495 176.611 111.43 176.358 111.372 176.105C111.302 175.814 111.254 175.52 111.228 175.225C110.888 175.647 110.505 176.111 110.143 176.538C109.876 176.843 109.601 177.191 109.305 177.566C108.298 178.976 107.026 180.277 105.525 181.431C103.768 182.627 100.682 182.738 98.2026 182.833L96.9161 182.886C96.2872 182.917 95.7451 182.944 95.6584 182.638C95.5716 182.332 95.9619 182.2 98.5496 181.531C99.5398 181.272 100.667 181.003 101.824 180.656C102.514 180.468 103.149 180.187 103.696 179.828C102.973 179.991 100.769 180.239 97.3714 180.613C94.8633 180.888 92.0154 181.204 90.0711 181.473H90.006L90.3096 181.504C92.478 181.726 93.967 181.931 94.1043 182.559C94.2417 183.186 92.6587 183.745 89.9337 184.473C89.3338 184.636 88.5749 184.842 88.105 185C89.414 184.87 90.7053 184.658 91.9648 184.367C94.4946 183.84 97.6533 183.229 100.046 183.313C103.501 183.403 104.036 183.751 104.101 184.109C104.166 184.468 103.486 184.858 101.723 185.248C101.255 185.338 100.805 185.473 100.386 185.649H100.364ZM110.902 177.972L110.563 178.061L110.91 177.972H110.902Z" fill="#263238"/>
<path d="M102.822 95.751C102.822 95.751 97.9502 98.0709 96.5913 98.7985L101.535 101.909L103.219 104.219C104.064 103.956 104.882 103.651 105.67 103.307C103.668 100.465 103.075 99.7529 103.068 99.1782C103.06 98.6034 102.822 95.751 102.822 95.751Z" fill="#263238"/>
<path d="M103.219 104.483C103.154 104.482 103.089 104.469 103.033 104.444C102.977 104.419 102.932 104.383 102.901 104.34C102.012 103.117 101.391 102.268 101.246 102.078L96.3526 98.9939C96.3123 98.9685 96.2803 98.9369 96.259 98.9013C96.2377 98.8657 96.2277 98.827 96.2297 98.7882C96.2319 98.7484 96.2459 98.7093 96.2709 98.6738C96.2959 98.6383 96.3312 98.6072 96.3743 98.5826C97.7332 97.8655 102.424 95.6247 102.627 95.5298C102.679 95.5031 102.741 95.4873 102.804 95.484C102.868 95.4808 102.932 95.4902 102.989 95.5113C103.046 95.5324 103.094 95.5643 103.129 95.6038C103.163 95.6433 103.182 95.6888 103.183 95.7354C103.183 95.8514 103.422 98.6037 103.429 99.1784C103.429 99.5791 103.826 100.138 104.997 101.815C105.287 102.21 105.612 102.674 105.988 103.212C106.03 103.27 106.04 103.338 106.016 103.402C105.992 103.466 105.935 103.521 105.858 103.555C105.055 103.903 104.222 104.213 103.364 104.483C103.316 104.488 103.267 104.488 103.219 104.483ZM97.1766 98.8146L101.766 101.709C101.801 101.73 101.83 101.755 101.853 101.783L103.386 103.892C104.004 103.693 104.608 103.47 105.193 103.222C104.875 102.78 104.6 102.389 104.361 102.047C103.089 100.265 102.706 99.7268 102.706 99.1995C102.706 98.7777 102.562 97.0905 102.496 96.2363C101.333 96.7794 98.5066 98.1397 97.1766 98.8146Z" fill="#263238"/>
<path d="M121.051 125.51C120.512 124.36 119.88 123.235 119.157 122.141C118.432 122.115 117.709 122.213 117.045 122.427C116.381 122.642 115.795 122.966 115.334 123.375C115.378 124.203 115.259 125.033 114.98 125.837C114.535 127.412 114.459 129.031 114.755 130.624C115.088 130.831 115.474 130.987 115.89 131.083C116.411 131.192 116.958 131.217 117.493 131.157C118.028 131.097 118.539 130.953 118.991 130.735C120.184 129.011 121.998 127.513 121.051 125.51Z" fill="#263238"/>
<path d="M116.866 131.462C116.498 131.464 116.132 131.423 115.781 131.34C115.319 131.226 114.892 131.047 114.524 130.813C114.456 130.77 114.412 130.71 114.401 130.644C114.097 129.021 114.173 127.372 114.625 125.767C114.898 124.988 115.015 124.183 114.972 123.379C114.969 123.342 114.976 123.305 114.993 123.271C115.011 123.236 115.038 123.205 115.073 123.178C115.571 122.739 116.205 122.391 116.922 122.164C117.639 121.937 118.42 121.836 119.2 121.871C119.261 121.875 119.319 121.891 119.368 121.917C119.418 121.943 119.457 121.978 119.482 122.019C120.213 123.119 120.851 124.251 121.39 125.409C122.2 127.128 121.116 128.509 120.068 129.843C119.807 130.17 119.547 130.502 119.309 130.845C119.277 130.888 119.229 130.925 119.171 130.95C118.48 131.27 117.684 131.447 116.866 131.462ZM115.095 130.486C115.364 130.643 115.67 130.763 115.998 130.84C116.453 130.935 116.931 130.959 117.4 130.909C117.869 130.859 118.317 130.736 118.716 130.55C118.94 130.228 119.193 129.912 119.439 129.595C120.451 128.309 121.412 127.091 120.711 125.599C120.199 124.507 119.601 123.439 118.918 122.398C118.311 122.4 117.711 122.494 117.157 122.676C116.602 122.858 116.107 123.122 115.702 123.453C115.726 124.269 115.602 125.085 115.333 125.878C114.904 127.392 114.823 128.948 115.095 130.481V130.486Z" fill="#263238"/>
<path d="M59.4178 16.4203C59.4178 16.4203 55.305 13.4782 50.9248 14.422C46.5446 15.3658 42.562 20.2113 40.6682 21.1235C38.7745 22.0356 30.8525 25.1939 29.8261 30.0025C28.7997 34.8111 32.8185 43.1259 33.7437 41.9765C34.6689 40.8271 34.6111 37.6108 34.6111 37.6108C34.6111 37.6108 37.5384 33.7038 38.4636 32.4384C39.2585 31.3443 40.1875 30.3048 41.2392 29.3329C41.2392 29.3329 46.2555 28.9585 49.1901 28.136C51.844 27.3578 54.5565 26.6906 57.3144 26.1377C58.4059 26.0164 61.073 25.9953 60.5165 31.6001C59.9599 37.2048 56.288 43.4054 49.5081 52.6904C42.7282 61.9754 39.9598 65.4448 40.0683 73.7807C40.1767 82.1167 44.6292 86.5509 54.2064 87.9692C63.7835 89.3876 72.5656 90.2417 79.1721 92.0238C85.7785 93.806 88.4602 95.277 89.4287 97.2121C90.3973 99.1471 90.9105 102.801 91.2357 103.602C91.561 104.404 95.0088 104.488 95.0088 104.488C95.0088 104.488 97.6398 101.957 97.9361 100.697C98.2325 99.4371 100.56 97.8184 103.993 96.5372C107.427 95.2559 118.247 93.5002 123.263 93.5002C128.28 93.5002 142.512 91.6548 142.512 91.6548C142.512 91.6548 162.107 91.7444 164.796 94.1276C167.485 96.5108 169.357 95.2401 165.381 90.9219C161.406 86.6036 154.474 83.5666 154.474 83.5666C154.474 83.5666 157.626 84.6897 156.642 83.5666C155.659 82.4436 150.332 80.7563 150.332 80.7563C150.332 80.7563 155.5 80.2607 154.705 79.3538C153.91 78.447 146.538 78.0357 142.924 77.0339C140.798 76.4582 138.743 75.7527 136.78 74.9249C136.78 74.9249 139.758 75.0198 139.432 73.9916C139.107 72.9635 135.479 71.3922 132.204 70.1585C128.93 68.9247 121.167 65.3182 121.167 65.3182C121.167 65.3182 140.184 69.5363 137.654 67.7173C135.125 65.8982 124.434 63.2356 123.198 62.9034C121.962 62.5712 118.637 61.4482 118.637 61.4482C118.637 61.4482 132.45 63.5255 131.344 62.6187C130.238 61.7118 118.926 60.0773 110.773 59.3338C102.62 58.5904 81.7308 55.759 70.6719 60.7522C59.613 65.7453 58.3047 73.6436 56.1363 75.5154C53.9678 77.3872 49.7105 75.5154 52.1247 68.4554C55.2906 59.1704 57.4735 58.0157 59.772 54.2194C62.0705 50.4232 69.6527 42.2981 70.484 34.6002C71.7272 22.8845 64.9184 17.8703 59.4178 16.4203Z" fill="#E4F14C"/>
<path d="M95.0446 104.799C94.4229 104.799 91.3149 104.657 90.939 103.744C90.8234 103.454 90.686 102.838 90.5126 102.057C90.2289 100.47 89.7696 98.9027 89.1392 97.3699C88.1779 95.4401 85.3589 94.0323 79.0994 92.3398C74.3217 91.0533 68.2574 90.2308 61.8244 89.3608C59.3524 89.0286 56.8009 88.6859 54.1843 88.3063C44.4553 86.8616 39.8727 82.2745 39.7282 73.8594C39.627 65.7871 42.2002 62.2597 48.4019 53.7393L49.2042 52.632C55.7094 43.6686 59.6054 37.3785 60.1691 31.6313C60.4872 28.4678 59.7282 27.2182 59.0344 26.7489C58.81 26.6077 58.5436 26.5065 58.2562 26.4534C57.9689 26.4004 57.6686 26.3968 57.3791 26.4431C54.6486 26.9953 51.9628 27.659 49.3343 28.4309C46.7475 29.0294 44.0832 29.4322 41.3834 29.633C40.3948 30.5711 39.5147 31.5676 38.7524 32.612C37.8923 33.7826 35.3191 37.2308 34.9432 37.7264C34.9432 38.2168 34.9432 41.0271 34.0108 42.1396C33.9467 42.2333 33.8377 42.3065 33.7044 42.3454C33.5711 42.3842 33.423 42.3861 33.288 42.3505C31.7195 41.9445 28.4813 34.3994 29.4354 29.9916C30.3895 25.5837 36.8659 22.61 39.6414 21.3129C39.9667 21.1653 40.2414 21.0387 40.4365 20.9385C41.3237 20.3796 42.1302 19.7559 42.8435 19.0773C44.9179 17.2952 47.7586 14.8593 50.7944 14.2002C55.0878 13.2722 59.0343 15.8505 59.5837 16.2249C62.6917 17.0579 72.2906 20.7909 70.7944 34.5734C70.1583 40.4576 65.7348 46.4526 62.4821 50.8341C61.4774 52.1944 60.6101 53.3702 60.0535 54.2823C59.4319 55.2999 58.8392 56.1119 58.2031 56.9714C56.4973 59.2913 54.7409 61.7167 52.4207 68.4656C50.8956 72.942 52.0737 75.1776 53.541 75.7312C53.9299 75.8657 54.3716 75.8951 54.7874 75.8139C55.2031 75.7328 55.5658 75.5465 55.8106 75.2883C56.5401 74.4872 57.1187 73.6182 57.5309 72.7047C59.3018 69.5412 62.2653 64.1895 70.433 60.504C80.4511 55.9801 98.2538 57.7833 107.824 58.7535L110.766 59.0435C118.601 59.7553 130.281 61.3845 131.561 62.4179C131.64 62.4709 131.693 62.542 131.71 62.6195C131.727 62.6971 131.707 62.7765 131.655 62.845C131.525 63.0085 131.156 63.4724 121.629 62.1332C122.273 62.3388 122.873 62.5234 123.27 62.6288L123.733 62.7501C131.532 64.7695 136.295 66.3671 137.878 67.4954C138.218 67.738 138.305 67.9541 138.146 68.1492C137.553 68.8821 130.368 67.5481 123.559 66.0876C126.104 67.2529 130.187 69.0877 132.341 69.8892C136.982 71.6238 139.49 72.9736 139.786 73.9016C139.831 74.0234 139.835 74.1513 139.797 74.2743C139.759 74.3974 139.681 74.5119 139.569 74.6081C139.151 74.8989 138.606 75.0741 138.03 75.1037C139.651 75.7382 141.327 76.2965 143.046 76.7752C145.015 77.2406 147.03 77.5932 149.074 77.8297C152.428 78.3042 154.503 78.6206 155.009 79.1953C155.086 79.278 155.133 79.3739 155.144 79.4737C155.155 79.5735 155.131 79.6738 155.074 79.7647C154.712 80.3289 152.905 80.6769 151.582 80.8614C153.245 81.4308 156.208 82.5328 156.946 83.4133C157.047 83.5346 157.365 83.909 157.04 84.1726C156.928 84.2555 156.779 84.3061 156.62 84.3149C158.998 85.554 162.996 87.8897 165.656 90.7738C167.824 93.1254 168.547 94.9128 167.578 95.4454C166.892 95.8197 165.735 95.3926 164.492 94.2959C162.367 92.4189 147.867 91.9391 142.482 91.918C141.962 91.9865 128.221 93.7318 123.234 93.7634C118.384 93.8003 107.694 95.5244 104.166 96.8426C100.878 98.0658 98.5791 99.6265 98.2972 100.808C97.9936 102.115 95.406 104.609 95.3048 104.715C95.2712 104.74 95.2309 104.761 95.1863 104.776C95.1416 104.79 95.0934 104.798 95.0446 104.799ZM57.8489 25.8579C58.4783 25.8485 59.0878 26.0187 59.5475 26.3324C60.7257 27.1233 61.1811 28.9054 60.9137 31.6366C60.3354 37.4734 56.425 43.8374 49.8692 52.8482L49.0668 53.9554C42.9158 62.3916 40.3932 65.882 40.4727 73.8225C40.5811 82.0583 44.8529 86.3554 54.3216 87.7579C56.931 88.1428 59.4825 88.4908 61.9473 88.8124C68.4092 89.6877 74.5096 90.5102 79.3452 91.8125C85.8505 93.5683 88.7417 95.0657 89.8114 97.159C90.4578 98.7226 90.9292 100.322 91.2209 101.941C91.3799 102.674 91.5173 103.307 91.6257 103.565C91.7703 103.929 93.3893 104.198 94.8783 104.256C95.3771 103.76 97.3792 101.725 97.625 100.686C97.943 99.326 100.336 97.6599 103.87 96.3417C107.405 95.0236 118.326 93.2414 123.263 93.1782C128.2 93.1149 142.309 91.3907 142.453 91.3907C143.342 91.3907 162.309 91.512 165.077 93.9585C166.234 94.9814 167 95.1185 167.173 95.013C167.499 94.839 167.419 93.5947 165.085 91.0586C161.203 86.8405 154.358 83.8141 154.286 83.7824C154.206 83.7473 154.147 83.6908 154.123 83.6249C154.099 83.559 154.111 83.4889 154.156 83.4292C154.201 83.3703 154.276 83.3262 154.364 83.3057C154.453 83.2851 154.549 83.2897 154.633 83.3184C155.203 83.5349 155.811 83.6928 156.44 83.7877C156.417 83.7493 156.391 83.7122 156.36 83.677C155.637 82.807 151.676 81.4256 150.224 80.9669C150.153 80.9435 150.094 80.904 150.056 80.8542C150.018 80.8045 150.004 80.7471 150.014 80.6908C150.025 80.6345 150.06 80.5822 150.115 80.5416C150.169 80.5011 150.241 80.4746 150.318 80.466C152.125 80.292 154.221 79.886 154.445 79.5327C154.445 79.5327 154.445 79.5064 154.445 79.4695C154.083 79.0529 151.373 78.6733 148.98 78.3411C144.603 77.8945 140.4 76.7923 136.635 75.1037C136.568 75.0723 136.517 75.0263 136.488 74.9723C136.46 74.9183 136.455 74.8591 136.476 74.8032C136.503 74.7489 136.552 74.7018 136.617 74.6679C136.681 74.6341 136.758 74.6151 136.837 74.6134C137.524 74.6134 138.717 74.5554 139.056 74.2601C139.097 74.225 139.125 74.1826 139.136 74.1373C139.147 74.092 139.142 74.0452 139.121 74.0018C139.013 73.6538 138.102 72.5993 132.052 70.3426C128.771 69.1194 121.066 65.5287 120.986 65.4918C120.911 65.4579 120.855 65.4049 120.83 65.343C120.804 65.2812 120.811 65.2146 120.849 65.1561C120.886 65.0976 120.952 65.0511 121.033 65.0255C121.114 64.9999 121.206 64.997 121.29 65.0173C128.272 66.5622 135.905 67.991 137.423 67.8645C136.389 67.1211 133.136 65.7133 123.538 63.2299L123.075 63.1086C121.817 62.7765 118.615 61.6903 118.478 61.6481C118.433 61.637 118.391 61.6196 118.355 61.5968C118.32 61.574 118.29 61.5462 118.269 61.5151C118.248 61.484 118.235 61.4502 118.232 61.4156C118.229 61.381 118.235 61.3462 118.25 61.3133C118.265 61.2804 118.289 61.25 118.321 61.2239C118.352 61.1978 118.39 61.1764 118.433 61.1609C118.475 61.1455 118.522 61.1364 118.569 61.134C118.617 61.1317 118.664 61.1362 118.709 61.1472C123.595 61.8801 128.937 62.5392 130.65 62.5497C128.482 61.7378 119.121 60.3142 110.729 59.5496C109.869 59.4706 108.879 59.3704 107.773 59.2596C98.2972 58.3 80.6535 56.5126 70.8595 60.9363C62.9086 64.5322 60.1041 69.5623 58.2537 72.8893C57.8124 73.8549 57.1923 74.772 56.4106 75.6152C56.0594 75.9639 55.5518 76.2118 54.9761 76.3158C54.4003 76.4198 53.7928 76.3734 53.2591 76.1846C51.4738 75.5097 50.1438 73.0896 51.7701 68.3232C54.112 61.4689 55.8901 59.054 57.6176 56.7235C58.2465 55.8694 58.832 55.0679 59.4463 54.0873C60.0607 53.1066 60.892 51.9782 61.8967 50.6073C65.1059 46.268 69.5006 40.3258 70.1222 34.5523C71.5678 21.0335 62.2219 17.485 59.2801 16.7205C59.2307 16.7095 59.1859 16.6896 59.15 16.6625C59.1066 16.6625 55.1312 13.8364 51.0112 14.7275C48.185 15.3391 45.4239 17.7117 43.4073 19.4411C42.6564 20.157 41.8035 20.8127 40.863 21.3973L40.039 21.7822C37.3502 23.0212 31.0545 25.9264 30.1582 30.097C29.2403 34.3784 32.3917 41.1694 33.4542 41.8338C34.271 40.6949 34.2421 37.7106 34.2421 37.6843C34.2418 37.6384 34.2567 37.5932 34.2855 37.5524C34.2855 37.5524 37.2128 33.6455 38.138 32.3853C38.9451 31.2674 39.8962 30.2081 40.9786 29.2218C41.037 29.1796 41.1136 29.1535 41.1955 29.148C41.2461 29.148 46.1973 28.7631 49.0813 27.9616C51.7583 27.1762 54.495 26.5037 57.2779 25.9475C57.4651 25.9078 57.6559 25.8778 57.8489 25.8579Z" fill="#263238"/>
<path d="M91.2711 103.649L86.8186 131.178C86.8186 131.178 83.313 132.923 82.7492 134.341C82.1854 135.759 81.6144 137.636 81.6144 137.636C81.6144 137.636 51.1698 177.882 50.0061 179.037C48.258 180.505 46.0551 181.647 43.5803 182.369C41.6288 182.812 31.0541 183.46 32.8177 183.877C34.2399 184.177 35.689 184.404 37.1546 184.557C37.1546 184.557 28.1412 184.91 29.5217 185.469C30.9023 186.028 43.6309 185.227 40.8987 186.107C38.1665 186.988 34.8416 187.578 38.0075 187.689C41.1734 187.8 45.6403 186.635 48.5605 184.9C50.188 183.955 51.6842 182.895 53.0274 181.736L53.8225 182.875C54.1331 181.276 54.5724 179.691 55.138 178.13C55.8969 176.269 57.7979 171.803 68.4159 159.307C79.034 146.811 85.2067 139.171 87.1439 137.441C89.081 135.712 90.4471 135.132 90.8085 132.986C91.054 131.842 90.9728 130.674 90.57 129.554L95.0875 104.509L91.2711 103.649Z" fill="#A3A3A3"/>
<path d="M38.4269 187.99H37.9499C36.938 187.948 36.4103 187.874 36.338 187.558C36.2658 187.242 36.9235 186.989 38.7016 186.503C39.2293 186.356 39.822 186.187 40.393 186.013C39.3738 185.95 37.3861 185.966 35.8321 185.976C32.218 186.008 29.9918 186.008 29.3268 185.739C29.2151 185.706 29.1224 185.646 29.0644 185.57C29.0064 185.493 28.9868 185.403 29.0088 185.317C29.0666 185.143 29.1822 184.764 34.2563 184.468C33.7287 184.379 33.1866 184.278 32.7023 184.162C32.218 184.046 32.2397 183.904 32.2542 183.788C32.2976 183.414 32.8035 183.292 38.4559 182.734C40.138 182.6 41.8098 182.405 43.4649 182.148C45.8687 181.445 48.0109 180.338 49.7172 178.916C50.8375 177.809 80.2485 138.934 81.2749 137.579C81.3544 137.305 81.8748 135.618 82.4025 134.305C82.9301 132.992 85.8069 131.4 86.4791 131.052L90.9099 103.634C90.9162 103.596 90.9344 103.558 90.9632 103.526C90.992 103.493 91.0306 103.465 91.0762 103.445C91.1209 103.424 91.171 103.411 91.2233 103.405C91.2756 103.4 91.3289 103.402 91.3797 103.413L95.1528 104.304C95.2336 104.322 95.3028 104.361 95.3479 104.413C95.393 104.465 95.411 104.528 95.3985 104.589L90.8955 129.575C91.2848 130.715 91.3634 131.899 91.1268 133.061C90.8304 134.811 89.8835 135.581 88.568 136.651C88.2066 136.947 87.8452 137.273 87.3826 137.653C86.0743 138.813 82.8578 142.651 77.5163 149.01C75.0226 151.979 72.0808 155.485 68.6764 159.492C57.9138 172.178 56.114 176.591 55.4418 178.252C54.8833 179.795 54.4489 181.36 54.1407 182.939C54.1302 182.995 54.0957 183.046 54.0423 183.087C53.9888 183.127 53.9191 183.154 53.8434 183.163C53.7677 183.172 53.6898 183.164 53.6211 183.139C53.5524 183.114 53.4964 183.073 53.4613 183.024L52.912 182.238C51.6368 183.292 50.2416 184.266 48.7414 185.148C45.9008 186.825 41.6507 187.99 38.4269 187.99ZM37.4367 187.421L37.986 187.453C41.0507 187.563 45.4743 186.398 48.286 184.721C49.8953 183.784 51.3745 182.733 52.7024 181.584C52.7401 181.55 52.7888 181.523 52.8442 181.505C52.8997 181.488 52.9602 181.48 53.0204 181.484C53.0801 181.488 53.1372 181.504 53.1865 181.529C53.2359 181.554 53.2757 181.587 53.3023 181.626L53.5914 182.043C53.8736 180.708 54.2597 179.386 54.7479 178.083C55.4273 176.406 57.2488 171.946 68.062 159.197C71.4592 155.19 74.4058 151.697 76.9019 148.72C82.2507 142.34 85.4889 138.491 86.8188 137.305C87.2525 136.915 87.6573 136.583 88.0331 136.282C89.2981 135.228 90.1365 134.569 90.404 132.982C90.6391 131.876 90.5629 130.748 90.1799 129.665C90.1692 129.627 90.1692 129.587 90.1799 129.549L94.6613 104.72L91.5893 103.998L87.1947 131.21C87.1883 131.248 87.1708 131.285 87.1434 131.317C87.1159 131.35 87.0792 131.378 87.0357 131.4C87.0357 131.4 83.6313 133.103 83.1108 134.426C82.547 135.839 81.9833 137.69 81.9833 137.706C81.9873 137.73 81.9873 137.755 81.9833 137.78C80.74 139.425 51.5097 178.057 50.346 179.206C48.5542 180.721 46.288 181.899 43.7396 182.639C42.047 182.905 40.3364 183.105 38.6149 183.24C36.938 183.403 34.8057 183.614 33.6781 183.767C34.8523 183.989 36.0418 184.165 37.2416 184.294C37.3309 184.303 37.4124 184.337 37.4699 184.387C37.5274 184.438 37.5568 184.503 37.5524 184.568C37.5488 184.633 37.5119 184.695 37.4489 184.741C37.3859 184.787 37.3016 184.814 37.2126 184.816C34.8968 184.89 32.5891 185.066 30.3026 185.344C32.157 185.442 34.0172 185.468 35.8754 185.423C40.7977 185.386 41.5567 185.423 41.6579 185.839C41.7446 186.14 41.2748 186.293 41.0652 186.366C40.3424 186.588 39.6196 186.793 38.9907 186.973C38.4342 187.12 37.8342 187.289 37.4367 187.421Z" fill="#263238"/>
<path d="M29.8187 30.0013C28.7851 34.8099 32.8112 43.1247 33.7364 41.9753C34.6615 40.8259 34.611 37.6096 34.611 37.6096C34.611 37.6096 37.5383 33.7026 38.4635 32.4372C39.2584 31.3431 40.1874 30.3036 41.2391 29.3317L43.4726 27.5601C43.4726 27.5601 43.8773 26.7956 44.3905 25.8834C44.9037 24.9712 46.7469 23.1311 46.942 22.3719C47.1372 21.6126 40.6608 21.1064 40.6608 21.1064C38.8032 22.0502 30.8524 25.1927 29.8187 30.0013Z" fill="white"/>
<path d="M33.5264 42.3553C33.4543 42.3551 33.3831 42.3443 33.3168 42.3237C31.7483 41.9177 28.5101 34.3726 29.4642 29.9648C30.4183 25.5569 36.8947 22.5832 39.6703 21.2861C39.9955 21.1385 40.2702 21.0119 40.4653 20.9118C40.5372 20.8756 40.6241 20.8588 40.7111 20.8643C42.0483 20.9698 46.4936 21.3916 47.1802 22.0717C47.2367 22.1239 47.2769 22.1844 47.2981 22.249C47.3193 22.3137 47.321 22.3809 47.3031 22.4461C46.9519 23.1763 46.4655 23.8682 45.8575 24.5024C45.4395 24.9876 45.0629 25.4913 44.7299 26.0103C44.2239 26.9225 43.8192 27.6817 43.8192 27.6817C43.802 27.7127 43.7776 27.7413 43.7469 27.7661L41.5134 29.5377C40.4759 30.4907 39.5635 31.5128 38.7884 32.5905C37.9283 33.761 35.3551 37.2093 34.9792 37.7049C34.9792 38.1953 34.9792 41.0056 34.0468 42.1181C33.998 42.1885 33.9237 42.2478 33.832 42.2897C33.7402 42.3315 33.6346 42.3542 33.5264 42.3553ZM40.7906 21.4021L40.0678 21.7343C37.3789 22.9733 31.0833 25.8785 30.187 30.0491C29.2691 34.3305 32.4205 41.1215 33.483 41.7859C34.2998 40.647 34.2709 37.6627 34.2709 37.6364C34.2706 37.5905 34.2855 37.5453 34.3143 37.5046C34.3143 37.5046 37.2416 33.5976 38.1668 32.3374C38.9739 31.2195 39.925 30.1602 41.0075 29.1739L43.1759 27.4445C43.2698 27.2652 43.6312 26.5956 44.0649 25.81C44.4166 25.265 44.8149 24.7367 45.2576 24.2282C45.8082 23.6426 46.2596 23.0106 46.602 22.3459C46.3779 22.0823 43.718 21.6341 40.7617 21.3968L40.7906 21.4021Z" fill="#263238"/>
<path d="M36.5914 33.6979L35.4566 34.6154C35.4566 34.6154 33.7725 33.0336 32.8328 32.8121C31.8932 32.5907 31.3005 34.9212 31.0837 34.3412C30.7752 33.1648 30.5843 31.9735 30.5126 30.7769C30.4895 30.3021 30.3137 29.838 29.9994 29.4219C29.9344 29.6117 29.8621 29.8015 29.8187 30.0019C28.7851 34.8105 32.8112 43.1253 33.7364 41.9759C34.6615 40.8265 34.611 37.6102 34.611 37.6102L36.8661 34.5943L36.5914 33.6979Z" fill="#263238"/>
<path d="M33.5264 42.356C33.4543 42.3557 33.3831 42.3449 33.3168 42.3243C31.7483 41.9184 28.5101 34.3733 29.4642 29.9654C29.5004 29.7967 29.551 29.6332 29.6088 29.4698V29.3643C29.6266 29.3128 29.6649 29.2663 29.7189 29.2306C29.773 29.1949 29.8403 29.1717 29.9124 29.164C29.9845 29.1577 30.0576 29.1674 30.1221 29.1918C30.1865 29.2163 30.2394 29.2544 30.2738 29.3011C30.6229 29.7545 30.8163 30.2628 30.8376 30.7827C30.8975 31.7718 31.0351 32.7576 31.2496 33.7353C31.611 33.1237 32.0952 32.3803 32.9048 32.5648C33.7143 32.7493 34.8925 33.7406 35.4346 34.2151L36.2803 33.5244C36.3256 33.4892 36.3829 33.4633 36.4464 33.4494C36.5099 33.4355 36.5772 33.4341 36.6417 33.4453C36.7058 33.4584 36.7639 33.484 36.8097 33.5193C36.8556 33.5546 36.8874 33.5982 36.9019 33.6457L37.191 34.5578C37.2116 34.6205 37.1987 34.6865 37.1549 34.7424L34.9431 37.7003C34.9431 38.1906 34.9431 41.0009 34.0107 42.1134C33.9658 42.1811 33.8975 42.239 33.8126 42.2815C33.7277 42.3241 33.6291 42.3497 33.5264 42.356ZM30.1075 30.4241C29.4353 34.716 32.435 41.1486 33.4686 41.7865C34.2853 40.6477 34.2564 37.6634 34.2564 37.637C34.2561 37.5912 34.271 37.546 34.2998 37.5052C34.2998 37.5052 35.4202 36.0131 36.4682 34.5737L36.367 34.2573L35.702 34.7846C35.6677 34.814 35.6242 34.837 35.5751 34.8517C35.5261 34.8663 35.473 34.8723 35.4201 34.8689C35.3668 34.8691 35.3141 34.8602 35.2664 34.8428C35.2187 34.8253 35.1773 34.8 35.1455 34.7687C34.5239 34.1782 33.3023 33.187 32.6952 33.0551C32.594 33.0235 32.3627 33.1764 31.8639 34.0358C31.611 34.4735 31.4592 34.7107 31.1411 34.6949C31.0255 34.6949 30.8159 34.6422 30.7291 34.3997C30.416 33.2023 30.2228 31.9899 30.1509 30.7721C30.1506 30.6537 30.1361 30.5355 30.1075 30.4189V30.4241Z" fill="#263238"/>
<path d="M32.818 39.9829C32.7449 39.9826 32.6735 39.9663 32.613 39.9363C32.5525 39.9062 32.5056 39.8637 32.4783 39.8142C31.586 37.3304 31.1007 34.7783 31.0327 32.2111C31.105 29.3007 36.2514 26.7909 39.2799 25.7733C40.8794 25.1827 42.5815 24.7534 44.3396 24.4973C44.4354 24.4882 44.5323 24.5073 44.6089 24.5503C44.6855 24.5933 44.7355 24.6568 44.748 24.7267C44.7604 24.7966 44.7343 24.8673 44.6753 24.9231C44.6164 24.979 44.5294 25.0155 44.4335 25.0246C42.7412 25.2695 41.1023 25.681 39.5618 26.2478C36.8802 27.1547 31.8061 29.5643 31.7338 32.2217C31.8282 34.7144 32.3132 37.191 33.1795 39.6033C33.1971 39.6355 33.2058 39.6699 33.2051 39.7045C33.2045 39.7392 33.1945 39.7734 33.1757 39.8053C33.1569 39.8371 33.1297 39.8659 33.0956 39.89C33.0615 39.9142 33.0212 39.9332 32.9771 39.946C32.9281 39.9661 32.8739 39.9786 32.818 39.9829Z" fill="#263238"/>
<path d="M45.6914 21.566C45.6914 21.566 47.0141 19.4569 48.7923 19.7944C50.5704 20.1318 50.78 20.9227 49.5151 21.5343C48.7186 21.9189 47.8424 22.2073 46.9202 22.3885L45.6914 21.566Z" fill="white"/>
<path d="M46.9485 22.6519C46.9045 22.6526 46.8608 22.6468 46.8198 22.6351C46.7789 22.6233 46.7415 22.6057 46.71 22.5834L45.4523 21.7608C45.3941 21.7238 45.3541 21.6738 45.3384 21.6186C45.3227 21.5634 45.3323 21.5059 45.3656 21.455C45.4234 21.3601 46.8112 19.1193 48.8856 19.5411C50.23 19.8205 50.5987 20.2687 50.6709 20.5956C50.7215 20.8276 50.6709 21.2916 49.7458 21.7556C48.9136 22.1568 47.9984 22.4576 47.0352 22.6466L46.9485 22.6519ZM46.1751 21.5025L47.0786 22.0983C47.8938 21.9231 48.6685 21.6601 49.3771 21.318C49.8108 21.1018 50.0349 20.8698 49.9915 20.68C49.9481 20.4902 49.4711 20.2002 48.7266 20.0473C47.5195 19.8047 46.4787 21.0385 46.1751 21.5025Z" fill="#263238"/>
<path d="M48.6978 20.9335C48.6992 21.0232 48.6641 21.1112 48.597 21.1863C48.5299 21.2615 48.4338 21.3204 48.3207 21.3557C48.2077 21.391 48.0829 21.401 47.962 21.3845C47.8412 21.368 47.7297 21.3258 47.6418 21.2631C47.5539 21.2005 47.4934 21.1202 47.468 21.0324C47.4426 20.9447 47.4534 20.8534 47.4992 20.7702C47.5449 20.6869 47.6234 20.6154 47.7248 20.5647C47.8263 20.514 47.946 20.4864 48.0689 20.4854C48.1506 20.4847 48.2316 20.4957 48.3074 20.5179C48.3832 20.54 48.4522 20.5728 48.5106 20.6145C48.569 20.6561 48.6156 20.7057 48.6477 20.7604C48.6798 20.8152 48.6968 20.874 48.6978 20.9335Z" fill="#263238"/>
<path d="M131.532 78.6147C129.32 78.6147 125.641 76.5056 123.581 73.8693C123.556 73.8397 123.54 73.8068 123.533 73.7726C123.527 73.7383 123.53 73.7034 123.542 73.67C123.554 73.6366 123.575 73.6052 123.604 73.5779C123.633 73.5505 123.669 73.5277 123.711 73.5108C123.796 73.4777 123.895 73.4697 123.988 73.4884C124.08 73.507 124.16 73.5509 124.21 73.611C126.58 76.6374 130.715 78.4776 132.023 78.0294C132.659 77.8132 132.666 76.9749 132.023 75.7253C129.688 71.0591 119.952 65.2065 119.331 64.8374L110.158 61.5157C110.084 61.484 110.027 61.434 109.999 61.3746C109.971 61.3153 109.972 61.2505 110.004 61.192C110.035 61.1334 110.094 61.085 110.17 61.0554C110.246 61.0259 110.334 61.0171 110.418 61.0306C112.355 61.4518 114.324 61.7864 116.316 62.0324C115.381 61.4569 114.394 60.9285 113.36 60.4506C113.318 60.4329 113.28 60.409 113.251 60.3804C113.221 60.3519 113.2 60.3192 113.188 60.2844C113.177 60.2497 113.175 60.2135 113.183 60.1782C113.191 60.1429 113.209 60.1092 113.235 60.0791C113.262 60.049 113.296 60.0231 113.337 60.0031C113.378 59.9831 113.424 59.9693 113.472 59.9626C113.52 59.956 113.57 59.9565 113.618 59.9643C113.665 59.972 113.711 59.9868 113.751 60.0077L116.584 61.3259C116.647 61.3549 116.695 61.3973 116.724 61.4473C116.752 61.4973 116.759 61.5525 116.743 61.6053C116.934 61.7278 117.109 61.8638 117.263 62.0113C117.321 62.0685 117.353 62.1378 117.353 62.209C117.353 62.2802 117.321 62.3495 117.263 62.4068C117.14 62.5333 116.909 62.76 113.649 62.2011L119.663 64.3787C119.691 64.3841 119.716 64.395 119.735 64.4103C120.162 64.6581 130.216 70.6109 132.681 75.546C133.686 77.5443 133.021 78.2614 132.291 78.5092C132.05 78.5816 131.792 78.6175 131.532 78.6147Z" fill="#263238"/>
<path d="M113.353 74.8878C112.327 74.8878 111.026 73.4326 110.173 72.3042C110.173 72.8315 110.129 73.5117 110.021 74.2709C110.032 74.3827 109.993 74.4941 109.912 74.5889C109.83 74.6837 109.709 74.757 109.566 74.7982C108.843 74.9775 107.874 74.2709 105.511 72.5468C103.147 70.8227 100.061 68.5555 96.9889 67.3849C90.9968 65.1019 79.9089 65.1652 75.8034 67.5115C74.5477 68.2221 73.1027 68.7339 71.5605 69.0142C71.4647 69.0316 71.3632 69.0206 71.2785 68.9836C71.1938 68.9465 71.1327 68.8864 71.1088 68.8164C71.0848 68.7465 71.0999 68.6725 71.1508 68.6107C71.2016 68.5489 71.284 68.5044 71.3798 68.4869C72.8263 68.2274 74.1811 67.7477 75.3553 67.0791C79.6415 64.6379 91.1341 64.543 97.3214 66.8999C100.494 68.1126 103.689 70.4536 105.995 72.1724C107.303 73.132 108.778 74.2182 109.262 74.2815C109.26 74.2639 109.26 74.2463 109.262 74.2288C109.415 73.2204 109.446 72.2041 109.356 71.1917C109.351 71.13 109.375 71.0688 109.423 71.018C109.472 70.9673 109.542 70.93 109.624 70.9123C109.705 70.8965 109.792 70.9022 109.868 70.9282C109.945 70.9542 110.007 70.9989 110.043 71.0547C111.127 72.6944 112.667 74.4238 113.317 74.3764C113.397 74.3764 113.534 74.2551 113.635 73.9546C114.416 71.6874 111.734 66.0457 111.705 65.993L110.57 64.2794C110.534 64.2267 110.524 64.1667 110.541 64.1091C110.558 64.0516 110.602 64.0001 110.664 63.963C110.728 63.9263 110.807 63.9062 110.888 63.9062C110.97 63.9062 111.049 63.9263 111.113 63.963C111.178 63.9999 117.618 67.5168 121.788 71.1812C121.819 71.2081 121.842 71.2391 121.856 71.2726C121.871 71.3061 121.875 71.3413 121.871 71.3761C121.866 71.411 121.852 71.4448 121.829 71.4756C121.806 71.5064 121.775 71.5336 121.738 71.5556C121.664 71.5993 121.569 71.6199 121.474 71.613C121.38 71.6061 121.292 71.5722 121.232 71.5186C118.422 69.1487 115.315 66.9757 111.951 65.0281L112.428 65.7557C112.558 66.0193 115.225 71.6241 114.394 74.0495C114.221 74.5767 113.903 74.8245 113.447 74.8615L113.353 74.8878Z" fill="#263238"/>
<path d="M68.4092 69.2722C67.7206 69.2779 67.033 69.2338 66.3564 69.1404C66.2605 69.1257 66.1766 69.0839 66.1231 69.0241C66.0695 68.9642 66.0507 68.8914 66.0709 68.8214C66.091 68.7515 66.1484 68.6903 66.2304 68.6512C66.3124 68.6122 66.4123 68.5985 66.5082 68.6132C67.3993 68.7334 68.3083 68.7671 69.2115 68.7134C69.2592 68.7105 69.3072 68.7147 69.3526 68.7257C69.398 68.7367 69.4398 68.7544 69.4756 68.7775C69.5114 68.8007 69.5404 68.8289 69.5609 68.8605C69.5813 68.892 69.5928 68.9263 69.5946 68.9612C69.6005 69.0303 69.569 69.0983 69.5068 69.1506C69.4446 69.2029 69.3567 69.2352 69.2621 69.2406C68.9585 69.2459 68.6766 69.2722 68.4092 69.2722Z" fill="#263238"/>
<path d="M160.668 92.1555C160.621 92.1553 160.574 92.1482 160.53 92.1346C160.487 92.1211 160.448 92.1013 160.415 92.0764C158.941 91.1307 157.367 90.2704 155.709 89.5034C154.984 89.4277 154.287 89.2485 153.657 88.9762C153.035 88.6756 150.527 87.7951 149.356 87.3944C149.379 87.5216 149.365 87.6509 149.317 87.7742C149.268 87.8976 149.186 88.0123 149.074 88.1115C148.965 88.1848 148.831 88.2348 148.685 88.2562C148.54 88.2776 148.389 88.2695 148.25 88.2327C147.404 88.064 143.985 86.8724 142.793 86.4453C142.697 86.8406 142.446 87.207 142.07 87.4998C141.889 87.5947 141.492 87.7898 139.836 86.5508C139.786 86.8533 139.616 87.1387 139.348 87.3725C139.08 87.6064 138.725 87.7787 138.326 87.8689C136.801 88.2433 133.049 85.9761 131.315 84.8477C131.441 85.5506 131.181 86.2614 130.592 86.8249C130.281 87.0343 129.902 87.1813 129.49 87.2516C129.078 87.3218 128.648 87.3129 128.243 87.2257C126.725 87.0148 124.766 86.2344 122.46 84.911C122.391 84.8668 122.348 84.805 122.339 84.7382C122.33 84.6714 122.356 84.6047 122.412 84.5516C122.468 84.4984 122.55 84.463 122.641 84.4524C122.732 84.4417 122.825 84.4568 122.901 84.4945C125.113 85.7494 127.014 86.5139 128.402 86.709C128.689 86.7748 128.995 86.7865 129.291 86.7432C129.587 86.6999 129.862 86.6029 130.093 86.4611C130.816 85.9339 130.621 84.6632 130.483 84.2308C130.465 84.1753 130.473 84.117 130.504 84.0647C130.535 84.0125 130.589 83.969 130.657 83.9408C130.724 83.9129 130.802 83.9014 130.878 83.9081C130.955 83.9147 131.027 83.9392 131.083 83.9778C133.382 85.5595 137.068 87.6211 138.095 87.368C138.48 87.2629 138.798 87.0563 138.985 86.789C139.172 86.5216 139.216 86.2128 139.106 85.9233C139.088 85.8659 139.096 85.8056 139.13 85.752C139.165 85.6985 139.222 85.6548 139.294 85.6281C139.365 85.5996 139.446 85.5898 139.525 85.6004C139.605 85.6109 139.676 85.6412 139.728 85.6861C140.307 86.1965 140.981 86.6455 141.73 87.02C141.973 86.6918 142.135 86.3348 142.207 85.9655C142.219 85.9258 142.243 85.8887 142.278 85.8567C142.312 85.8248 142.356 85.799 142.406 85.7813C142.456 85.7635 142.511 85.7543 142.567 85.7542C142.623 85.7542 142.678 85.7633 142.728 85.781C144.383 86.3715 147.715 87.5262 148.467 87.6791C148.51 87.6848 148.554 87.6848 148.597 87.6791C148.702 87.4444 148.702 87.1915 148.597 86.9568C148.579 86.908 148.581 86.8565 148.602 86.8084C148.623 86.7603 148.662 86.7176 148.715 86.6854C148.769 86.6532 148.834 86.6329 148.902 86.6268C148.971 86.6206 149.041 86.629 149.103 86.651C149.269 86.709 153.237 88.0745 154.105 88.4858C154.663 88.7264 155.283 88.8824 155.926 88.9445C155.982 88.9488 156.036 88.9613 156.085 88.9814C157.807 89.78 159.441 90.6756 160.971 91.6599C161.023 91.6965 161.059 91.7436 161.074 91.7951C161.089 91.8467 161.083 91.9003 161.055 91.9491C161.028 91.9979 160.981 92.0396 160.921 92.0689C160.861 92.0982 160.791 92.1137 160.718 92.1133L160.668 92.1555Z" fill="#263238"/>
<path d="M121.174 84.0883C121.087 84.088 121.002 84.0656 120.935 84.025C120.01 83.4398 119.417 83.0179 119.396 83.0021C119.358 82.9787 119.327 82.9498 119.305 82.9172C119.283 82.8846 119.27 82.849 119.268 82.8127C119.266 82.7765 119.274 82.7402 119.292 82.7063C119.309 82.6724 119.337 82.6415 119.372 82.6156C119.407 82.5898 119.448 82.5695 119.495 82.556C119.541 82.5425 119.591 82.5361 119.64 82.5372C119.69 82.5384 119.739 82.547 119.784 82.5626C119.829 82.5782 119.869 82.6004 119.902 82.6278C119.902 82.6278 120.502 83.0549 121.412 83.6243C121.484 83.6709 121.528 83.7362 121.535 83.8061C121.542 83.876 121.511 83.9451 121.449 83.9987C121.414 84.0266 121.371 84.049 121.324 84.0644C121.277 84.0798 121.226 84.0879 121.174 84.0883Z" fill="#263238"/>
<path d="M147.824 80.5137C147.783 80.5187 147.742 80.5187 147.701 80.5137C145.873 80.0039 144.102 79.3922 142.403 78.6841C138.977 77.2974 134.061 74.6558 132.204 72.9212C130.993 71.8183 129.629 70.8094 128.134 69.9105C128.059 69.8672 128.01 69.8037 127.998 69.7339C127.987 69.6642 128.014 69.594 128.073 69.5388C128.132 69.4836 128.22 69.4478 128.315 69.4394C128.411 69.431 128.507 69.4506 128.583 69.494C130.126 70.4184 131.532 71.4594 132.775 72.5995C134.546 74.2551 139.454 76.8914 142.757 78.2201C144.419 78.9145 146.152 79.5156 147.939 80.018C148.035 80.0292 148.121 80.0677 148.178 80.1251C148.235 80.1825 148.258 80.2539 148.243 80.3239C148.228 80.3938 148.175 80.4564 148.096 80.4979C148.018 80.5394 147.92 80.5565 147.824 80.5453V80.5137Z" fill="#263238"/>
<path d="M77.7839 85.5333H77.7332C74.1192 85.1326 70.8883 82.897 70.7509 82.781C70.7171 82.7565 70.6902 82.7273 70.6718 82.6952C70.6535 82.6631 70.644 82.6286 70.644 82.5938C70.644 82.559 70.6535 82.5246 70.6718 82.4924C70.6902 82.4603 70.7171 82.4312 70.7509 82.4066C70.7839 82.3821 70.8233 82.3626 70.8667 82.3493C70.9102 82.336 70.9568 82.3291 71.0039 82.3291C71.051 82.3291 71.0977 82.336 71.1411 82.3493C71.1846 82.3626 71.2239 82.3821 71.2569 82.4066C71.2931 82.433 74.43 84.6422 77.8417 85.0166C77.9358 85.0283 78.02 85.0661 78.0766 85.1221C78.1332 85.1782 78.1578 85.2481 78.1453 85.3171C78.1285 85.3781 78.0834 85.4329 78.0175 85.4723C77.9516 85.5117 77.8691 85.5333 77.7839 85.5333Z" fill="#263238"/>
<path d="M82.0337 88.0107C78.904 88.0107 74.9286 86.3499 74.7406 86.2708C74.6683 86.2324 74.618 86.1758 74.5996 86.1119C74.5811 86.0481 74.5958 85.9815 74.6408 85.9251C74.6857 85.8686 74.7578 85.8264 74.843 85.8065C74.9282 85.7866 75.0205 85.7905 75.102 85.8173C75.1526 85.8173 80.1038 87.9 83.0529 87.3991C83.1487 87.383 83.2494 87.3954 83.3328 87.4335C83.4162 87.4715 83.4754 87.5322 83.4974 87.6021C83.5195 87.672 83.5026 87.7455 83.4504 87.8063C83.3982 87.8671 83.315 87.9103 83.2192 87.9264C82.8301 87.989 82.4321 88.0173 82.0337 88.0107Z" fill="#263238"/>
<path d="M86.4935 90.2793C83.6022 90.2793 79.0486 88.9242 78.839 88.861C78.7523 88.8331 78.6837 88.7819 78.6473 88.7181C78.611 88.6543 78.6097 88.5827 78.6438 88.5182C78.662 88.4859 78.6888 88.4564 78.7227 88.4317C78.7567 88.4069 78.797 88.3874 78.8414 88.3741C78.8858 88.3609 78.9334 88.3542 78.9814 88.3545C79.0294 88.3548 79.0768 88.3621 79.1208 88.3759C79.1714 88.3759 84.4913 89.9577 87.1151 89.7257C87.1623 89.7197 87.2108 89.7209 87.2573 89.7293C87.3039 89.7377 87.3476 89.753 87.3856 89.7743C87.4236 89.7956 87.4552 89.8224 87.4783 89.8531C87.5014 89.8837 87.5156 89.9175 87.5199 89.9524C87.5322 90.0216 87.5064 90.0915 87.4481 90.1469C87.3899 90.2022 87.3039 90.2385 87.209 90.2476C86.9717 90.2693 86.7327 90.2799 86.4935 90.2793Z" fill="#263238"/>
<path d="M88.402 91.6853C87.0975 91.5635 85.8241 91.3042 84.6217 90.9155C84.5424 90.8848 84.4815 90.8336 84.4511 90.7719C84.4206 90.7102 84.4228 90.6425 84.4571 90.5819C84.4914 90.5214 84.5554 90.4723 84.6366 90.4443C84.7178 90.4162 84.8104 90.4113 84.8964 90.4304C86.0167 90.7626 88.0045 91.2529 88.5899 91.1475C88.6819 91.1297 88.7798 91.1391 88.8624 91.1736C88.9449 91.2082 89.0055 91.2651 89.0309 91.332C89.0428 91.3656 89.0455 91.4005 89.0389 91.4349C89.0323 91.4693 89.0164 91.5023 88.9923 91.5322C88.9681 91.5621 88.9361 91.5882 88.898 91.609C88.86 91.6299 88.8167 91.645 88.7706 91.6536C88.6501 91.6757 88.5262 91.6863 88.402 91.6853Z" fill="#263238"/>
<path d="M89.9701 134.258C91.0399 131.811 89.9701 129.386 87.621 128.832C87.4862 128.802 87.3485 128.779 87.209 128.764L86.8187 131.179C86.8187 131.179 83.3131 132.924 82.7493 134.342C82.4457 135.101 82.1421 135.982 81.9253 136.646C82.3559 137.136 83.0041 137.502 83.7612 137.685C86.1176 138.238 88.9004 136.704 89.9701 134.258Z" fill="#263238"/>
<path d="M84.7517 138.064C84.3738 138.064 83.9982 138.022 83.6385 137.937C82.8142 137.736 82.1064 137.339 81.6291 136.809C81.5996 136.779 81.5798 136.744 81.571 136.708C81.5622 136.671 81.5648 136.634 81.5785 136.598C81.7809 135.971 82.0917 135.064 82.4025 134.283C82.9374 132.923 85.807 131.378 86.4792 131.03L86.855 128.731C86.8607 128.695 86.8764 128.66 86.9013 128.628C86.9261 128.596 86.9596 128.569 86.9996 128.547C87.0792 128.505 87.1777 128.488 87.2742 128.499C87.4284 128.52 87.5806 128.548 87.7296 128.584C88.3884 128.757 88.9788 129.046 89.4488 129.425C89.9189 129.803 90.2543 130.261 90.4257 130.756C90.8538 131.935 90.8089 133.179 90.2964 134.339C89.7839 135.5 88.8253 136.529 87.5345 137.304C86.7441 137.771 85.7675 138.037 84.7517 138.064ZM82.3158 136.603C82.697 136.994 83.2388 137.285 83.8626 137.436C84.428 137.543 85.0205 137.549 85.5895 137.453C86.1585 137.356 86.687 137.161 87.1297 136.883C88.2921 136.173 89.1545 135.238 89.6164 134.185C90.0784 133.132 90.1209 132.005 89.739 130.935C89.5986 130.524 89.3243 130.143 88.9392 129.826C88.5542 129.508 88.0698 129.263 87.5272 129.111L87.1803 131.22C87.1739 131.258 87.1564 131.295 87.1289 131.327C87.1015 131.36 87.0648 131.388 87.0213 131.41C87.0213 131.41 83.6168 133.113 83.0964 134.436C82.8073 135.153 82.5182 135.992 82.3158 136.603Z" fill="#263238"/>
<path d="M43.5803 182.386C41.6288 182.829 31.0541 183.477 32.8177 183.894C34.2399 184.194 35.689 184.421 37.1546 184.574C37.1546 184.574 28.1412 184.927 29.5217 185.486C30.9023 186.045 43.6309 185.243 40.8987 186.124C38.1665 187.004 34.8416 187.595 38.0075 187.706C41.1734 187.816 45.6403 186.651 48.5605 184.916C50.188 183.971 51.6842 182.912 53.0274 181.753L53.8225 182.892C54.1331 181.293 54.5724 179.708 55.138 178.146C53.3008 179.524 51.3349 180.806 49.2544 181.985C45.597 184.094 50.0494 179.043 50.0494 179.043C48.2907 180.519 46.0722 181.665 43.5803 182.386Z" fill="#263238"/>
<path d="M38.4269 187.989H37.9499C36.938 187.947 36.4103 187.873 36.338 187.557C36.2658 187.24 36.9235 186.987 38.7016 186.502C39.2293 186.355 39.822 186.186 40.393 186.012C39.3738 185.949 37.3861 185.964 35.8321 185.975C32.218 186.007 29.9918 186.007 29.3268 185.738C29.2151 185.705 29.1224 185.645 29.0644 185.568C29.0064 185.491 28.9868 185.402 29.0088 185.316C29.0666 185.142 29.1822 184.762 34.2563 184.467C33.7287 184.377 33.1866 184.277 32.7023 184.161C32.218 184.045 32.2397 183.903 32.2542 183.787C32.2976 183.412 32.8035 183.291 38.4559 182.732C40.138 182.599 41.8098 182.403 43.4649 182.147C45.8687 181.444 48.0109 180.336 49.7172 178.915C49.7735 178.86 49.8572 178.823 49.9504 178.812C50.0436 178.801 50.1389 178.817 50.2159 178.857C50.2935 178.895 50.3469 178.955 50.3646 179.022C50.3822 179.089 50.3625 179.159 50.3099 179.215C49.4273 180.151 48.6994 181.16 48.1415 182.221C48.4416 182.103 48.7249 181.963 48.9872 181.804C51.056 180.639 53.0078 179.367 54.8274 177.997C54.8824 177.954 54.9561 177.925 55.0364 177.917C55.1166 177.908 55.1985 177.92 55.2683 177.95C55.3398 177.98 55.3958 178.026 55.4272 178.081C55.4586 178.137 55.4638 178.198 55.4418 178.256C54.8833 179.798 54.4489 181.364 54.1407 182.943C54.1302 182.999 54.0957 183.05 54.0423 183.091C53.9888 183.131 53.9191 183.158 53.8434 183.167C53.7677 183.176 53.6898 183.168 53.6211 183.143C53.5524 183.118 53.4964 183.077 53.4613 183.028L52.912 182.242C51.6368 183.296 50.2416 184.27 48.7414 185.152C45.9008 186.824 41.6507 187.989 38.4269 187.989ZM37.4367 187.42L37.986 187.451C41.0507 187.562 45.4743 186.397 48.286 184.72C49.8953 183.782 51.3745 182.731 52.7024 181.583C52.7401 181.548 52.7888 181.521 52.8443 181.504C52.8997 181.486 52.9602 181.479 53.0204 181.483C53.0801 181.487 53.1372 181.502 53.1866 181.527C53.2359 181.552 53.2757 181.586 53.3023 181.625L53.5914 182.042C53.7577 181.282 54.0396 180.117 54.3937 179.041C52.8178 180.158 51.1627 181.214 49.4353 182.205C48.6185 182.674 47.9897 182.933 47.5921 182.669C47.4476 182.569 47.0645 182.316 48.2644 180.671C46.8983 181.507 45.3524 182.173 43.689 182.643C41.9964 182.909 40.2858 183.109 38.5643 183.244C36.8874 183.407 34.7551 183.618 33.6275 183.771C34.8017 183.993 35.9912 184.169 37.191 184.298C37.2803 184.307 37.3618 184.341 37.4193 184.391C37.4768 184.442 37.5062 184.507 37.5018 184.572C37.4982 184.637 37.4613 184.699 37.3983 184.745C37.3353 184.791 37.251 184.818 37.162 184.82C34.8462 184.893 32.5385 185.07 30.252 185.347C32.1064 185.446 33.9666 185.472 35.8248 185.427C40.7471 185.39 41.5061 185.427 41.6073 185.843C41.694 186.144 41.2242 186.297 41.0146 186.37C40.2918 186.592 39.569 186.797 38.9401 186.977C38.4342 187.119 37.8342 187.288 37.4367 187.42Z" fill="#263238"/>
</svg>
