<svg width="797" height="788" viewBox="0 0 797 788" fill="none" xmlns="http://www.w3.org/2000/svg">
<path d="M398.538 787C618.092 787 796.076 611.116 796.076 394.154C796.076 177.191 618.092 1.30811 398.538 1.30811C178.984 1.30811 1 177.191 1 394.154C1 611.116 178.984 787 398.538 787Z" fill="url(#paint0_radial_93_3)" stroke="#1E1E1E" stroke-miterlimit="10"/>
<path d="M344.659 219.676L385.195 227.965L399.015 242.124L417.015 244.867L422.746 261.739L418.537 273.184L406.269 278.73L376.18 273.892L375.375 270.235L389.583 260.442L379.762 242.537L352.868 238.879L338.54 226.756L344.659 219.676Z" fill="white"/>
<path d="M671.274 589.25L639.126 583.881L600.321 579.014L571.785 585.267L543.846 585.68L515.787 598.512L499.429 603.084L489.281 605.296L472.386 620.458L455.61 631.785L427.253 621.756L427.999 594.884L410.895 591.934L392.478 595.975L387.911 588.512L386.06 571.728L377.583 564.029L365.076 568.69L363.434 578.601L348.002 582.937L330.51 569.604L320.063 548.956L328.152 520.432L355.256 516.391L364.061 521.17L375.135 518.721L387.075 507.512L399.851 508.515L422.775 533.087L429.014 530.786L422.477 510.138L414.507 500.404L412.448 482.705L443.252 460.671L440.267 425.982L452.207 410.909L459.491 387.311L468.296 383.447L486.415 365.158L485.699 357.666L471.162 361.825L466.774 355.129L456.625 357.371L441.7 364.45L446.416 350.999L476.863 334.835L482.385 325.042L499.788 342.239L509.937 348.61L521.876 342.121L513.698 331.502L491.28 322.122L463.789 302.388L437.282 291.975L414.358 293.185L400.836 284.689L385.284 284.276L384.269 288.318L388.359 315.101L394.09 323.419L392.329 354.362L370.658 343.832V330.469L349.286 325.632L338.749 317.431L338.241 293.657L360.658 268.702L357.673 246.431L347.733 249.588L339.465 242.803L333.495 229.765L326.839 230.267L326.451 245.635L316.57 249.706L304.81 218.851L296.422 215.902L282.303 213.276L269.199 223.777L291.497 237.022L298.661 251.77L259.856 234.485L231.32 214.958L224.036 190.74L198.455 188.705L182.695 204.575C178.826 208.23 174.761 211.677 170.516 214.899C166.307 217.848 149.233 223.394 149.233 223.394L149.024 239.676L128.129 245.222L132.219 254.838L167.531 252.832L189.321 268.082L196.485 299.94L192.694 330.381L201.291 359.878L185.5 410.024L194.903 477.661L211.798 514.09L230.305 540.638L244.543 539.428L236.663 525.86L226.842 516.568L217.738 497.542L225.618 493.914L245.857 523.854L261.617 550.962L266.93 574.56L289.139 591.639L325.525 607.803L376.27 610.045L394.18 620.458L408.507 632.581L427.313 638.953L448.804 639.985L468.863 634.616C468.863 634.616 469.998 643.908 471.013 648.48C472.027 653.052 462.625 671.341 462.625 671.341L456.655 691.753L468.595 710.159L490.713 713.905L525.518 736.766L539.637 739.391L542.622 753.048L545.607 758.948C614.751 731.862 674.78 686.086 718.825 626.859L717.839 620.163L732.764 570.017L718.944 564.442L671.274 589.25Z" fill="white"/>
<path d="M686.258 208.703L672.259 193.63L654.857 176.433L645.036 149.886L662.229 148.971L661.095 139.679L648.917 141.39L658.021 134.606L667.662 125.757L665.602 116.642L651.275 104.519L644.529 85.4338C576.44 32.4715 492.716 2.92488 406.08 1.28503C319.445 -0.354816 234.637 26.0018 164.546 76.3486L189.142 86.5547L179.919 105.757L163.233 113.25L166.934 138.234L160.158 142.57L153.203 154.605L157.8 170.799L173.889 169.177L170.904 186.049L186.575 182.628L205.709 143.101L205.201 127.94L230.573 120.477L234.573 108.117L260.662 99.5336L259.946 83.4575L279.079 78.2955C279.079 78.2955 291.258 67.9714 294.004 67.3814C299.586 67.3474 305.164 67.7221 310.69 68.5023L326.958 76.3781L346.42 72.3075L360.748 58.6797L382.329 55.73C385.815 57.0569 389.57 57.5424 393.284 57.1459C397.881 56.1135 410.268 46.7333 410.268 46.7333L440.655 57.2343L453.551 63.1338L456.535 76.7911L470.774 75.5817L473.52 66.3785L486.743 69.3283L487.46 76.7911L461.461 90.0059L481.609 106.583L518.861 117.527L536.771 132.689L557.427 130.063L559.994 119.946L566.949 116.524L538.921 103.575L523.787 104.991L534.921 98.7076L520.384 85.6698L535.846 81.3042L558.562 87.7936L568.084 108.619L580.859 118.235L595.098 142.806L618.619 152.924L625.395 182.952L649.633 191.978L650.887 202.096V214.544L660.11 229.705L663.782 237.493L680.05 236.785L683.93 219.706L686.258 208.703Z" fill="white"/>
<path d="M677.752 114.37L678.916 119.591L677.603 135.166L683.214 147.319L694.169 148.735L698.049 166.02L686.11 163.896L694.378 213.658L687.841 236.106L700.915 259.969L715.362 268.258L726.407 317.43L746.973 353.004L766.405 379.315L788.822 380.112L792.106 360.29L794.583 357.34C793.007 341.093 790.425 324.958 786.852 309.023C770.328 235.067 732.426 167.445 677.752 114.37Z" fill="white"/>
<path d="M463.58 155.372L396.866 142.305L370.36 149.089L367.793 167.79L354.092 158.381L334.869 167.377L339.764 197.819L358.987 206.019L367.076 186.108L383.971 196.727L418.06 215.016L429.492 240.206L460.207 264.984L497.46 250.117L493.46 236.696L481.699 223.039L471.67 187.023L477.401 169.531L463.58 155.372Z" fill="white"/>
<path d="M517.817 164.487L503.191 163.868L493.46 176.522L505.848 201.477L517.817 198.852V164.487Z" fill="white"/>
<path d="M607.366 162.983L572.382 153.456L563.457 143.958L556.711 148.323L567.248 165.107L578.114 187.555L593.158 189.973L595.098 185.726L583.725 173.897L609.724 177.732L607.366 162.983Z" fill="white"/>
<path d="M412.269 550.577L409.403 555.031L438.865 557.155L452.775 567.479L470.685 565.443L474.893 554.028L452.894 555.031L412.269 550.577Z" fill="white"/>
<path d="M498.116 549.87L479.998 559.575L484.415 566.271L508.355 560.991L511.34 552.702L503.25 555.445L498.116 549.87Z" fill="white"/>
<defs>
<radialGradient id="paint0_radial_93_3" cx="0" cy="0" r="1" gradientUnits="userSpaceOnUse" gradientTransform="translate(399 394) rotate(90.0674) scale(393 397.694)">
<stop stop-color="#B2FFA6"/>
<stop offset="1" stop-color="#88E2FF" stop-opacity="0.61"/>
</radialGradient>
</defs>
</svg>
